<svg xmlns="http://www.w3.org/2000/svg" width="107" height="70" viewBox="4 16 107 70" enable-background="new 4 16 107 70"><path fill="#9C27B0" d="M4 16h107v70h-107z"/><path opacity=".69" fill="#7C1F92" d="M79.5 16h-44c-11.6 7.2-19.3 20-19.3 34.5s7.7 28.3 19.3 35.5h43.9c11.6-7.2 19.3-20.9 19.3-35.5.1-14.5-7.6-27.3-19.2-34.5z"/><path fill="#F4478A" d="M48.1 73.3h-35.8c-1.5 0-2.6-1.2-2.6-2.6v-39.4c0-1.5 1.2-2.6 2.6-2.6h25.2l13.2 13.3v28.7c0 1.4-1.2 2.6-2.6 2.6z"/><path fill="#D81B60" d="M50.7 42h-10.6c-1.5 0-2.6-1.2-2.6-2.6v-10.8l13.2 13.4z"/><path fill="#FFB500" d="M102.6 73.6h-35.8c-1.5 0-2.6-1.2-2.6-2.6v-39.5c0-1.5 1.2-2.6 2.6-2.6h25.2l13.2 13.4v28.7c0 1.4-1.1 2.6-2.6 2.6z"/><path fill="#FB8100" d="M105.2 42.3h-10.6c-1.5 0-2.6-1.2-2.6-2.6v-10.8l13.2 13.4z"/><g fill="#fff"><path d="M22.9 49.2c-.2-.3-.5-.5-.9-.5s-.7.2-.9.6l-3 6.3c-.1.1-.1.3-.1.3 0 .5.4.9 1 .9.4 0 .8-.2.9-.6l.7-1.6h2.7l.7 1.6c.2.3.5.6.9.6.6 0 1-.4 1-.9 0-.1 0-.3-.1-.4l-2.9-6.3zm-1.5 3.8l.6-1.2.6 1.2h-1.2zM32.9 48.6c-.5 0-1 .4-1 .9v3.7l-3.2-4.2c-.2-.2-.5-.3-.8-.3-.5 0-1 .4-1 .9v6.4c0 .5.4.9 1 .9s1-.4 1-.9v-3.6l3.3 4.2c.2.2.5.3.8.3.5 0 1-.4 1-.9v-6.4c-.1-.6-.5-1-1.1-1zM38.9 51.7c-.7-.2-1.6-.5-1.6-.8 0-.5.9-.6 1.2-.6.9 0 1.3.4 1.6.6.2.2.4.3.7.3.5 0 .9-.4.9-.9 0-.2-.1-.4-.2-.5-.6-.8-1.7-1.3-3-1.3-2.3 0-3.2 1.2-3.2 2.3 0 1.7 1.7 2.2 2.9 2.5 1 .3 1.7.5 1.7.9 0 .2 0 .8-1.5.8-1 0-1.5-.5-1.7-.7-.2-.3-.5-.4-.8-.4-.5 0-.9.4-.9.9l.1.5c.6.9 1.9 1.5 3.3 1.5 2.2 0 3.5-1 3.5-2.6s-1.7-2.1-3-2.5zM73 49h-3.9c-.5 0-1 .4-1 .9v6.3c0 .5.4.9 1 .9.5 0 1-.4 1-.9v-2.3h2.1c.5 0 .9-.4.9-.9s-.4-.9-.9-.9h-2.1v-1.4h2.9c.5 0 .9-.4.9-.9s-.4-.8-.9-.8zM79.2 48.8c-2.8 0-4.4 1.5-4.4 4.2 0 2.6 1.6 4.2 4.4 4.2 2.8 0 4.4-1.5 4.4-4.2-.1-2.6-1.7-4.2-4.4-4.2zm0 6.6c-1.6 0-2.4-.8-2.4-2.4 0-1.6.8-2.4 2.4-2.4 1.6 0 2.4.8 2.4 2.4-.1 1.7-.8 2.4-2.4 2.4zM88.7 49.5c-.2-.3-.5-.5-.9-.5s-.7.2-.9.6l-3 6.3c-.1.2-.1.4-.1.4 0 .5.4.9 1 .9.4 0 .8-.2.9-.6l.7-1.6h2.7l.7 1.6c.2.3.5.6.9.6.6 0 1-.4 1-.9 0-.1 0-.3-.1-.4l-2.9-6.4zm-1.5 3.7l.6-1.2.6 1.2h-1.2zM100.3 48.9c-.2 0-.6.1-.8.5l-2.5 3.9-2.5-3.9c-.2-.3-.5-.5-.8-.5-.5 0-1 .4-1 .9v6.4c0 .5.4.9 1 .9.5 0 1-.4 1-.9v-3.1l1.5 2.4c.2.3.5.5.8.5.3 0 .7-.2.8-.5l1.5-2.4v3.1c0 .5.4.9 1 .9.5 0 1-.4 1-.9v-6.4c-.1-.5-.5-.9-1-.9z"/></g><path fill="#fff" d="M55.8 49.5c-.5.5-.5 1.3 0 1.8l1.6 1.6h-4c-.7 0-1.2.6-1.2 1.2 0 .7.6 1.2 1.2 1.2h4l-1.6 1.7c-.5.5-.5 1.3 0 1.8s1.3.5 1.8 0l4.6-4.6-4.6-4.6c-.2-.2-.6-.4-.9-.4-.4 0-.7.1-.9.3z"/></svg>