<svg xmlns="http://www.w3.org/2000/svg" width="627" height="411.3" viewBox="16 215.6 627 411.3" enable-background="new 16 215.6 627 411.3"><path fill="#FFEC00" d="M15.9 216h627v411.5h-627z"/><path fill="#FFC500" d="M505.1 277c-45.9-15.5-76.8-36.5-105.1-45.5-34-10.9-70.6-9.5-70.6-9.5s-36.6-1.4-70.6 9.5c-28.3 9-59.1 30-105.1 45.5-45.9 15.4-137.7 12-137.7 12v104l313.5-14 313.5 14v-104c-.1 0-91.9 3.4-137.9-12z"/><path fill="#FB9500" d="M505.1 357.6c-45.9-27.1-76.8-63.7-105.1-79.5-34-19-70.6-16.6-70.6-16.6s-36.6-2.5-70.6 16.6c-28.3 15.8-59.1 52.5-105.1 79.5-45.9 27.1-137.8 21-137.8 21v42h627v-42s-91.8 6.1-137.8-21z"/><path fill="#FFC500" d="M505.1 565.9c-45.9 15.5-76.8 36.5-105.1 45.5-34 10.9-70.6 9.5-70.6 9.5s-36.6 1.4-70.6-9.5c-28.3-9-59.1-30-105.1-45.5-45.9-15.5-137.8-12-137.8-12v-114l313.5 14 313.5-14v114s-91.8-3.4-137.8 12z"/><path fill="#FB9500" d="M505.1 485.3c-45.9 27.1-76.8 63.7-105.1 79.5-34 19-70.6 16.6-70.6 16.6s-36.6 2.5-70.6-16.6c-28.3-15.8-59.1-52.5-105.1-79.5-45.9-27.1-137.8-21-137.8-21v-47h627v47s-91.8-6.1-137.8 21z"/><g fill="#fff"><path d="M213.4 380h-74.4c-3.7 0-6.8 1.4-8.5 3.9-1.7 2.5-1.9 5.6-.3 8.7l35.5 72.8c1.6 3.4 4.4 5.3 7.5 5.3 1.8 0 5.1-.6 7.5-4.9l41.1-73.1c1.7-3.1 1.8-6.2.1-8.7-1.7-2.6-4.8-4-8.5-4zm-8.2 13.4c0 .2-.1.5-.4.9l-28.3 48.5-23.2-48c-.3-.7-.3-1.1-.3-1.2 0-.1.4-.3 1.3-.3h49.8c.6 0 .9.1 1.1.1zM257.7 394.2h-9.6l2.8-2c7.9-5.7 11.7-9.1 11.7-16.3 0-8.1-6.5-13.5-16.1-13.5-6.3 0-10.9 1.9-14.9 6.2-.9 1-1.5 2.4-1.5 3.7 0 3.1 2.6 5.4 5.9 5.4 2.4 0 3.9-1.2 4.4-1.7 2.1-2.1 3.6-2.9 5.6-2.9 2.5 0 3.9 1.2 3.9 3.4 0 2.4-1.4 4.1-6.6 8l-11.9 9c-2 1.5-3 3.4-3 5.5 0 3.3 2.7 5.6 6.7 5.6h22.7c3.2 0 5.7-2.3 5.7-5.2-.1-2.9-2.7-5.2-5.8-5.2zM421.9 428.6h-33.1c-4.6 0-8.5 3.6-8.5 7.9 0 4.3 3.8 7.9 8.5 7.9h33.1c4.7 0 8.5-3.5 8.5-7.9 0-4.3-3.9-7.9-8.5-7.9zM421.9 401.1h-33.1c-4.7 0-8.5 3.5-8.5 7.8s3.8 7.9 8.5 7.9h33.1c4.7 0 8.5-3.5 8.5-7.9 0-4.3-3.8-7.8-8.5-7.8zM487.4 378.5c-24.7 0-42.7 19.5-42.7 46.4v.3c0 26.8 17.8 46.2 42.4 46.2 24.7 0 42.7-19.5 42.7-46.4v-.3c0-26.8-17.9-46.2-42.4-46.2zm23.3 46.4v.3c0 17.7-9.8 30.6-23.3 30.6-13.7 0-23.6-13-23.6-30.8v-.3c0-18 9.6-30.6 23.3-30.6 13.7 0 23.6 13 23.6 30.8zM366.1 399.5c-2.9-9.8-9.3-17.1-19.2-21.6-5.2-2.4-10.9-3.6-17.5-3.7h-11.299999999999999c-.3 0-.6 0-.9.1h-.2c-2 .2-3.6 1.8-3.6 3.9v50h-.6c-4.3-.3-9.7-1.2-11.7-2.3-6-3.3-9-8.2-9.4-14.8-.2-4 .9-7.8 3.4-11.3 2.4-3.4 5.4-6.2 9-8.5l.6-.4.2-.1c.1 0 .2-.1.2-.1 1.8-1.2 3-3 3.4-5.2.4-2.3-.2-4.7-1.7-6.7-1.8-2.3-4.5-3.7-7.3-3.7-1.1 0-2.2.2-3.2.6-.1 0-.3.1-.4.2l-.4.2c-.3.1-.6.3-.8.4-7 3.7-12.6 8.9-16.4 15.4-5.2 8.9-6.5 18.3-3.9 27.9 3.4 12.8 12.4 21.3 25.8 24.6 3.5.9 9.4 1.2 13.2 1.3v19.3c.3 4.3 4.3 7.5 9.5 7.5 5.3 0 9.5-3.5 9.5-8v-18.700000000000003c2.3 0 4.5-.2 6.7-.6 5.6-.9 10.4-2.7 14.4-5.6 5.4-3.8 9.3-8.8 11.7-15 3.1-8.2 3.5-16.6.9-25.1zm-16.9 12.7c-.3 3.1-1 5.8-2.4 8-2.7 4.4-6.6 6.9-12 7.7-.7.1-1.5.2-2.3.2v-35.5c2.9.2 5.4.8 7.6 1.8 3.5 1.7 6 4.3 7.6 8 1.3 3.1 1.8 6.3 1.5 9.8z"/></g></svg>