<svg xmlns="http://www.w3.org/2000/svg" width="627" height="411.3" viewBox="16 215.6 627 411.3" enable-background="new 16 215.6 627 411.3"><path fill="#0378EA" d="M16 215.8h627v411.5h-627zM332.4 385.3c-123.3 0-235 20.5-316.4 48.3v179.7h627v-181.7c-80.9-26.8-190.2-46.3-310.6-46.3z"/><path fill="#0293F1" d="M332.4 283.4c-123.3 0-235 20.5-316.4 48.3v179.7h627.1v-181.6c-80.9-26.8-190.3-46.4-310.7-46.4z"/><path fill="#89D32A" d="M643 627.3v-118.4c-65.8-31.1-181.6-57.9-313.5-57.9s-247.7 26.8-313.5 57.9v118.4h627z"/><ellipse fill="#FFDD28" cx="329.5" cy="541" rx="268.1" ry="74.2"/><ellipse fill="#FB9500" cx="329.5" cy="532.2" rx="198.9" ry="52.2"/><ellipse fill="#D81B60" cx="329.5" cy="528.2" rx="137.7" ry="36.2"/><g fill="#fff"><path d="M220.7 339.8h-75c-3.7 0-6.8 1.4-8.6 3.9-1.7 2.5-1.9 5.7-.3 8.8l35.8 73.4c1.7 3.4 4.4 5.3 7.6 5.3 1.8 0 5.1-.6 7.5-5l41.4-73.8c1.7-3.1 1.8-6.3.1-8.8-1.7-2.3-4.8-3.8-8.5-3.8zm-8.3 13.6c0 .2-.1.5-.4.9l-28.5 48.9-23.5-48.4c-.3-.7-.3-1.1-.3-1.2 0-.1.4-.3 1.3-.3h50.2c.7 0 1 0 1.2.1zM265.3 354.1h-9.7l2.9-2c8-5.7 11.8-9.2 11.8-16.5 0-8.1-6.5-13.6-16.3-13.6-6.4 0-11 1.9-15.1 6.3-.9 1-1.5 2.4-1.5 3.7 0 3.1 2.6 5.5 6 5.5 2.4 0 3.9-1.2 4.4-1.7 2.2-2.2 3.6-2.9 5.6-2.9 2.5 0 3.9 1.2 3.9 3.5 0 2.4-1.4 4.2-6.7 8.1l-12 9.1c-2 1.5-3.1 3.4-3.1 5.5 0 3.3 2.8 5.7 6.7 5.7h22.9c3.2 0 5.8-2.4 5.8-5.3.2-3-2.4-5.4-5.6-5.4zM360 339.9h-64.1c-4.8 0-8.7 3.6-8.7 8s3.9 8 8.7 8h22.6v66.6c0 4.7 4.2 8.6 9.4 8.6s9.4-3.8 9.4-8.6v-66.5h22.7c4.7 0 8.6-3.6 8.6-8 0-4.5-3.9-8.1-8.6-8.1zM414.6 388.9h-33.4c-4.7 0-8.6 3.6-8.6 7.9 0 4.4 3.9 7.9 8.6 7.9h33.4c4.7 0 8.6-3.6 8.6-7.9-.1-4.3-4-7.9-8.6-7.9zM414.6 361.1h-33.4c-4.7 0-8.6 3.6-8.6 7.9 0 4.4 3.9 7.9 8.6 7.9h33.4c4.7 0 8.6-3.6 8.6-7.9-.1-4.4-3.9-7.9-8.6-7.9zM480.6 338.3c-25 0-43.1 19.7-43.1 46.8v.3c0 27 18 46.6 42.8 46.6 25 0 43.1-19.7 43.1-46.8v-.3c0-27-18-46.6-42.8-46.6zm23.5 46.9v.3c0 17.9-9.9 30.9-23.5 30.9-13.8 0-23.8-13.1-23.8-31.1v-.3c0-18.2 9.7-30.9 23.5-30.9 13.8-.1 23.8 13 23.8 31.1z"/></g></svg>