<svg xmlns="http://www.w3.org/2000/svg" width="64" height="64" viewBox="0 0 64 64"><path d="M46.7 54h-4.9c-.6 0-1-.4-1-1s.4-1 1-1h4.9c.6 0 1 .4 1 1s-.5 1-1 1zm-10.8 0h-4.9c-.6 0-1-.4-1-1s.4-1 1-1h4.9c.6 0 1 .4 1 1s-.5 1-1 1zm-10.8 0h-4.9c-.6 0-1-.4-1-1s.4-1 1-1h4.9c.6 0 1 .4 1 1s-.4 1-1 1zm-10.8-.2h-.3c-1.8-.5-3.4-1.8-4.3-3.5-.3-.5-.1-1.1.4-1.3.5-.3 1.1-.1 1.3.4.6 1.2 1.7 2.1 3.1 2.5.5.2.8.7.7 1.2 0 .4-.4.7-.9.7zm37.8-1.4c-.3 0-.5-.1-.7-.3-.4-.4-.4-1 0-1.4 1-1 1.6-2.2 1.6-3.6 0-.6.4-1 1-1s1 .4 1 1v-.1c0 1.9-.8 3.8-2.2 5.1-.2.2-.4.3-.7.3zm-42.1-7.4c-.6 0-1-.4-1-1v-4.9c0-.6.4-1 1-1s1 .4 1 1v4.9c0 .5-.4 1-1 1zm44-2.9c-.6 0-1-.4-1-1v-4.9c0-.6.4-1 1-1s1 .4 1 1v4.9c0 .5-.4 1-1 1zm-44-7.9c-.6 0-1-.4-1-1v-4.9c0-.6.4-1 1-1s1 .4 1 1v4.9c0 .6-.4 1-1 1zm44-2.9c-.6 0-1-.4-1-1v-4.9c0-.6.4-1 1-1s1 .4 1 1v4.9c0 .5-.4 1-1 1zm-44-7.9c-.6 0-1-.4-1-1v-4.9c0-.6.4-1 1-1s1 .4 1 1v4.9c0 .6-.4 1-1 1zm44-2.9c-.6 0-1-.4-1-1v-2.5c0-.7-.1-1.3-.4-1.9-.2-.5 0-1.1.5-1.3.5-.2 1.1 0 1.3.5.4.9.6 1.8.6 2.7v2.5c0 .6-.4 1-1 1zm-41.8-7.2c-.3 0-.6-.1-.8-.4-.3-.4-.3-1.1.2-1.4 1.2-1 2.8-1.6 4.4-1.6h.8c.6 0 1 .4 1 1s-.4 1-1 1h-.8c-1.2 0-2.2.4-3.1 1.1-.2.3-.4.3-.7.3zm36.9-1.2h-.2c-.3-.1-.6-.1-.9-.1h-3.7c-.6 0-1-.4-1-1s.4-1 1-1h3.7c.5 0 .9 0 1.3.1.5.1.9.6.8 1.2-.1.5-.5.8-1 .8zm-10.7-.1h-4.9c-.6 0-1-.4-1-1s.4-1 1-1h4.9c.6 0 1 .4 1 1s-.5 1-1 1zm-10.8 0h-4.9c-.6 0-1-.4-1-1s.4-1 1-1h4.9c.6 0 1 .4 1 1s-.4 1-1 1z"/></svg>