<svg xmlns="http://www.w3.org/2000/svg" width="64" height="64" viewBox="0 0 64 64"><path d="M50.3 32.6l7.4-7.4c1.9-1.9 1.9-4.9 0-6.7l-11.9-11.9c-.9-.9-2.1-1.4-3.4-1.4s-2.4.5-3.3 1.4l-7.4 7.4-7.4-7.4c-.9-.9-2.1-1.4-3.4-1.4s-2.5.5-3.4 1.4l-11.8 11.9c-1.9 1.9-1.9 4.9 0 6.7l7.4 7.4-7.1 7.2c-.9.9-1.4 2.1-1.4 3.4 0 1.3.5 2.5 1.4 3.4l11.9 11.9c.9.9 2.1 1.4 3.4 1.4 1.3 0 2.5-.5 3.4-1.4l7.2-7.2 7.2 7.2c.9.9 2.1 1.4 3.4 1.4 1.3 0 2.5-.5 3.4-1.4l11.9-11.9c1.9-1.9 1.9-4.9 0-6.7l-7.5-7.3zm-9.8-24.6c.5-.5 1.2-.8 1.9-.8s1.4.3 1.9.8l11.9 11.9c1.1 1.1 1.1 2.8 0 3.9l-7.4 7.4-15.7-15.7 7.4-7.5zm7 24.6l-15.8 15.8-15.7-15.8 15.8-15.8 15.7 15.8zm-40.4-8.8c-1.1-1.1-1.1-2.8 0-3.9l11.9-11.9c.5-.5 1.2-.8 1.9-.8s1.4.3 1.9.8l7.4 7.4-15.7 15.8-7.4-7.4zm16 33.2c-1 1-2.9 1-3.9 0l-11.8-11.9c-.5-.5-.8-1.2-.8-1.9s.3-1.4.8-1.9l7.2-7.2 15.8 15.8-7.3 7.1zm32.9-11.9l-11.8 11.9c-1 1-2.9 1-3.9 0l-7.2-7.2 15.8-15.8 7.2 7.2c1 1.1 1 2.8-.1 3.9zM22.7 33.8c.2.2.5.3.7.3s.5-.1.7-.3l8.2-8.2c.4-.4.4-1 0-1.4s-1-.4-1.4 0l-8.2 8.2c-.4.3-.4 1 0 1.4zM26.2 37.3c.2.2.5.3.7.3s.5-.1.7-.3l8.2-8.2c.4-.4.4-1 0-1.4s-1-.4-1.4 0l-8.2 8.2c-.4.4-.4 1 0 1.4zM29.7 40.8c.2.2.5.3.7.3s.5-.1.7-.3l8.2-8.2c.4-.4.4-1 0-1.4s-1-.4-1.4 0l-8.2 8.2c-.4.4-.4 1 0 1.4z"/></svg>