<?xml version="1.0" encoding="UTF-8" standalone="no"?>
<svg
   xmlns:dc="http://purl.org/dc/elements/1.1/"
   xmlns:cc="http://creativecommons.org/ns#"
   xmlns:rdf="http://www.w3.org/1999/02/22-rdf-syntax-ns#"
   xmlns:svg="http://www.w3.org/2000/svg"
   xmlns="http://www.w3.org/2000/svg"
   xmlns:sodipodi="http://sodipodi.sourceforge.net/DTD/sodipodi-0.dtd"
   xmlns:inkscape="http://www.inkscape.org/namespaces/inkscape"
   width="64"
   height="64"
   viewBox="0 0 64 64"
   id="svg2"
   version="1.1"
   inkscape:version="0.91 r13725"
   sodipodi:docname="Z+.svg">
  <metadata
     id="metadata18">
    <rdf:RDF>
      <cc:Work
         rdf:about="">
        <dc:format>image/svg+xml</dc:format>
        <dc:type
           rdf:resource="http://purl.org/dc/dcmitype/StillImage" />
      </cc:Work>
    </rdf:RDF>
  </metadata>
  <defs
     id="defs16" />
  <sodipodi:namedview
     pagecolor="#ffffff"
     bordercolor="#666666"
     borderopacity="1"
     objecttolerance="10"
     gridtolerance="10"
     guidetolerance="10"
     inkscape:pageopacity="0"
     inkscape:pageshadow="2"
     inkscape:window-width="1920"
     inkscape:window-height="1051"
     id="namedview14"
     showgrid="false"
     inkscape:zoom="20.85965"
     inkscape:cx="36.932665"
     inkscape:cy="38.718696"
     inkscape:window-x="1920"
     inkscape:window-y="0"
     inkscape:window-maximized="1"
     inkscape:current-layer="svg2" />
  <path
     fill="none"
     d="M43 53.6l12.6-11.6h-12.6zM57 10.1l-3.2 2.6-10.8 9.1v18.2h14zM23 21.9v18.1h18v-18.2zM9.2 20h11.8v-9.5zM55.2 9h-32.2v11h19.1zM55.6 42h-12.6v11.6zM21 20v-9.5l-11.8 9.5zM41 40v-18h-18v18zM42.1 20l13.1-11h-32.2v11h19zM21.8 41.9c.1.1.2.1.2.1l-13.9 13h32.9v-13h-18.9c-.1 0-.2 0-.3-.1zM43 21.8v18.2h14v-29.900000000000002l-3.2 2.6zM20.6 22h-13.3l-.1 31.1 13.8-12.7v-18.4zM55.6 42h-12.6v11.6zM58 7.3zM21.5 41.8z"
     id="path4" />
  <path
     fill="#3DB1F3"
     d="M23 40v-18h-2v18.4s0 .9.3 1.2l.2.2c.1.1.2.1.3.1l.3.1h18.9v-2h-18z"
     id="path6" />
  <path
     d="M23 22h18v18h2v-18.2l10.8-9.1 3.2-2.6v-1.1h-1.8l-13.1 11h-19.1v1.9zM55.6 42l-12.6 11.6v-11.6h-2v13h-32.9l13.9-13s-.1 0-.2-.1l-.3-.1c-.3-.2-.5-.5-.5-.8v-.5l-13.8 12.6v-31.1h13.8v-2h-11.8l11.8-9.5v-2.6l.1-.3-15.6 12.6c-.2.2-.5.5-.5.8v35c0 .6.4 1 1 1h36c.3 0 .7-.1.9-.3l16-14.9c-.1.1-.3.2-.5.2h-2.8zM21.8 41.9l-.3-.1c.1.1.2.1.3.1z"
     id="path8" />
  <path
     fill="#3DB1F3"
     d="M58.1 7h-36c-.4 0-.7.2-.9.5-.1.1-.2.2-.2.4v12.1h2v-11h34.00000000000001v31h-14v2h15.3c.2 0 .4-.1.5-.2l.1-.2v-33.6c.1-.6-.3-1-.8-1zm-.1.3z"
     id="path10" />
  <path
     d="M21 22h2v-2h-2v1.9zM41 40h2v2h-2zM21 40.4v.6c0 .3.2.6.5.8-.1 0-.1-.1-.2-.2-.3-.3-.3-1.2-.3-1.2z"
     id="path12" />
  <path
     style="opacity:1;fill:#60b1f3;fill-opacity:1;fill-rule:nonzero;stroke:none;stroke-width:1.5;stroke-miterlimit:4;stroke-dasharray:none;stroke-opacity:1"
     d="m 22.99801,14.478867 0,-5.4650965 16.03232,0 c 13.967654,0 16.014239,0.017811 15.891925,0.138301 -0.07722,0.076066 -2.987997,2.5331325 -6.468401,5.4601485 l -6.328006,5.321847 -9.563919,0.0049 -9.563919,0.005 0,-5.465097 z"
     id="path4146"
     inkscape:connector-curvature="0" />
  <path
     style="opacity:1;fill:#60b1f3;fill-opacity:1;fill-rule:nonzero;stroke:none;stroke-width:1.5;stroke-miterlimit:4;stroke-dasharray:none;stroke-opacity:1"
     d="m 43.03962,30.898126 0.0029,-9.084524 5.72584,-4.8109 c 5.106356,-4.290402 7.806662,-6.528803 8.079406,-6.697368 0.05773,-0.03568 0.09135,5.41537 0.09135,14.810431 l 0,14.866886 -6.951219,0 -6.95122,0 0.0029,-9.084525 z"
     id="path4148"
     inkscape:connector-curvature="0" />
  <path
     style="opacity:1;fill:#60b1f3;fill-opacity:1;fill-rule:nonzero;stroke:none;stroke-width:1.5;stroke-miterlimit:4;stroke-dasharray:none;stroke-opacity:1"
     d="m 22.99801,31.017975 0,-8.964676 8.964676,0 8.964676,0 0,8.964676 0,8.964676 -8.964676,0 -8.964676,0 0,-8.964676 z"
     id="path4150"
     inkscape:connector-curvature="0" />
  <path
     style="opacity:1;fill:#60b1f3;fill-opacity:1;fill-rule:nonzero;stroke:none;stroke-width:1.5;stroke-miterlimit:4;stroke-dasharray:none;stroke-opacity:1"
     d="m 43.006568,41.001604 0,-0.991617 6.966102,0 c 4.632768,0 6.966101,-0.0057 6.966101,-0.01695 0,-0.01127 -2.327688,-0.01695 -6.949168,-0.01695 l -6.949168,0 0.0043,-9.0797 0.0043,-9.0797 0.610169,-0.513337 0.61017,-0.513337 6.325793,-1.83e-4 6.325793,-1.84e-4 0.0052,0.233051 0.0052,0.233051 0.0037,-0.233051 0.0037,-0.233051 0.974577,0 0.974576,0 0,10.407263 0,10.407263 -0.05115,0.101324 c -0.0576,0.114106 -0.135621,0.179823 -0.285381,0.240379 l -0.09567,0.03869 -7.724576,0.0043 -7.724576,0.0043 0,-0.991617 z"
     id="path4152"
     inkscape:connector-curvature="0" />
  <path
     style="opacity:1;fill:#60b1f3;fill-opacity:1;fill-rule:nonzero;stroke:none;stroke-width:1.5;stroke-miterlimit:4;stroke-dasharray:none;stroke-opacity:1"
     d="m 43.006305,40.787724 0,-0.779016 6.945227,-0.0059 6.945226,-0.0059 -6.927249,-0.01204 -6.92725,-0.01205 0.0042,-0.719091 c 0.0023,-0.395501 0.0055,-4.483537 0.0071,-9.084525 l 0.003,-8.365432 0.103708,-0.08389 c 0.492882,-0.398714 1.378099,-1.1584 1.373671,-1.178871 -0.003,-0.01408 0.0094,-0.03105 0.02776,-0.03771 0.02294,-0.0083 0.02712,-0.0021 0.01343,0.02005 -0.01093,0.01768 0.111468,-0.07843 0.271993,-0.213587 0.160523,-0.135155 0.28931,-0.257435 0.286192,-0.271733 -0.0031,-0.0143 0.0093,-0.03144 0.02763,-0.03809 0.0233,-0.0085 0.02717,-0.0022 0.01289,0.02092 -0.01123,0.01816 0.07877,-0.05112 0.199983,-0.153962 0.121216,-0.102842 0.217887,-0.198549 0.214824,-0.212683 -0.0031,-0.01413 0.0094,-0.03114 0.02773,-0.0378 0.02292,-0.0083 0.02732,-0.0018 0.01411,0.02097 -0.01055,0.01819 0.0095,0.007 0.04451,-0.02495 0.03503,-0.03191 0.05844,-0.06328 0.05201,-0.0697 -0.01595,-0.01595 0.03596,-0.07602 0.06568,-0.07602 0.01318,0 0.0092,0.01864 -0.0089,0.04142 -0.01809,0.02278 0.06745,-0.04316 0.190104,-0.146532 0.12265,-0.103372 0.217125,-0.193826 0.209943,-0.201008 -0.01698,-0.01698 0.03321,-0.07739 0.0643,-0.07739 0.01318,0 0.0095,0.01888 -0.0082,0.04195 -0.01769,0.02307 -0.0029,0.01584 0.03292,-0.01607 0.0358,-0.03191 0.05984,-0.06328 0.05342,-0.0697 -0.01595,-0.01595 0.03596,-0.07602 0.06568,-0.07602 0.01318,0 0.0092,0.01864 -0.0089,0.04142 -0.01809,0.02278 0.06745,-0.04316 0.190104,-0.146532 0.122651,-0.103372 0.217125,-0.193826 0.209943,-0.201008 -0.01698,-0.01698 0.03321,-0.07739 0.0643,-0.07739 0.01318,0 0.0095,0.01888 -0.0082,0.04195 -0.01769,0.02307 -0.0029,0.01584 0.03292,-0.01607 0.0358,-0.03191 0.05984,-0.06328 0.05342,-0.0697 -0.01595,-0.01594 0.03596,-0.07602 0.06568,-0.07602 0.01318,0 0.0092,0.01864 -0.0089,0.04142 -0.01809,0.02278 0.06745,-0.04316 0.190104,-0.146532 0.122651,-0.103373 0.217125,-0.193826 0.209943,-0.201008 -0.01698,-0.01698 0.03321,-0.07739 0.0643,-0.07739 0.01318,0 0.0095,0.01888 -0.0082,0.04195 -0.01769,0.02307 -0.0029,0.01584 0.03293,-0.01607 0.0358,-0.03191 0.05972,-0.0634 0.05315,-0.06996 -0.01591,-0.01591 0.06097,-0.09973 0.09147,-0.09973 0.01318,0 0.0034,0.02373 -0.02169,0.05273 -0.02511,0.029 0.121527,-0.08783 0.325869,-0.259622 1.573612,-1.322954 4.544225,-3.808678 5.951456,-4.980007 0.932787,-0.776419 1.690314,-1.417332 1.683394,-1.424253 -0.01637,-0.01637 0.05964,-0.100367 0.09083,-0.100367 0.01318,0 0.0035,0.02427 -0.02152,0.05393 l -0.04549,0.05393 0.05975,-0.04984 c 0.635312,-0.529945 1.173845,-0.948038 1.200173,-0.931766 0.01216,0.0075 0.02211,0.0022 0.02211,-0.01172 0,-0.03885 -0.03497,-0.0305 -0.105894,0.02529 -0.03543,0.02787 -0.06997,0.04512 -0.07675,0.03834 -0.0068,-0.0068 0.05581,-0.06746 0.139089,-0.134847 l 0.151417,-0.122518 0.006,5.315549 c 0.004,3.535627 -0.002,5.31823 -0.01798,5.323557 -0.01321,0.0044 -0.02221,0.05295 -0.01999,0.107881 l 0.004,0.09987 0.0094,-0.08989 c 0.0052,-0.04944 0.01954,-0.08989 0.03193,-0.08989 0.01399,0 0.02252,-2.238548 0.02252,-5.908536 l 0,-5.9085365 -15.748107,0 -15.748107,0 0,-0.5992431 0,-0.599243 16.694911,0 16.694911,0 0,16.8866686 0,16.886669 -7.945962,0 -7.945963,0 0,-0.779016 z m 13.918313,-23.05288 c -0.0066,-0.01648 -0.01209,-0.003 -0.01209,0.02996 0,0.03296 0.0054,0.04644 0.01209,0.02996 0.0067,-0.01648 0.0067,-0.04344 0,-0.05992 z m 0.0021,-3.333488 c -0.0037,-0.358313 -0.0068,-0.05823 -0.0068,0.666857 2e-6,0.725084 0.0031,1.018249 0.0068,0.651478 0.0037,-0.366771 0.0037,-0.960022 -7e-6,-1.318335 z m -0.02398,-2.585498 c -0.0039,-0.228257 -0.0072,-0.04828 -0.0072,0.399958 -1e-5,0.448234 0.0032,0.634989 0.0072,0.415012 0.004,-0.219977 0.004,-0.586714 1.7e-5,-0.81497 z m -0.02414,-1.212006 c -0.0046,-0.08899 -0.0084,-0.01618 -0.0084,0.161796 0,0.177975 0.0038,0.250783 0.0084,0.161795 0.0046,-0.08899 0.0046,-0.234603 0,-0.323591 z"
     id="path4154"
     inkscape:connector-curvature="0" />
  <rect
     style="opacity:1;fill:#60b1f3;fill-opacity:1;fill-rule:nonzero;stroke:none;stroke-width:1.5;stroke-miterlimit:4;stroke-dasharray:none;stroke-opacity:1"
     id="rect4156"
     width="0.4554247"
     height="11.074011"
     x="56.832211"
     y="10.283854" />
  <rect
     style="opacity:1;fill:#60b1f3;fill-opacity:1;fill-rule:nonzero;stroke:none;stroke-width:1.5;stroke-miterlimit:4;stroke-dasharray:none;stroke-opacity:1"
     id="rect4158"
     width="32.502941"
     height="0.57527333"
     x="22.771235"
     y="8.5340643" />
</svg>
