<svg xmlns="http://www.w3.org/2000/svg" width="64" height="64" viewBox="0 0 64 64"><g fill="none"><path d="M21.9 42l-13.9 13h33v-13h-19.1zM23 22h18v18h-18zM43 53.7l12.6-11.7h-12.6zM43 21.8v18.2h14v-30zM21 22h-14v31.2l14-13.1zM42 20l13-11h-32v11zM8.9 20h12.1v-9.8z"/></g><path fill="#3DB1F3" d="M58.9 7.6c0-.1-.1-.2-.2-.3-.1-.1-.2-.2-.3-.2-.1-.1-.2-.1-.4-.1h-.30000000000000004c-.2 0-.5.1-.6.2l-2.1 1.8-13 11-.6.5c-.2.2-.4.5-.4.8v34.7c0 .4.2.9.6 1h.1c.4.1.8-.1 1-.2l16-14.9c.2-.2.3-.5.3-.7v-33.2c0-.1 0-.3-.1-.4zm-3.3 34.4l-12.6 11.7v-31.9l14-11.8v30.6l-1.4 1.4z"/><path d="M57 40h-14v2h12.6l1.4-1.3v-3.2zM22 7c-.1 0-.2 0-.3.1-.1 0-.1 0-.2.1 0 0-.1 0-.1.1l-16 13c-.1.1-.1.2-.2.2 0 0 0 .1-.1.1-.1.1-.1.3-.1.4v35c0 .6.4 1 1 1h35.7-.1c-.4-.2-.6-.6-.6-1v-1h-33l13.8-13h19.1v-2h-17.9v-18h18v-.6c0-.3.2-.7.4-.8l.6-.6h-19v-11h32l2.1-1.8c.1-.1.4-.2.6-.2h-35.7zm-1 33.1l-14 13.1v-31.2h14v18.1zm-12.1-20.1l12.1-9.8v9.8h-12.1z"/></svg>