<svg xmlns="http://www.w3.org/2000/svg" width="64" height="64" viewBox="0 0 64 64"><path fill="none" d="M21 22h-14v31.2l14-13.1zM43 40h14v-29.9l-14 11.7zM21.9 42l-13.9 13h33v-13h-19.1zM43 53.7l12.6-11.7h-12.6zM42 20h.1l12.9-11h-32v11zM23 22h18v18h-18zM9 20h12v-9.7z"/><path fill="#3DB1F3" d="M22.4 7.1c-.1-.1-.2-.1-.3-.1h-.1c-.1 0-.2 0-.3.1 0 0-.1 0-.1.1 0 0-.1 0-.1.1l-16 13c-.1.1-.2.2-.2.3v.1c-.3 0-.3.2-.3.3v34.5c0 1.3.5 1.5.9 1.5l2.1-2 13.8-13 .8-.8c.2-.2.3-.5.3-.7v-18.5h-2v18.1l-13.9 13.1v-31.599999999999998l2-1.6 12-9.7v9.7h2v-12c0-.4-.2-.7-.6-.9z"/><path d="M8 55l-2.1 2h36.1c.2 0 .5-.1.6-.3h.1l.1-.1 15.9-14.8c.2-.2.3-.5.3-.7v-33.1c0-.1 0-.2-.1-.4v-.1c0-.1-.1-.2-.2-.3l-.3-.2h-36.400000000000006.2c.1 0 .2 0 .3.1.3.2.5.5.5.9v1h32l-13 11h-33l-2 1.6v.4h34v18h-18v.5c0 .3-.1.5-.3.7l-.8.8h19.1v13h-33zm35-33.2l14-11.7v29.9h-14v-18.2zm12.6 20.2l-12.6 11.7v-11.7h12.6zM5 21c0-.1 0-.3.1-.4-.1.1-.1.3-.1.4z"/></svg>