<svg xmlns="http://www.w3.org/2000/svg" width="64" height="64" viewBox="0 0 64 64"><g fill="none"><path d="M9.1 20h11.9v-9.6zM23 22h18v18h-18zM43 53.7l12.6-11.7h-12.6zM22 42l-13.9 13h32.9v-13h-19zM21 22h-14v31.2l14-13.1zM43 21.9v18.1h14v-29.9l-13.7 11.7-.3.1zM42 20h.1l13-11h-32.1v11z"/></g><path fill="#3DB1F3" d="M59 8zM59 7.6l-.2-.3s-.1-.1-.2-.1h-.1c-.4-.3-.9-.2-1.3-.2h-34.8c-.8 0-1 .1-1.3.5l-15.7 12.7c-.1.1-.2.2-.3.4-.1.1-.1.3-.1.4v.4c.2.4.9.6 1.3.6h36.300000000000004c.1 0 .2 0 .4-.1.1 0 .2-.1.3-.2l13.7-11.6 1.6-1.3c.2-.2.4-.5.4-.8 0-.5-.5-1-1-1h-.4.2.2c.5 0 1 .4 1 1v-.4zm-16.9 12.4h-33l11.9-9.6 1.8-1.4h32.300000000000004l-13 11zm15.2-12.8l-2.2 1.8 2.2-1.8z"/><path d="M57.2 7h-.8.8zM23 9h-.2l-1.8 1.4v9.6h2zM58.5 7.1zM57 10.1v29.9h-14v-18.1c-.1 0-.2.1-.4.1h-1.6v18h-18v-18h-2v18.1l-14 13.1v-31.2h-.7c-.4 0-1.1-.2-1.2-.6v-.2 34.3.5c0 .6.4 1 1 1h35.8c.4.1.8-.1 1-.2l16-14.9c.2-.2.2-.5.2-.7v-33.2c0 .3-.2.6-.4.8l-1.7 1.3zm-35 31.9h19v13h-32.9l13.9-13zm21 11.7v-11.7h12.6l-12.6 11.7z"/></svg>