<?xml version="1.0" encoding="UTF-8" standalone="no"?>
<svg
   xmlns:dc="http://purl.org/dc/elements/1.1/"
   xmlns:cc="http://creativecommons.org/ns#"
   xmlns:rdf="http://www.w3.org/1999/02/22-rdf-syntax-ns#"
   xmlns:svg="http://www.w3.org/2000/svg"
   xmlns="http://www.w3.org/2000/svg"
   xmlns:sodipodi="http://sodipodi.sourceforge.net/DTD/sodipodi-0.dtd"
   xmlns:inkscape="http://www.inkscape.org/namespaces/inkscape"
   width="64"
   height="64"
   viewBox="0 0 64 64"
   id="svg2"
   version="1.1"
   inkscape:version="0.91 r13725"
   sodipodi:docname="X-.svg">
  <metadata
     id="metadata14">
    <rdf:RDF>
      <cc:Work
         rdf:about="">
        <dc:format>image/svg+xml</dc:format>
        <dc:type
           rdf:resource="http://purl.org/dc/dcmitype/StillImage" />
      </cc:Work>
    </rdf:RDF>
  </metadata>
  <defs
     id="defs12" />
  <sodipodi:namedview
     pagecolor="#ffffff"
     bordercolor="#666666"
     borderopacity="1"
     objecttolerance="10"
     gridtolerance="10"
     guidetolerance="10"
     inkscape:pageopacity="0"
     inkscape:pageshadow="2"
     inkscape:window-width="1920"
     inkscape:window-height="1051"
     id="namedview10"
     showgrid="false"
     inkscape:zoom="3.6875"
     inkscape:cx="32"
     inkscape:cy="32"
     inkscape:window-x="1920"
     inkscape:window-y="0"
     inkscape:window-maximized="1"
     inkscape:current-layer="svg2" />
  <path
     fill="none"
     d="M21 22h-14v31.2l14-13.1zM43 40h14v-29.9l-14 11.7zM21.9 42l-13.9 13h33v-13h-19.1zM43 53.7l12.6-11.7h-12.6zM42 20h.1l12.9-11h-32v11zM23 22h18v18h-18zM9 20h12v-9.7z"
     id="path4" />
  <path
     fill="#3DB1F3"
     d="M22.4 7.1c-.1-.1-.2-.1-.3-.1h-.1c-.1 0-.2 0-.3.1 0 0-.1 0-.1.1 0 0-.1 0-.1.1l-16 13c-.1.1-.2.2-.2.3v.1c-.3 0-.3.2-.3.3v34.5c0 1.3.5 1.5.9 1.5l2.1-2 13.8-13 .8-.8c.2-.2.3-.5.3-.7v-18.5h-2v18.1l-13.9 13.1v-31.599999999999998l2-1.6 12-9.7v9.7h2v-12c0-.4-.2-.7-.6-.9z"
     id="path6" />
  <path
     d="M8 55l-2.1 2h36.1c.2 0 .5-.1.6-.3h.1l.1-.1 15.9-14.8c.2-.2.3-.5.3-.7v-33.1c0-.1 0-.2-.1-.4v-.1c0-.1-.1-.2-.2-.3l-.3-.2h-36.400000000000006.2c.1 0 .2 0 .3.1.3.2.5.5.5.9v1h32l-13 11h-33l-2 1.6v.4h34v18h-18v.5c0 .3-.1.5-.3.7l-.8.8h19.1v13h-33zm35-33.2l14-11.7v29.9h-14v-18.2zm12.6 20.2l-12.6 11.7v-11.7h12.6zM5 21c0-.1 0-.3.1-.4-.1.1-.1.3-.1.4z"
     id="path8" />
  <path
     style="opacity:1;fill:#60b1f3;fill-opacity:1;fill-rule:nonzero;stroke:none;stroke-width:1.5;stroke-miterlimit:4;stroke-dasharray:none;stroke-opacity:1"
     d="m 7.1050847,37.539401 0,-15.519062 6.7796613,0 6.779661,0 0,9.053179 0,9.053179 -4.677966,4.42257 c -2.572882,2.432414 -5.623729,5.34206 -6.7796613,6.465881 l -2.101695,2.043314 0,-15.519061 z"
     id="path4142"
     inkscape:connector-curvature="0" />
  <path
     style="opacity:1;fill:#60b1f3;fill-opacity:1;fill-rule:nonzero;stroke:none;stroke-width:1.5;stroke-miterlimit:4;stroke-dasharray:none;stroke-opacity:1"
     d="M 9.8266344,19.485417 C 10.450618,18.91119 20.218247,11.041015 20.59661,10.807611 c 0.266111,-0.164159 0.338983,0.785388 0.338983,4.417062 l 0,4.626174 -5.753026,0 c -4.840147,0 -5.6900168,-0.05799 -5.3559326,-0.36543 z"
     id="path4144"
     inkscape:connector-curvature="0" />
</svg>
