<svg xmlns="http://www.w3.org/2000/svg" width="64" height="64" viewBox="0 0 64 64"><g fill="none"><path d="M43 21.9v18h14v-29.7l-13.7 11.6-.3.1zM41 22h-18v18h18zM42 20h.1l13.1-11h-32.2v11zM21 40.1v-18.1h-14v31.2l14-13.1zM9.2 20h11.8v-9.5z"/></g><path fill="#3DB1F3" d="M59 40.6c-.2-.4-.7-.6-1.1-.6h-14.9v2h12.6l-6.6 6.1-6 5.6-1.4 1.3h-33.50000000000001l13.9-13h19v-2h-19.3c-.2 0-.5 0-.7.1h-.1l-13.9 13.1-1.8 1.7c-.1.1-.2.2-.2.4-.2.6 0 1.2.3 1.5.1.1.2.1.2.2h36.7c.3 0 .6-.1.8-.3l15.8-14.8c.3-.3.3-.8.2-1.3z"/><path d="M5.9 57h6.199999999999999-6-.2zM57 10.2v29.8h.1l-.1-29.9zM7 53.2v-31.2h14v18c.2-.1.5-.1.7-.1h1.3v-17.9h18v33h.6l1.4-1.3v-31.7c.1 0 .2-.1.3-.2l13.7-11.6v-.2l.1 30h.8c.4 0 .9.2 1.1.6v.1-32.7-.3h-.1c-.1-.2-.2-.3-.3-.4l-.1-.1s-.1 0-.1-.1c-.1-.1-.3-.1-.4-.1h-35.800000000000004c-.2 0-.4.1-.5.2h-.1l-16.1 13c-.2.1-.3.3-.4.6v34.5c0-.1.1-.3.2-.4l1.7-1.7zm2.2-33.2l11.8-9.5v9.5h-11.8zm32.9 0h-19.1v-11h32.2l-13.1 11z"/></svg>