<?xml version="1.0" encoding="UTF-8" standalone="no"?>
<svg
   xmlns:dc="http://purl.org/dc/elements/1.1/"
   xmlns:cc="http://creativecommons.org/ns#"
   xmlns:rdf="http://www.w3.org/1999/02/22-rdf-syntax-ns#"
   xmlns:svg="http://www.w3.org/2000/svg"
   xmlns="http://www.w3.org/2000/svg"
   xmlns:sodipodi="http://sodipodi.sourceforge.net/DTD/sodipodi-0.dtd"
   xmlns:inkscape="http://www.inkscape.org/namespaces/inkscape"
   width="64"
   height="64"
   viewBox="0 0 64 64"
   id="svg2"
   version="1.1"
   inkscape:version="0.91 r13725"
   sodipodi:docname="X+.svg">
  <metadata
     id="metadata16">
    <rdf:RDF>
      <cc:Work
         rdf:about="">
        <dc:format>image/svg+xml</dc:format>
        <dc:type
           rdf:resource="http://purl.org/dc/dcmitype/StillImage" />
      </cc:Work>
    </rdf:RDF>
  </metadata>
  <defs
     id="defs14" />
  <sodipodi:namedview
     pagecolor="#ffffff"
     bordercolor="#666666"
     borderopacity="1"
     objecttolerance="10"
     gridtolerance="10"
     guidetolerance="10"
     inkscape:pageopacity="0"
     inkscape:pageshadow="2"
     inkscape:window-width="1920"
     inkscape:window-height="1051"
     id="namedview12"
     showgrid="false"
     inkscape:zoom="41.7193"
     inkscape:cx="50.183144"
     inkscape:cy="18.081878"
     inkscape:window-x="1920"
     inkscape:window-y="0"
     inkscape:window-maximized="1"
     inkscape:current-layer="svg2" />
  <g
     fill="none"
     id="g4">
    <path
       d="M21.9 42l-13.9 13h33v-13h-19.1zM23 22h18v18h-18zM43 53.7l12.6-11.7h-12.6zM43 21.8v18.2h14v-30zM21 22h-14v31.2l14-13.1zM42 20l13-11h-32v11zM8.9 20h12.1v-9.8z"
       id="path6" />
  </g>
  <path
     fill="#3DB1F3"
     d="M58.9 7.6c0-.1-.1-.2-.2-.3-.1-.1-.2-.2-.3-.2-.1-.1-.2-.1-.4-.1h-.30000000000000004c-.2 0-.5.1-.6.2l-2.1 1.8-13 11-.6.5c-.2.2-.4.5-.4.8v34.7c0 .4.2.9.6 1h.1c.4.1.8-.1 1-.2l16-14.9c.2-.2.3-.5.3-.7v-33.2c0-.1 0-.3-.1-.4zm-3.3 34.4l-12.6 11.7v-31.9l14-11.8v30.6l-1.4 1.4z"
     id="path8" />
  <path
     d="M57 40h-14v2h12.6l1.4-1.3v-3.2zM22 7c-.1 0-.2 0-.3.1-.1 0-.1 0-.2.1 0 0-.1 0-.1.1l-16 13c-.1.1-.1.2-.2.2 0 0 0 .1-.1.1-.1.1-.1.3-.1.4v35c0 .6.4 1 1 1h35.7-.1c-.4-.2-.6-.6-.6-1v-1h-33l13.8-13h19.1v-2h-17.9v-18h18v-.6c0-.3.2-.7.4-.8l.6-.6h-19v-11h32l2.1-1.8c.1-.1.4-.2.6-.2h-35.7zm-1 33.1l-14 13.1v-31.2h14v18.1zm-12.1-20.1l12.1-9.8v9.8h-12.1z"
     id="path10" />
  <path
     style="opacity:1;fill:#60b1f3;fill-opacity:1;fill-rule:nonzero;stroke:none;stroke-width:1.5;stroke-miterlimit:4;stroke-dasharray:none;stroke-opacity:1"
     d="m 43.172881,30.859298 0,-9.059346 6.781415,-5.720315 c 3.729777,-3.146173 6.841642,-5.720315 6.915254,-5.720315 0.07361,0 0.13384,6.650847 0.13384,14.779661 l 0,14.779661 -6.915254,0 -6.915255,0 0,-9.059346 z"
     id="path4144"
     inkscape:connector-curvature="0" />
  <path
     style="opacity:1;fill:#60b1f3;fill-opacity:1;fill-rule:nonzero;stroke:none;stroke-width:1.5;stroke-miterlimit:4;stroke-dasharray:none;stroke-opacity:1"
     d="m 43.172881,47.689488 0,-5.601352 5.966102,0 c 3.281356,0 5.966102,0.04736 5.966102,0.105235 0,0.09911 -10.033484,9.469425 -11.329707,10.580863 l -0.602497,0.516607 0,-5.601353 z"
     id="path4146"
     inkscape:connector-curvature="0" />
  <path
     style="opacity:1;fill:#60b1f3;fill-opacity:1;fill-rule:nonzero;stroke:none;stroke-width:1.5;stroke-miterlimit:4;stroke-dasharray:none;stroke-opacity:1"
     d="m 43.172881,41.00339 0,-0.813559 6.915255,0 c 4.092514,0 6.915254,0.103157 6.915254,0.25272 0,0.138996 -0.354432,0.505098 -0.787626,0.813559 -0.740397,0.527209 -1.155062,0.560839 -6.915254,0.560839 l -6.127629,0 0,-0.813559 z"
     id="path4148"
     inkscape:connector-curvature="0" />
  <path
     style="opacity:1;fill:#60b1f3;fill-opacity:1;fill-rule:nonzero;stroke:none;stroke-width:1.5;stroke-miterlimit:4;stroke-dasharray:none;stroke-opacity:1"
     d="M 41.284118,56.478845 C 41.098999,56.132949 41.00339,50.047444 41.00339,38.610584 c 0,-16.124038 0.03337,-17.383038 0.474576,-17.902839 1.000275,-1.17847 15.95451,-13.6013949 16.373574,-13.6020112 1.04264,-0.00153 1.05633,0.2438698 0.984425,17.6463412 l -0.06986,16.90847 -8.199354,7.671422 c -4.509644,4.219282 -8.379927,7.671423 -8.600628,7.671423 -0.220701,0 -0.527602,-0.236046 -0.682002,-0.524545 z m 9.44762,-9.78054 6.269231,-5.830508 0.0012,-15.389831 c 6.66e-4,-8.464407 -0.06023,-15.38983 -0.135316,-15.38983 -0.07509,0 -3.217462,2.601936 -6.983051,5.78208 l -6.846524,5.782081 -0.06996,16.069772 -0.06996,16.069774 0.782566,-0.631515 c 0.430411,-0.347333 3.603719,-3.255243 7.051796,-6.462023 z"
     id="path4150"
     inkscape:connector-curvature="0" />
  <path
     style="opacity:1;fill:#60b1f3;fill-opacity:1;fill-rule:nonzero;stroke:none;stroke-width:1.5;stroke-miterlimit:4;stroke-dasharray:none;stroke-opacity:1"
     d="m 41.267864,56.307769 c -0.340394,-0.895305 -0.357779,-34.277898 -0.01832,-35.170754 0.135387,-0.356095 3.27776,-3.202173 6.983051,-6.324619 8.307802,-7.0009774 9.285616,-7.7504078 9.982153,-7.6506679 0.546872,0.078309 0.551924,0.2188187 0.622064,17.2992889 l 0.07071,17.220339 -3.053766,2.825277 c -1.679571,1.553904 -5.399251,5.001362 -8.265956,7.661017 -2.866705,2.659658 -5.401929,4.83574 -5.633831,4.83574 -0.231902,0 -0.540653,-0.313028 -0.686114,-0.695621 z m 9.091458,-9.363153 c 2.684746,-2.486718 5.277966,-4.851637 5.762712,-5.255374 0.484746,-0.403737 0.881356,-0.967287 0.881356,-1.252331 0,-0.496683 -0.28801,-0.518267 -6.915254,-0.518267 l -6.915255,0 0.0039,-9.016949 0.0039,-9.016949 6.707999,-5.625066 6.707999,-5.625066 0.15366,2.099642 0.15366,2.099642 0.04973,-2.388258 c 0.04717,-2.265433 0.02426,-2.370035 -0.445446,-2.033899 -0.272347,0.194898 -3.445229,2.840004 -7.050848,5.878012 l -6.555671,5.523651 0,16.002412 0,16.002413 1.288136,-1.176152 c 0.708474,-0.646885 3.484745,-3.210741 6.169491,-5.697461 z"
     id="path4152"
     inkscape:connector-curvature="0" />
  <path
     style="opacity:1;fill:#60b1f3;fill-opacity:1;fill-rule:nonzero;stroke:none;stroke-width:1.5;stroke-miterlimit:4;stroke-dasharray:none;stroke-opacity:1"
     d="m 41.284118,56.478845 c -0.356305,-0.66576 -0.389311,-34.40879 -0.03457,-35.34183 0.135387,-0.356095 3.27776,-3.207923 6.983051,-6.337397 8.202415,-6.9277249 9.264193,-7.740574 9.977701,-7.6384733 0.55269,0.079088 0.556228,0.1759486 0.631881,17.2998723 l 0.07608,17.220339 -4.550655,4.229513 c -9.887863,9.190067 -12.01473,11.092521 -12.400996,11.092521 -0.22097,0 -0.528091,-0.236046 -0.682491,-0.524545 z M 49.138983,48.0344 c 2.162712,-2.005231 4.816949,-4.432404 5.898305,-5.393717 3.116328,-2.770381 3.204221,-2.722039 -4.949152,-2.722039 l -6.915255,0 0,-9.030659 0,-9.03066 1.830509,-1.520272 c 1.006779,-0.83615 4.027118,-3.3616 6.711864,-5.612111 l 4.881356,-4.091839 0.162659,1.151245 0.16266,1.151245 0.04073,-1.288135 c 0.0224,-0.708475 -0.05994,-1.288136 -0.182988,-1.288136 -0.123045,0 -3.295926,2.5834 -7.050847,5.740888 l -6.827129,5.740888 0,16.01049 0,16.010492 1.152542,-1.090902 c 0.633899,-0.599994 2.922034,-2.731544 5.084746,-4.736778 z"
     id="path4154"
     inkscape:connector-curvature="0" />
  <path
     style="opacity:1;fill:#60b1f3;fill-opacity:1;fill-rule:nonzero;stroke:none;stroke-width:1.5;stroke-miterlimit:4;stroke-dasharray:none;stroke-opacity:1"
     d="M 41.521947,56.775222 C 41.212158,56.472662 41.217784,56.500145 41.151476,54.965508 41.05099,52.639846 41.0092,47.35052 41.0102,37.084096 c 0.001,-10.396943 0.03167,-13.62854 0.143817,-15.156885 0.04916,-0.669931 0.06668,-0.759011 0.197812,-1.005654 0.187201,-0.352095 0.545896,-0.682723 3.623486,-3.339948 0.955793,-0.825242 1.737805,-1.52206 1.737805,-1.548484 0,-0.02642 0.01961,-0.03592 0.04357,-0.02111 0.02396,0.01481 0.102941,-0.04324 0.175506,-0.129005 0.07257,-0.08576 0.148538,-0.151037 0.16883,-0.145056 0.02029,0.006 0.08992,-0.05215 0.154738,-0.129175 0.06481,-0.07703 0.128346,-0.12955 0.141181,-0.116715 0.01283,0.01284 0.08342,-0.04769 0.156868,-0.134491 0.07344,-0.08681 0.150134,-0.152934 0.170425,-0.146953 0.02029,0.006 0.0958,-0.05874 0.167788,-0.143818 0.07199,-0.08508 0.148477,-0.149473 0.169965,-0.143093 0.02149,0.0064 0.08616,-0.0521 0.143724,-0.129951 0.05756,-0.07785 0.120829,-0.131555 0.1406,-0.119336 0.01977,0.01222 0.08945,-0.04136 0.154832,-0.119073 0.06539,-0.07771 0.129388,-0.130787 0.142223,-0.117952 0.01284,0.01284 0.08343,-0.04769 0.156869,-0.134492 0.07344,-0.08681 0.150134,-0.152934 0.170425,-0.146952 0.02029,0.006 0.08992,-0.05215 0.154738,-0.129176 0.06481,-0.07703 0.128346,-0.129549 0.141181,-0.116714 0.01284,0.01284 0.08343,-0.04769 0.156868,-0.134492 0.07344,-0.08681 0.150134,-0.152934 0.170426,-0.146952 0.02029,0.006 0.08992,-0.05215 0.154738,-0.129175 0.06481,-0.07703 0.128346,-0.12955 0.141181,-0.116715 0.01284,0.01284 0.07755,-0.0411 0.143818,-0.119849 0.06627,-0.07875 0.129395,-0.134272 0.140288,-0.123379 0.01089,0.01089 0.153515,-0.104309 0.316938,-0.256004 0.163423,-0.151696 0.297132,-0.269471 0.297132,-0.261722 0,0.0077 0.717613,-0.585148 1.594694,-1.317549 2.713182,-2.2656235 3.970003,-3.2535305 4.922255,-3.8690719 0.486884,-0.3147252 0.507572,-0.3229748 0.757894,-0.3022161 0.337379,0.027978 0.426668,0.1223608 0.512839,0.5420981 0.246716,1.201746 0.264119,2.2156434 0.291009,16.9536799 0.01354,7.419194 0.03457,13.541142 0.04674,13.604329 0.03406,0.176856 0.03304,3.233868 -0.0011,3.369989 -0.01975,0.07869 -1.903392,1.860664 -5.455491,5.161036 -2.983929,2.772466 -5.583447,5.185698 -5.776706,5.362735 -0.193259,0.177038 -0.483053,0.451324 -0.643987,0.609524 -0.160935,0.1582 -0.307734,0.283073 -0.326221,0.277497 -0.01849,-0.0056 -0.154754,0.116865 -0.302816,0.272093 -0.148063,0.155228 -0.269204,0.2712 -0.269204,0.257716 0,-0.01348 -0.328985,0.275469 -0.731077,0.642117 -1.548579,1.412077 -2.802873,2.474439 -3.258195,2.759636 -0.220408,0.138056 -0.345948,0.103966 -0.626627,-0.170161 l -2e-6,0 z m 5.814386,-7.081891 c 2.333452,-2.165424 4.391415,-4.070852 4.573251,-4.234287 0.181836,-0.163433 0.442442,-0.410409 0.579123,-0.548834 0.136681,-0.138426 0.270793,-0.251682 0.298026,-0.251682 0.02723,0 0.154938,-0.113082 0.283788,-0.251292 0.12885,-0.138211 0.246099,-0.251468 0.260555,-0.251682 0.01446,-1.92e-4 0.381192,-0.323191 0.81497,-0.717724 0.433779,-0.394534 0.993629,-0.900265 1.244113,-1.123848 1.041763,-0.929882 1.582002,-1.514411 1.582002,-1.711698 0,-0.06658 -0.03585,-0.0449 -0.145255,0.08783 -0.261256,0.316949 -0.882166,0.745471 -1.234879,0.852254 -0.643117,0.194702 -0.82597,0.200831 -6.685678,0.22409 l -5.692809,0.0226 0,-0.801052 0,-0.801052 5.6209,0.02816 c 5.22353,0.02617 7.194237,0.06967 7.850084,0.17328 0.145017,0.02291 0.273255,0.03248 0.284973,0.02126 0.06535,-0.06255 -0.214463,-0.219897 -0.538367,-0.302738 -0.612891,-0.156751 -2.101616,-0.193362 -7.884327,-0.193892 l -5.381202,-4.93e-4 7.34e-4,-9.0246 c 4.03e-4,-4.96353 0.01658,-9.047158 0.03596,-9.074728 0.111866,-0.159214 12.929014,-10.901153 13.506403,-11.319598 0.07889,-0.05718 0.127864,-0.119537 0.108821,-0.138579 -0.09369,-0.09369 -1.909376,1.397025 -9.777397,8.027479 l -4.004365,3.374515 -0.03091,6.812617 c -0.017,3.746939 -0.04489,10.940866 -0.06199,15.986504 -0.03049,8.999014 -0.02935,9.172938 0.05988,9.124109 0.05003,-0.02738 2.000149,-1.821488 4.333602,-3.986911 z M 56.911312,10.75191 c -0.01005,-0.111263 -0.01816,-0.0081 -0.01801,0.229159 1.44e-4,0.2373 0.0084,0.328333 0.01828,0.202296 0.0099,-0.126037 0.0098,-0.320192 -2.88e-4,-0.431455 l 2.2e-5,0 z"
     id="path4156"
     inkscape:connector-curvature="0" />
  <path
     style="opacity:1;fill:#60b1f3;fill-opacity:1;fill-rule:nonzero;stroke:none;stroke-width:1.5;stroke-miterlimit:4;stroke-dasharray:none;stroke-opacity:1"
     d="M 41.541704,56.807509 C 41.377938,56.660268 41.281669,56.52864 41.248993,56.407291 41.071875,55.749524 41.009854,50.78936 41.009777,37.275853 c -7.9e-5,-13.960921 0.03429,-15.735866 0.316283,-16.331941 0.145099,-0.306714 0.493725,-0.640732 2.402829,-2.302146 0.771226,-0.671166 1.402229,-1.241469 1.402229,-1.267341 0,-0.02587 0.0194,-0.03505 0.04311,-0.02039 0.02371,0.01465 0.10797,-0.04723 0.187242,-0.137515 0.07927,-0.09029 0.154844,-0.153446 0.167935,-0.140355 0.01309,0.01309 0.08524,-0.05319 0.160319,-0.147291 0.07508,-0.0941 0.161916,-0.171095 0.192961,-0.171096 0.03104,-1e-6 0.09715,-0.05175 0.146895,-0.11499 0.04975,-0.06324 1.02748,-0.904151 2.172739,-1.868681 1.145259,-0.964531 2.195839,-1.856144 2.334621,-1.981363 0.138783,-0.125219 0.30543,-0.255491 0.370326,-0.289493 0.0649,-0.034 0.140867,-0.104564 0.168824,-0.156802 0.02796,-0.05224 0.08194,-0.09498 0.119949,-0.09498 0.03802,0 0.104455,-0.05393 0.147646,-0.119848 0.04319,-0.06592 0.107759,-0.119849 0.143488,-0.119849 0.03573,0 0.112182,-0.06387 0.169898,-0.141936 0.05772,-0.07806 0.12199,-0.131397 0.142833,-0.118515 0.02084,0.01288 0.08556,-0.04105 0.143818,-0.119849 0.05826,-0.0788 0.122099,-0.133272 0.14187,-0.121053 0.01977,0.01222 0.08944,-0.04136 0.154832,-0.119073 0.06539,-0.07771 0.129388,-0.130787 0.142223,-0.117952 0.01284,0.01283 0.07995,-0.04395 0.14915,-0.126185 0.0692,-0.08224 0.125814,-0.137019 0.125814,-0.121739 0,0.01528 0.426061,-0.324101 0.946804,-0.754182 1.91229,-1.5793602 2.93991,-2.3687556 3.766169,-2.8930885 0.429818,-0.2727571 0.508599,-0.3065099 0.656244,-0.281162 0.436688,0.074971 0.488761,0.1421073 0.598552,0.7716923 0.219296,1.2575385 0.245907,2.8918762 0.263387,16.1758422 0.0078,5.94569 0.02742,12.277291 0.04355,14.070227 0.01613,1.792935 0.0111,3.3385 -0.01117,3.434589 -0.04351,0.187679 -0.939115,1.033017 -9.451509,8.920997 -1.951136,1.808013 -3.647401,3.381083 -3.769478,3.495712 -0.122078,0.114628 -0.236517,0.212526 -0.25431,0.21755 -0.01779,0.005 -0.241503,0.200821 -0.497133,0.435105 -0.599992,0.54989 -1.863406,1.64348 -2.262834,1.958667 -0.672744,0.530867 -0.784622,0.553365 -1.144179,0.230095 z m 2.662723,-4.217866 c 0.62833,-0.581641 2.976102,-2.75479 5.217271,-4.829219 2.241169,-2.074429 4.198896,-3.890645 4.350505,-4.036036 0.151608,-0.145391 0.287239,-0.263466 0.301402,-0.26239 0.106165,0.0081 2.71303,-2.475565 2.829947,-2.69617 0.121771,-0.229763 0.07425,-0.216309 -0.209036,0.05917 -0.551859,0.536666 -0.992355,0.753661 -1.759782,0.866893 -0.271433,0.04005 -2.04023,0.06243 -6.052354,0.07658 l -5.66884,0.01999 0,-0.800746 0,-0.800746 5.64487,0.02811 c 5.211337,0.02596 7.21271,0.06953 7.863731,0.171204 0.287165,0.04485 0.313053,-0.0101 0.07128,-0.151303 -0.46303,-0.270424 -1.810813,-0.321422 -8.510286,-0.322016 l -5.117536,-4.54e-4 7.34e-4,-9.0246 c 4.03e-4,-4.96353 0.01658,-9.04717 0.03596,-9.074756 0.0406,-0.05782 0.75311,-0.661961 4.949013,-4.196301 3.447356,-2.903815 6.346925,-5.325755 7.737089,-6.462602 0.519505,-0.424841 0.91253,-0.772438 0.873389,-0.772438 -0.17308,0 -1.770304,1.313451 -9.173137,7.543385 l -4.565603,3.842233 -8.2e-4,3.619428 c -4.51e-4,1.990685 -0.01146,5.205025 -0.02447,7.142977 -0.04486,6.684673 -0.07119,20.20772 -0.04026,20.675435 0.01706,0.257928 0.04755,0.462869 0.06777,0.455425 0.02021,-0.0074 0.550839,-0.489425 1.179169,-1.071066 z M 56.908031,10.897175 c -0.0133,-0.03296 -0.02418,-0.006 -0.02418,0.05992 0,0.06592 0.01088,0.09288 0.02418,0.05992 0.0133,-0.03296 0.0133,-0.08689 0,-0.119849 z"
     id="path4158"
     inkscape:connector-curvature="0" />
  <path
     style="opacity:1;fill:#60b1f3;fill-opacity:1;fill-rule:nonzero;stroke:none;stroke-width:1.5;stroke-miterlimit:4;stroke-dasharray:none;stroke-opacity:1"
     d="m 41.551482,56.823161 c -0.121954,-0.112058 -0.250077,-0.271169 -0.284719,-0.353587 -0.202273,-0.481206 -0.256358,-4.516043 -0.25632,-19.121811 3.6e-5,-13.952762 0.03212,-15.782541 0.286848,-16.360702 0.127009,-0.288272 0.479434,-0.642961 1.784416,-1.795874 0.626209,-0.553238 1.138562,-1.026336 1.138562,-1.051328 0,-0.02499 0.01856,-0.03397 0.04125,-0.01995 0.02269,0.01402 0.119728,-0.05482 0.215648,-0.152974 0.289625,-0.296379 0.259946,-0.27097 4.34529,-3.720076 2.175252,-1.836486 4.012953,-3.39269 4.083781,-3.458231 0.07083,-0.06554 0.150501,-0.119166 0.177054,-0.119166 0.02655,0 0.08228,-0.04854 0.123829,-0.107864 0.04155,-0.05932 0.09233,-0.107864 0.112828,-0.107864 0.0205,0 0.48615,-0.366737 1.034774,-0.8149705 1.704404,-1.3925236 3.181868,-2.4626206 3.51825,-2.5481956 0.0604,-0.015364 0.208811,-2.166e-4 0.329814,0.033662 0.188388,0.052746 0.232394,0.08973 0.306231,0.2573675 0.236219,0.5363131 0.320893,1.9767663 0.355307,6.0443828 0.05789,6.842869 0.09168,28.025649 0.04497,28.195813 -0.0156,0.05682 -0.743669,0.76999 -1.617943,1.584833 -3.868812,3.605821 -8.728043,8.120904 -10.314567,9.584053 -0.949201,0.875387 -1.833684,1.694965 -1.965517,1.821285 -0.131834,0.12632 -0.25243,0.230578 -0.267992,0.231684 -0.01556,0.0011 -0.19893,0.153988 -0.407485,0.339744 -1.098577,0.978463 -1.895435,1.628915 -2.162555,1.765221 -0.246205,0.125635 -0.377279,0.09919 -0.621756,-0.125453 z m 2.411847,-4.014928 c 0.469204,-0.435051 2.957135,-2.735965 5.528736,-5.113142 2.571601,-2.377178 4.783502,-4.425619 4.915335,-4.552092 0.131834,-0.126474 0.253287,-0.226391 0.269896,-0.22204 0.01661,0.0044 0.162225,-0.129581 0.323591,-0.297627 0.161366,-0.168046 0.293393,-0.294308 0.293393,-0.280582 0,0.04456 1.507502,-1.433011 1.593671,-1.562028 0.153177,-0.229346 0.08704,-0.209991 -0.204381,0.05981 -0.571359,0.528978 -0.921613,0.708208 -1.628987,0.833575 -0.342957,0.06078 -1.312783,0.0756 -6.124264,0.09357 l -5.716779,0.02135 0,-0.800807 0,-0.800807 5.716779,0.02921 c 5.24753,0.02681 6.722995,0.05627 7.70137,0.153747 0.382566,0.03812 0.421769,-0.005 0.137924,-0.151818 -0.471747,-0.243949 -2.213218,-0.304031 -8.846022,-0.305193 l -4.75799,-8.33e-4 0.0017,-9.04857 0.0017,-9.04857 0.369798,-0.314403 c 2.584916,-2.197702 10.684594,-8.989282 12.485631,-10.469201 0.414801,-0.340845 0.74406,-0.629842 0.731684,-0.642217 -0.08196,-0.08196 -2.407458,1.840657 -11.69697,9.670532 l -2.013457,1.697087 -0.02397,5.685955 c -0.01318,3.127276 -0.02969,10.298775 -0.03668,15.936665 -0.01102,8.893651 -0.0036,10.24864 0.05621,10.235071 0.0379,-0.0086 0.452809,-0.371589 0.922012,-0.806639 z"
     id="path4160"
     inkscape:connector-curvature="0" />
  <path
     style="opacity:1;fill:#60b1f3;fill-opacity:1;fill-rule:nonzero;stroke:none;stroke-width:1.5;stroke-miterlimit:4;stroke-dasharray:none;stroke-opacity:1"
     d="m 41.619427,56.89507 c -0.266661,-0.205142 -0.404016,-0.452323 -0.440203,-0.79218 -0.112652,-1.057985 -0.13353,-3.236483 -0.155679,-16.244901 -0.02814,-16.524661 -0.0029,-18.244032 0.277235,-18.880832 0.11577,-0.263177 0.494408,-0.654818 1.51263,-1.564575 0.425913,-0.380542 0.786579,-0.723669 0.801481,-0.762503 0.0149,-0.03884 0.05833,-0.07061 0.09651,-0.07061 0.03818,0 0.108966,-0.05126 0.157307,-0.113904 0.08022,-0.10396 4.917677,-4.212631 8.429356,-7.159433 0.791001,-0.663763 1.483599,-1.251136 1.539107,-1.305272 0.05551,-0.054137 0.124054,-0.09843 0.152324,-0.09843 0.02827,0 0.09611,-0.056841 0.150758,-0.1263137 0.05465,-0.069472 0.09936,-0.11253 0.09936,-0.095683 0,0.016847 0.319428,-0.2243893 0.70984,-0.53608 0.831755,-0.6640433 1.511908,-1.1792045 2.046678,-1.550195 0.776579,-0.5387416 0.945217,-0.5972191 1.29763,-0.4499713 0.212906,0.088957 0.28987,0.2668794 0.380199,0.878928 0.152551,1.033638 0.176962,2.1132988 0.23976,10.6042938 0.03298,4.459725 0.03146,22.935617 -0.0019,23.02255 -0.02898,0.07553 -0.965882,0.956245 -5.75084,5.405976 -1.713835,1.593767 -4.339429,4.036202 -5.834654,5.427634 -1.495224,1.391432 -2.730176,2.529877 -2.744338,2.529877 -0.01416,0 -0.374907,0.303356 -0.801657,0.67412 -0.83789,0.72797 -1.47626,1.227082 -1.657677,1.296057 -0.191114,0.07266 -0.324074,0.04926 -0.503222,-0.08855 z m 2.071114,-3.845909 c 0.275534,-0.25116 2.896623,-2.675174 5.824643,-5.386695 2.928019,-2.711522 5.492981,-5.084525 5.699914,-5.273339 0.741453,-0.676531 1.77578,-1.706835 1.7447,-1.737915 -0.01742,-0.01742 -0.170135,0.09509 -0.33937,0.250018 -0.40912,0.374536 -0.836733,0.620366 -1.237771,0.71158 -0.602719,0.137085 -1.894791,0.167992 -7.051581,0.168674 l -5.117536,6.77e-4 0,-0.797445 0,-0.797445 5.740749,0.02807 c 5.164245,0.02525 6.836491,0.05896 7.69428,0.155094 0.312879,0.03506 0.361857,-0.02257 0.117656,-0.13845 -0.516198,-0.244952 -1.234455,-0.272923 -7.811936,-0.304217 l -5.788688,-0.02754 0,-9.042449 0,-9.042449 0.539319,-0.457814 c 1.986012,-1.685872 7.760908,-6.537473 10.135771,-8.515256 2.577024,-2.146142 3.21578,-2.696092 2.744625,-2.363038 -0.352934,0.249485 -1.926395,1.529057 -3.711978,3.018659 -2.744769,2.289793 -9.722673,8.17159 -9.787451,8.250013 -0.04195,0.05079 -0.06443,3.910515 -0.09084,15.599867 -0.01931,8.542808 -0.01925,15.700601 1.24e-4,15.906206 0.04118,0.437014 -0.03256,0.458731 0.695373,-0.204808 l 1e-6,0 z"
     id="path4162"
     inkscape:connector-curvature="0" />
  <path
     style="opacity:1;fill:#60b1f3;fill-opacity:1;fill-rule:nonzero;stroke:none;stroke-width:1.5;stroke-miterlimit:4;stroke-dasharray:none;stroke-opacity:1"
     d="m 41.621229,56.909006 c -0.282311,-0.194941 -0.409883,-0.462102 -0.468736,-0.981632 -0.10044,-0.88664 -0.141945,-6.315385 -0.142048,-18.579611 -1.01e-4,-11.877855 0.02707,-14.882876 0.14276,-15.789111 0.07889,-0.617971 0.15017,-0.725947 1.059101,-1.604353 0.445571,-0.430608 0.818283,-0.774769 0.828249,-0.764803 0.01,0.01 0.07993,-0.05504 0.155477,-0.144457 0.07555,-0.08942 1.205208,-1.067482 2.510359,-2.173477 3.021676,-2.560591 7.167261,-6.061639 8.005887,-6.761168 0.355951,-0.2969107 0.690328,-0.5784229 0.743062,-0.6255823 0.05273,-0.047159 0.106677,-0.085744 0.119874,-0.085744 0.0132,0 0.358362,-0.2607662 0.767031,-0.5794804 1.718251,-1.3400337 2.335617,-1.7456964 2.65628,-1.7454033 0.292531,2.675e-4 0.482902,0.1385986 0.571771,0.4154718 0.195861,0.6102035 0.263397,1.7700906 0.295111,5.0682856 0.01372,1.426623 0.03554,3.176324 0.04849,3.888224 0.03317,1.823218 0.03045,25.119016 -0.0029,25.206035 -0.03041,0.07925 -0.479192,0.501914 -5.104353,4.807295 -7.153593,6.659002 -9.172657,8.530141 -9.398676,8.710101 -0.130527,0.103927 -0.260253,0.231806 -0.288281,0.28418 -0.02803,0.05237 -0.06256,0.08362 -0.07674,0.06944 -0.01418,-0.01418 -0.233553,0.153033 -0.487495,0.371584 -0.253942,0.218551 -0.634295,0.533144 -0.845229,0.699096 -0.210933,0.165952 -0.394302,0.315087 -0.407485,0.331415 -0.03195,0.03957 -0.132519,0.06603 -0.335576,0.08828 -0.122688,0.01345 -0.215659,-0.01466 -0.345886,-0.104585 z m 1.81519,-3.630363 c 1.008299,-0.910657 12.585823,-11.64429 13.005156,-12.057205 0.527769,-0.519692 0.639029,-0.734353 0.153475,-0.296109 -0.65505,0.591224 -1.081455,0.739241 -2.331468,0.809315 -0.448234,0.02513 -3.117861,0.0461 -5.932506,0.0466 l -5.117536,9.15e-4 0,-0.797445 0,-0.797445 5.740749,0.02828 c 5.174965,0.02549 6.957192,0.06155 7.71825,0.156132 0.31966,0.03973 0.328072,-0.03098 0.01948,-0.163731 -0.499232,-0.214764 -0.762014,-0.222672 -7.414138,-0.223109 l -6.280067,-4.13e-4 -0.0147,6.064339 c -0.01415,5.837782 0.0053,7.526493 0.08682,7.526493 0.02093,0 0.185849,-0.133479 0.366483,-0.296621 z M 43.009481,38.943846 c -0.0091,-0.192312 -0.01665,-0.04764 -0.01672,0.321494 -7.7e-5,0.369134 0.0074,0.52648 0.01659,0.349659 0.0092,-0.176822 0.0093,-0.478841 1.34e-4,-0.671153 l 2e-6,0 z m -0.0039,-1.104704 c -0.0133,-0.03296 -0.02418,-0.006 -0.02418,0.05992 0,0.06592 0.01088,0.09288 0.02418,0.05992 0.0133,-0.03296 0.0133,-0.08689 0,-0.119848 z m 0.05209,-13.878469 c -0.0076,-0.573475 -0.01391,-0.104268 -0.01391,1.042683 0,1.146951 0.0063,1.616158 0.01391,1.042683 0.0076,-0.573476 0.0076,-1.51189 0,-2.085366 z M 55.438098,11.505715 c 1.113958,-0.925672 1.349064,-1.131798 1.198486,-1.050752 -0.158615,0.08537 -2.444911,1.925619 -2.444911,1.967917 0,0.09283 0.270747,-0.106399 1.246425,-0.917165 z"
     id="path4164"
     inkscape:connector-curvature="0" />
  <path
     style="opacity:1;fill:#60b1f3;fill-opacity:1;fill-rule:nonzero;stroke:none;stroke-width:1.5;stroke-miterlimit:4;stroke-dasharray:none;stroke-opacity:1"
     d="m 41.649077,56.934927 c -0.206001,-0.125611 -0.38108,-0.36956 -0.449391,-0.626156 -0.03145,-0.118123 -0.07848,-0.581937 -0.104526,-1.030698 -0.07006,-1.207259 -0.10891,-29.616713 -0.04348,-31.793058 0.05473,-1.820224 0.0939,-2.217637 0.250801,-2.544378 0.09124,-0.190004 1.391011,-1.546196 1.48187,-1.546196 0.02129,0 0.07803,-0.04987 0.126084,-0.110827 0.116886,-0.14826 4.657942,-4.009598 9.699232,-8.247424 1.120585,-0.941989 2.091358,-1.7596237 2.157275,-1.8169659 0.06592,-0.057342 0.132144,-0.1050539 0.147172,-0.106026 0.01503,-9.722e-4 0.33862,-0.2413752 0.719092,-0.5342291 1.022896,-0.7873343 1.516401,-1.1383969 1.880902,-1.3380079 0.288286,-0.1578738 0.354858,-0.175898 0.572452,-0.15499 0.657329,0.063161 0.723935,0.5613027 0.802858,6.0044329 0.05066,3.494216 0.06823,28.440095 0.02012,28.565481 -0.0301,0.07845 -1.575346,1.527689 -7.905865,7.414706 -6.500067,6.044689 -7.035497,6.540172 -7.14725,6.614008 -0.05986,0.03955 -0.436041,0.341569 -0.835962,0.671153 -0.399921,0.329583 -0.773563,0.61327 -0.830315,0.630418 -0.194777,0.05885 -0.391002,0.04026 -0.541072,-0.05124 z m 2.123105,-3.969507 c 0.365098,-0.335414 1.677733,-1.548678 2.916968,-2.696142 7.294381,-6.754202 10.081606,-9.352133 10.156986,-9.467178 0.08241,-0.125776 0.08223,-0.128136 -0.0063,-0.08073 -0.05018,0.02686 -0.120846,0.0845 -0.15703,0.128102 -0.107352,0.129351 -0.581997,0.479774 -0.800198,0.590774 -0.31832,0.161932 -0.779784,0.247584 -1.589591,0.295045 -0.411663,0.02413 -3.072942,0.04454 -5.913954,0.04537 l -5.165475,0.0015 0,-0.797498 0,-0.797497 5.788688,0.02821 c 5.204886,0.02537 6.993877,0.06143 7.694281,0.155084 0.132046,0.01766 0.227712,0.01148 0.227712,-0.01471 0,-0.05794 -0.297858,-0.188082 -0.575273,-0.25136 -0.453158,-0.103364 -3.104595,-0.146831 -8.149705,-0.133603 l -5.20143,0.01364 -0.01534,5.297308 c -0.01531,5.286104 0.01665,8.293524 0.08812,8.293524 0.02078,0 0.336488,-0.27443 0.701585,-0.609844 z m -0.71463,-28.139347 c -0.0086,-0.258445 -0.01574,-0.06002 -0.01579,0.44095 -4.6e-5,0.500967 0.007,0.712422 0.0157,0.469899 0.0087,-0.242522 0.0087,-0.652404 8.1e-5,-0.910849 l 3e-6,0 z m 12.71233,-13.599999 c 0.874036,-0.727905 1.09817,-0.932519 0.758839,-0.692747 -0.265548,0.187636 -1.809714,1.433643 -1.809714,1.460281 0,0.08354 0.235359,-0.08836 1.050875,-0.767534 z"
     id="path4166"
     inkscape:connector-curvature="0" />
  <path
     style="opacity:1;fill:#60b1f3;fill-opacity:1;fill-rule:nonzero;stroke:none;stroke-width:1.5;stroke-miterlimit:4;stroke-dasharray:none;stroke-opacity:1"
     d="M 41.698865,56.982967 C 41.544653,56.916384 41.252084,56.548866 41.200351,56.356744 41.054738,55.815977 41.04564,54.969837 41.02242,39.807952 40.99528,22.087535 41.005499,21.435574 41.31869,20.904534 c 0.255763,-0.433664 1.142311,-1.277995 3.016068,-2.872444 2.217611,-1.887046 7.524421,-6.374985 9.360762,-7.916342 1.277952,-1.0726656 2.885174,-2.3028487 3.604419,-2.7588563 0.339896,-0.2154967 0.441802,-0.2564516 0.681203,-0.2737683 0.26107,-0.018884 0.291853,-0.010024 0.423868,0.1219902 0.28738,0.2873799 0.36776,0.8487523 0.434266,3.0328944 0.08597,2.823441 0.09841,5.096115 0.09995,18.264927 l 0.0015,13.159377 -0.325132,0.311713 c -0.675451,0.64757 -10.116847,9.438361 -13.772147,12.823109 -0.514151,0.476097 -1.304472,1.162494 -1.756269,1.525333 -0.759365,0.609852 -0.839075,0.661378 -1.054667,0.68179 -0.128271,0.01215 -0.278427,0.0026 -0.333681,-0.02129 z m 4.462179,-6.229828 c 6.109449,-5.650858 9.372933,-8.69207 9.372933,-8.734553 0,-0.02737 -2.422155,-0.04467 -6.25421,-0.04467 l -6.25421,0 -0.018,0.994743 c -0.02941,1.625336 0.0016,10.499391 0.03684,10.55647 0.04458,0.07213 -0.02994,0.138402 3.116647,-2.771993 z m -3.155451,-8.982963 c -0.0133,-0.03296 -0.02418,-0.006 -0.02418,0.05992 0,0.06592 0.01088,0.09288 0.02418,0.05992 0.0133,-0.03296 0.0133,-0.08689 0,-0.119849 z m 5.398912,0.02397 -5.187926,-0.01241 -0.01518,-0.563074 -0.01518,-0.563075 -0.01031,0.587258 -0.01031,0.587258 5.213414,-0.01177 5.213415,-0.01177 -5.187925,-0.01241 z m 6.03885,-0.04709 c -0.112059,-0.01009 -0.295427,-0.01009 -0.407485,0 -0.112059,0.01009 -0.02038,0.01835 0.203742,0.01835 0.224117,0 0.315801,-0.0083 0.203743,-0.01835 z m 0.551304,-0.04588 c -0.04614,-0.01206 -0.121647,-0.01206 -0.167789,0 -0.04614,0.01206 -0.0084,0.02193 0.08389,0.02193 0.09228,0 0.130035,-0.0099 0.08389,-0.02193 z m 0.311606,-0.04664 c -0.03296,-0.0133 -0.08689,-0.0133 -0.119849,0 -0.03296,0.0133 -0.006,0.02418 0.05992,0.02418 0.06592,0 0.09288,-0.01088 0.05992,-0.02418 z m 0.214729,-0.04515 c -0.01593,-0.01593 -0.05728,-0.01763 -0.09188,-0.0038 -0.03824,0.0153 -0.02688,0.02666 0.02896,0.02896 0.05054,0.0021 0.07885,-0.0092 0.06292,-0.02518 l 0,-2e-6 z m 0.396499,-0.138824 c 0.06592,-0.03768 0.09828,-0.06851 0.07191,-0.06851 -0.02637,0 -0.101871,0.03083 -0.167788,0.06851 -0.06592,0.03768 -0.09828,0.06851 -0.07191,0.06851 0.02637,0 0.101871,-0.03083 0.167788,-0.06851 z m 0.536739,-0.264156 c 0.173371,-0.142906 0.502509,-0.526845 0.451648,-0.526845 -0.01452,0 -0.129842,0.09168 -0.256273,0.203742 -0.126431,0.112059 -0.305127,0.262829 -0.397101,0.335045 -0.13869,0.108897 -0.150684,0.131392 -0.07028,0.131833 0.05332,2.88e-4 0.175722,-0.06441 0.27201,-0.143775 z m -8.862916,-1.018228 4.371173,-0.01249 -4.398444,-0.01173 -4.398444,-0.01173 0.0065,0.131833 c 0.0056,0.112657 0.0095,0.11618 0.02727,0.02422 l 0.02074,-0.107612 4.371173,-0.01249 z m 8.842085,0.122868 c -0.04584,-0.012 -0.132126,-0.01243 -0.191758,-9.68e-4 -0.05963,0.01147 -0.02213,0.02128 0.08333,0.02182 0.105467,5.32e-4 0.154257,-0.0089 0.108423,-0.02085 l 0,0 z m -0.766323,-0.04985 c -0.09818,-0.0103 -0.27076,-0.01044 -0.383516,-3.36e-4 -0.112755,0.01013 -0.03243,0.01856 0.178506,0.01873 0.210934,1.92e-4 0.303188,-0.0081 0.20501,-0.01841 l 0,1.9e-5 z m -1.535329,-0.04887 c -0.283442,-0.0085 -0.747257,-0.0085 -1.030698,0 -0.283442,0.0085 -0.05154,0.01541 0.515349,0.01541 0.566883,0 0.798791,-0.0069 0.515349,-0.01541 z m 1.244568,-28.663054 c 0.463817,-0.379572 0.835059,-0.690213 1.233901,-1.032484 0.02505,-0.0215 0.03111,-0.03908 0.01348,-0.03908 -0.02717,0 -1.441925,1.117822 -1.808809,1.429167 -0.06592,0.05594 -0.09372,0.102423 -0.06178,0.1033 0.03194,8.77e-4 0.312383,-0.206528 0.623213,-0.4609 z"
     id="path4170"
     inkscape:connector-curvature="0" />
  <path
     style="opacity:1;fill:#60b1f3;fill-opacity:1;fill-rule:nonzero;stroke:none;stroke-width:1.5;stroke-miterlimit:4;stroke-dasharray:none;stroke-opacity:1"
     d="m 43.056612,53.479056 c -0.02109,-0.07779 -0.04572,-11.323841 -0.02498,-11.406472 l 0.01424,-0.05673 6.236662,0 6.236662,0 -0.106862,0.110376 c -0.269906,0.278781 -2.255291,2.130476 -6.962353,6.493528 -4.165787,3.861334 -5.143719,4.7598 -5.308497,4.877133 l -0.06709,0.04777 -0.01779,-0.0656 z m 0.448118,-0.461103 c 1.001845,-0.855145 5.314486,-4.845469 9.403266,-8.700487 1.843543,-1.738145 2.201043,-2.088871 2.165389,-2.124361 -0.07044,-0.07012 -1.171142,-0.08657 -6.56932,-0.09823 l -5.339255,-0.01153 0,5.601138 c 0,3.485373 0.0085,5.598121 0.02253,5.593149 0.01239,-0.0044 0.155217,-0.121247 0.317389,-0.259672 z"
     id="path4172"
     inkscape:connector-curvature="0" />
  <path
     style="opacity:1;fill:#60b1f3;fill-opacity:1;fill-rule:nonzero;stroke:none;stroke-width:1.5;stroke-miterlimit:4;stroke-dasharray:none;stroke-opacity:1"
     d="m 41.727847,57.003356 c -0.0811,-0.01521 -0.360069,-0.302009 -0.449255,-0.461854 -0.08556,-0.153336 -0.118693,-0.284494 -0.151398,-0.599243 -0.04167,-0.400975 -0.07393,-2.118873 -0.0932,-4.961732 -0.02237,-3.301588 -0.03269,-25.675395 -0.01186,-25.729665 0.01317,-0.03431 0.838357,-0.03779 8.964626,-0.03779 l 8.950126,0 1.44e-4,3.25389 c 9.6e-5,1.789639 0.0031,5.443524 0.0066,8.119743 0.0036,2.67622 2.4e-5,4.917059 -0.0078,4.979644 -0.01626,0.129373 0.0097,0.100675 -0.65811,0.727925 -1.804542,1.694978 -13.763451,12.820381 -14.359807,13.358964 -0.06485,0.05857 -0.124536,0.107104 -0.13264,0.107864 -0.0081,7.67e-4 -0.164507,0.126421 -0.347561,0.279249 -0.39256,0.327738 -0.891947,0.724512 -1.034595,0.822006 -0.05566,0.03805 -0.101207,0.0767 -0.101207,0.08589 0,0.0092 -0.01348,0.01785 -0.02996,0.01924 -0.01648,0.0014 -0.07311,0.01371 -0.125841,0.02739 -0.09596,0.02489 -0.30785,0.02919 -0.41825,0.0085 z m 1.595318,-3.640313 c 0.295914,-0.252977 2.926347,-2.683533 8.063259,-7.450563 3.408995,-3.163532 4.158801,-3.86861 4.137102,-3.890309 -0.0054,-0.0054 -0.164506,0.140149 -0.353614,0.323397 -0.590488,0.572192 -4.028695,3.772461 -8.337735,7.760733 -3.406826,3.153217 -3.722801,3.439475 -3.757862,3.404427 -0.01755,-0.01754 -0.04692,-8.984697 -0.03477,-10.61399 l 0.0066,-0.880887 6.21357,-0.0045 c 3.417464,-0.0025 5.911552,-0.0118 5.542418,-0.02072 -0.369133,-0.0089 -3.169716,-0.01768 -6.223516,-0.01946 l -5.552364,-0.0033 -0.01734,0.462507 c -0.01969,0.525269 0.0051,10.765373 0.02653,10.977042 0.0089,0.08772 0.025,0.137826 0.04428,0.137826 0.01666,0 0.126225,-0.08201 0.243471,-0.182244 z m 0.189206,-0.344313 c 1.29583,-1.104244 9.601058,-8.827265 11.133935,-10.353431 0.398537,-0.396792 0.286819,-0.29385 -0.635336,0.585423 -1.825278,1.7404 -6.358299,5.972026 -8.653423,8.078071 -1.00963,0.926451 -1.427496,1.301896 -1.863467,1.674285 -0.167915,0.143427 -0.305301,0.266095 -0.305301,0.272593 0,0.01615 0.04569,-0.02013 0.323592,-0.256941 z m 0.125892,-10.936995 0.449381,-0.0071 -0.461417,-0.0054 -0.461417,-0.0054 0.0059,5.507043 0.0059,5.507044 0.0061,-5.49453 0.0061,-5.49453 0.449381,-0.0071 z m 11.31965,0.07623 c -0.05933,-0.01082 -0.501567,-0.02484 -0.982759,-0.03114 l -0.874895,-0.01147 0.767031,0.02116 c 0.421867,0.01164 0.810177,0.02512 0.86291,0.02996 0.05273,0.0048 0.149811,0.0093 0.215728,0.01 l 0.119848,0.0012 -0.107863,-0.01967 0,10e-7 z m -1.87613,-0.03675 c -0.008,-0.008 -0.02864,-0.0088 -0.04594,-0.0019 -0.01912,0.0077 -0.01344,0.01333 0.01448,0.01448 0.02527,0.001 0.03943,-0.0046 0.03146,-0.01259 l 0,-1e-6 z m -1.497153,-0.02521 c -0.01623,-0.0066 -0.04859,-0.007 -0.07191,-8.89e-4 -0.02332,0.0061 -0.01004,0.01145 0.02951,0.01194 0.03955,4.89e-4 0.05863,-0.0045 0.0424,-0.01105 l 0,10e-7 z m 0.287181,-0.0016 c -0.04285,-0.0053 -0.112957,-0.0053 -0.155803,0 -0.04285,0.0053 -0.0078,0.0097 0.0779,0.0097 0.08569,0 0.120748,-0.0044 0.0779,-0.0097 z m 0.287966,4.68e-4 c -0.02948,-0.0057 -0.08341,-0.0058 -0.119848,-3.26e-4 -0.03644,0.0055 -0.01232,0.01016 0.0536,0.01034 0.06592,1.92e-4 0.09573,-0.0043 0.06625,-0.01002 l 0,-10e-7 z m -9.146232,-0.312712 c -0.006,-0.02307 -0.01096,-0.0042 -0.01096,0.04195 0,0.04614 0.0049,0.06502 0.01096,0.04195 0.006,-0.02307 0.006,-0.06082 0,-0.08389 z m 10.230533,0.02997 c 0.01318,-0.0045 -2.24366,-0.0091 -5.015206,-0.01009 l -5.039175,-0.0019 -0.0069,-0.533327 -0.0069,-0.533326 -0.0055,0.554337 -0.0055,0.554336 5.027649,-0.01091 c 2.765207,-0.006 5.038435,-0.01461 5.051619,-0.01912 z m 1.145429,-0.0536 c -0.06873,-0.0048 -0.187381,-0.0049 -0.263667,-9.6e-5 -0.07629,0.0048 -0.02005,0.0087 0.124966,0.0088 0.145017,4.8e-5 0.207432,-0.0038 0.138701,-0.0087 l 0,-2e-6 z m 0.598697,-0.04717 c -0.02948,-0.0057 -0.08341,-0.0058 -0.119848,-3.26e-4 -0.03644,0.0055 -0.01232,0.01016 0.0536,0.01034 0.06592,1.92e-4 0.09573,-0.0043 0.06625,-0.01002 l 0,-2e-6 z m 0.299292,-0.04759 c -0.02307,-0.006 -0.06082,-0.006 -0.08389,0 -0.02307,0.006 -0.0042,0.01096 0.04195,0.01096 0.04614,0 0.06502,-0.0049 0.04195,-0.01096 z m 0.24569,-0.04597 c 0,-0.0052 -0.02966,-0.0093 -0.06592,-0.0091 -0.04797,2.68e-4 -0.05672,0.0062 -0.03214,0.02175 0.03052,0.01932 0.09805,0.01058 0.09805,-0.0127 z m 0.342338,-0.113571 c 0.07062,-0.02952 0.164175,-0.111577 0.12721,-0.111577 -0.02476,0 -0.253821,0.119337 -0.253821,0.132238 0,0.02026 0.04712,0.01257 0.126611,-0.02066 z m 0.465021,-0.211143 c 0.08371,-0.05065 0.558915,-0.538354 0.558915,-0.57361 0,-0.04474 -0.04072,-0.01741 -0.239697,0.160821 -0.112059,0.10038 -0.268461,0.231504 -0.347561,0.291386 -0.191396,0.144896 -0.187581,0.141004 -0.168476,0.171916 0.01977,0.032 0.09044,0.01386 0.196819,-0.05051 z M 47.570693,40.18946 c 3.002219,-0.0032 3.960756,-0.0097 3.0487,-0.02056 -0.731676,-0.0087 -2.708279,-0.0174 -4.392451,-0.01928 l -3.062132,-0.0034 0.004,0.113856 c 0.0037,0.104312 0.0048,0.106321 0.01343,0.02397 l 0.0094,-0.08989 4.37902,-0.0047 z m 8.873342,0.124541 c 0,-0.01318 -0.04917,-0.02397 -0.109278,-0.02397 -0.06675,0 -0.103513,0.0093 -0.09446,0.02397 0.0081,0.01318 0.05732,0.02397 0.109278,0.02397 0.05196,0 0.09446,-0.01079 0.09446,-0.02397 z m -0.755046,-0.04794 c -0.0083,-0.01338 -0.112175,-0.02323 -0.235119,-0.02228 -0.145388,0.0011 -0.204003,0.0087 -0.172366,0.02228 0.06924,0.02975 0.425873,0.02975 0.407485,0 z m -1.462153,-0.04794 c -0.0094,-0.01517 -0.236526,-0.02216 -0.618635,-0.01904 -0.519695,0.0042 -0.558737,0.0069 -0.280229,0.01904 0.584505,0.0255 0.914623,0.0255 0.898864,0 z"
     id="path4174"
     inkscape:connector-curvature="0" />
  <path
     style="opacity:1;fill:#60b1f3;fill-opacity:1;fill-rule:nonzero;stroke:none;stroke-width:1.5;stroke-miterlimit:4;stroke-dasharray:none;stroke-opacity:1"
     id="path4181"
     d="m 56.699672,40.932749 c -0.01752,0.06932 -0.04482,0.135228 -0.07522,0.199721 -0.02126,0.06116 -0.06163,0.108052 -0.101565,0.1573 -0.04721,0.05478 -0.102899,0.101584 -0.155108,0.151485 -0.0476,0.05035 -0.09912,0.09557 -0.156165,0.134821 -0.04637,0.03173 -0.09099,0.06589 -0.139002,0.09519 -0.0066,0.0042 -0.01292,0.0088 -0.0197,0.01268 -0.927049,0.530972 0.0096,-0.0087 -0.04133,0.02275 -0.107484,0.06627 -0.2181,0.127334 -0.328079,0.189371 -0.03513,0.01417 -0.01848,0.006 -0.05007,0.0243 -0.05787,0.02497 -0.113452,0.05276 -0.169799,0.08123 -0.05895,0.03581 -0.12297,0.06227 -0.189093,0.08141 -0.128478,0.05582 -0.399861,0.218103 0.13322,-0.08569 -0.147809,0.101587 -0.306406,0.1871 -0.466174,0.267914 0.03102,-0.02983 -0.120935,0.06114 -0.07991,0.03742 0.493464,-0.285347 0.339079,-0.195631 0.233831,-0.131479 -0.125336,0.08781 -0.246529,0.150304 -0.378735,0.209562 -0.0259,0.01161 -0.05015,0.01593 -0.07498,0.03036 -0.0499,0.02119 -0.10002,0.04158 -0.149382,0.06398 -0.05018,-3.86e-4 -0.04643,-0.0624 -0.02647,-0.09302 0.02862,-0.04375 0.06545,-0.08095 0.09873,-0.121006 0.04457,-0.05878 0.08234,-0.121671 0.128847,-0.179074 0.05084,-0.05846 0.108478,-0.11055 0.163877,-0.164639 0.0552,-0.04548 0.101088,-0.100139 0.149354,-0.152546 0.05828,-0.06208 0.118419,-0.122372 0.178397,-0.182802 0.05399,-0.06157 0.11463,-0.116396 0.173835,-0.172733 0.04525,-0.0464 0.09112,-0.09191 0.134519,-0.140075 0.04066,-0.04695 0.08087,-0.09372 0.124885,-0.137606 0.04495,-0.03908 0.09418,-0.07197 0.13884,-0.111594 0.04454,-0.04721 0.09274,-0.09012 0.145142,-0.128335 0.06241,-0.04677 0.121851,-0.09716 0.182158,-0.146561 0.04433,-0.03643 0.09022,-0.07073 0.13244,-0.10961 0.102899,-0.10046 0.278024,-0.175735 0.378704,-0.232758 0.02782,-0.01005 0.01495,-0.0037 0.03881,-0.01859 0.04458,-0.01674 0.05652,0.02814 0.05183,0.0631 -0.01198,0.05666 -0.03962,0.10755 -0.06399,0.159454 -0.02997,0.06224 -0.05173,0.127735 -0.07559,0.192381 -0.02286,0.06033 -0.05445,0.116734 -0.0824,0.174771 -0.03477,0.06546 -0.07637,0.126356 -0.123063,0.183772 -0.04881,0.05996 -0.08983,0.125743 -0.1332,0.189671 -0.04739,0.0689 -0.09858,0.135598 -0.153125,0.199026 -0.05183,0.06441 -0.103247,0.129265 -0.157757,0.191441 -0.05213,0.06117 -0.114948,0.111771 -0.170239,0.16966 -0.03295,0.04698 -0.07549,0.0854 -0.11201,0.129214 -0.03763,0.04356 -0.07549,0.0859 -0.106462,0.134527 -0.0046,0.0072 -0.0091,0.01441 -0.01366,0.0216 -0.0024,0.0039 -0.02726,0.04355 -0.02739,0.0436 -0.329892,0.143779 -0.369658,0.236661 -0.31358,0.117771 0.02205,-0.04661 0.05367,-0.08664 0.08477,-0.127351 0.03982,-0.04959 0.08367,-0.09556 0.125256,-0.143683 0.03926,-0.04255 0.08101,-0.08278 0.123599,-0.121975 0.03812,-0.02782 0.07247,-0.05903 0.103321,-0.09466 0.103161,-0.103611 0.444201,-0.26996 0.311824,-0.08925 -0.04112,0.04712 -0.07855,0.09709 -0.115792,0.147318 -0.03324,0.05874 -0.07549,0.109396 -0.121794,0.158023 -0.04476,0.04945 -0.09463,0.09277 -0.137585,0.143923 -0.0499,0.05445 -0.106149,0.102252 -0.164201,0.147674 -0.06028,0.04792 -0.124346,0.09066 -0.185928,0.136887 -0.06216,0.04573 -0.129117,0.08477 -0.195438,0.124154 -0.112321,0.06388 -0.224178,0.128589 -0.336964,0.191648 -0.04709,0.02633 -0.02445,0.0082 -0.07188,0.03143 -0.01127,0.0055 -0.0434,0.02524 -0.03251,0.019 0.466453,-0.267414 0.24976,-0.143653 -0.07067,0.03814 -0.04393,0.02742 -0.09439,0.04186 -0.140576,0.06427 -0.02141,0.01039 -0.04122,0.02383 -0.06207,0.03531 -0.05838,0.03782 -0.128275,0.05022 -0.188433,0.08353 -0.05783,0.02194 -0.11434,0.05045 -0.174289,0.06603 -0.04852,0.01 -0.086,0.01471 -0.100536,-0.04002 0.0017,-0.04355 0.02951,-0.08014 0.05213,-0.115809 0.03056,-0.05473 0.06061,-0.109365 0.0994,-0.15875 0.04519,-0.05472 0.09335,-0.106249 0.147541,-0.15206 0.05522,-0.04543 0.108445,-0.09273 0.159259,-0.143027 0.0555,-0.04427 0.106653,-0.09382 0.162772,-0.137328 0.05829,-0.04793 0.120061,-0.09099 0.181475,-0.134683 0.142637,-0.111408 0.308236,-0.189213 0.468358,-0.272506 0.01,-0.0045 0.02022,-0.0085 0.02993,-0.01362 0.02112,-0.01107 0.08302,-0.04697 0.06237,-0.03505 -0.585304,0.337939 -0.116143,0.06469 0.08442,-0.05011 0.0094,-0.0045 0.01843,-0.0097 0.02808,-0.01359 0.06028,-0.02417 0.0028,0.0062 0.05661,-0.02626 0.0084,-0.0051 0.03389,-0.01954 0.02541,-0.01467 -0.28503,0.163745 -0.370407,0.21629 -0.255125,0.145743 0.987124,-0.552944 0.15868,-0.123865 0.359831,-0.193374 0.03154,-0.0109 0.04937,-0.02063 0.08354,-0.02247 0.04466,0.0297 0.017,0.08168 -4.48e-4,0.119282 -0.03314,0.04419 -0.06306,0.09059 -0.0894,0.139161 -0.0286,0.06127 -0.06792,0.117038 -0.10539,0.173184 -0.04792,0.07279 -0.10708,0.136415 -0.165468,0.200657 -0.05109,0.06439 -0.103023,0.127661 -0.162299,0.184688 -0.05835,0.0525 -0.116172,0.105531 -0.176113,0.156228 -0.05812,0.04905 -0.114119,0.100491 -0.169126,0.152983 -0.06161,0.05034 -0.125884,0.09764 -0.189654,0.145335 -0.06349,0.0484 -0.127884,0.09567 -0.191198,0.144323 -0.05221,0.04179 -0.103343,0.08487 -0.154511,0.12792 -0.01038,-0.0027 -0.05476,0.05421 -0.05995,0.05635 -0.337949,0.139028 -0.39267,0.218389 -0.31139,0.109588 0.03666,-0.0466 0.07456,-0.0916 0.116575,-0.13352 0.04305,-0.04934 0.08576,-0.09895 0.130165,-0.147087 0.04916,-0.05073 0.09783,-0.101305 0.151519,-0.147298 0.03954,-0.04068 0.08324,-0.07547 0.128943,-0.10886 0.04342,-0.03707 0.08486,-0.07547 0.132945,-0.106745 0.155054,-0.103544 0.311968,-0.210174 0.484126,-0.282041 0.0396,-0.01166 0.07431,-0.03536 0.110429,-0.05506 0.0061,-0.0033 0.01103,-0.0094 0.01783,-0.01104 0.0056,-0.0013 0.01128,0.0018 0.01692,0.0027 0.03322,0.02777 0.03401,0.06664 0.0055,0.09747 -0.03635,0.03131 -0.0723,0.06317 -0.104717,0.09888 -0.04479,0.0534 -0.09908,0.09829 -0.152052,0.14337 -0.145699,0.104435 -0.299545,0.20475 -0.470168,0.261208 -0.06159,0.01803 -0.116806,0.0524 -0.178446,0.07149 -0.06194,0.01436 -0.123393,0.02963 -0.186428,0.03864 -0.06091,0.02578 -0.124479,0.04036 -0.189741,0.04929 -0.04815,0.0033 -0.0871,0.03201 -0.11619,-0.01984 -0.0099,-0.0475 0.03124,-0.08902 0.05677,-0.125397 0.04099,-0.05745 0.09731,-0.100002 0.153941,-0.140805 0.01124,-0.0076 0.05074,-0.03476 0.06196,-0.04132 1.065804,-0.616584 -0.06924,0.04046 0.06593,-0.0391 0.313375,-0.184434 0.221994,-0.140018 0.368798,-0.209609 0.03383,-0.01836 0.07144,-0.02922 0.105904,-0.04598 0.0339,-0.01648 0.0641,-0.03644 0.09914,-0.05105 0.06133,-0.0305 0.128143,-0.04669 0.192652,-0.06902 0.03972,-0.01829 0.08441,-0.01817 0.125833,-0.02846 0.02131,-0.0053 0.04132,-0.01487 0.06224,-0.02153 0.06274,-0.03026 0.131823,-0.03978 0.198726,-0.05596 0.06262,-0.01599 0.127113,-0.02099 0.191462,-0.02353 0.05714,-0.0032 0.0999,0.0021 0.107309,0.06567 -0.02183,0.04574 -0.06276,0.07962 -0.102866,0.109315 -0.135788,0.12298 -0.295362,0.195079 -0.456951,0.28777 -0.11938,0.05961 -0.07161,0.03647 0.241274,-0.140393 0.01127,-0.0064 -0.0219,0.0138 -0.03288,0.02064 -0.03464,0.02157 -0.06987,0.04207 -0.104525,0.06362 -0.17363,0.113548 -0.353762,0.216811 -0.542341,0.302765 0.02145,-0.018 -0.106249,0.0563 -0.08015,0.04136 0.08723,-0.04992 0.348241,-0.200842 0.261743,-0.149665 -0.112811,0.06675 -0.227105,0.130954 -0.34069,0.196374 -0.01263,0.0073 -0.05061,0.02895 -0.03796,0.02171 0.08762,-0.05008 0.175233,-0.100166 0.262849,-0.150248 -0.0223,0.01403 -0.0508,0.03224 -0.07358,0.04545 -0.554124,0.321261 -0.356411,0.203934 -0.07995,0.04711 0.01336,-0.0076 -0.02612,0.01615 -0.0394,0.02386 -0.113547,0.0659 -0.227381,0.131294 -0.341071,0.196941 -0.0138,0.0075 -0.02729,0.01556 -0.04139,0.02244 -0.04124,0.02015 -0.04583,0.01817 -0.08762,0.03748 -0.04549,0.02102 -0.0893,0.046 -0.134305,0.06808 -0.08354,0.03859 -0.165187,0.08057 -0.248006,0.120684 -0.07962,0.03372 -0.15448,0.07735 -0.233499,0.112945 -0.03476,0.02092 -0.07544,0.02657 -0.112774,0.04038 -0.03373,0.01248 -0.06701,0.03056 -0.09959,0.04582 -0.06215,0.02573 -0.127802,0.04459 -0.193874,0.0574 -0.01431,0.0022 -0.04316,0.0064 -0.05847,0.0093 -0.0077,0.0015 -0.02875,0.0121 -0.02233,0.0076 0.304251,-0.214339 0.183763,-0.174144 0.316128,-0.216396 0.05953,-0.0078 0.110377,-0.0374 0.16285,-0.06435 0.06918,-0.02723 0.139749,-0.05052 0.211065,-0.07154 0.01171,-0.0029 0.02375,-0.0048 0.03514,-0.0088 0.01085,-0.0038 0.02085,-0.0098 0.03127,-0.01463 0.01108,-0.0044 0.02198,-0.0093 0.03323,-0.0132 0.03471,-0.01211 0.06989,-0.02347 0.104802,-0.03508 0.03414,-0.01042 0.07054,-0.01638 0.10422,-0.0282 0.03403,-0.01195 0.06581,-0.02971 0.100105,-0.04162 0.06719,-0.02918 0.141172,-0.0418 0.207071,-0.07315 0.06626,-0.03099 0.135252,-0.05423 0.205329,-0.07503 0.03541,-0.0096 0.07301,-0.01502 0.107873,-0.02658 0.03468,-0.01149 0.06739,-0.02921 0.102185,-0.04103 0.06518,-0.01745 0.13033,-0.03547 0.197292,-0.04461 0.06004,-0.0061 0.11951,-0.0067 0.178789,-0.0181 0.02647,-0.0024 0.0867,-0.02291 0.104741,0.0091 0.0046,0.0082 0.0058,0.01801 0.0088,0.02701 -0.0089,0.05241 -0.04906,0.08487 -0.08834,0.116013 -0.04223,0.03502 -0.08196,0.07294 -0.125525,0.106435 -0.05053,0.03073 -0.0969,0.0673 -0.143645,0.10333 -0.154248,0.112741 -0.326294,0.196988 -0.490637,0.293773 0.561382,-0.32397 0.119034,-0.06817 -0.07364,0.04048 -0.0498,0.02808 -0.103375,0.04757 -0.152503,0.07683 0.08834,-0.05075 0.354111,-0.201667 0.265021,-0.152245 -0.114084,0.06329 -0.226485,0.129563 -0.340012,0.193845 -0.190262,0.107733 0.382078,-0.225263 0.186603,-0.106792 -0.01269,0.0077 -0.02547,0.01526 -0.0382,0.02289 -0.185112,0.08809 -0.353066,0.213979 -0.540215,0.299342 -0.08494,0.03666 -0.167913,0.07754 -0.252015,0.116252 -0.07951,0.0375 -0.16023,0.07184 -0.242048,0.104223 -0.08279,0.02343 -0.163917,0.05155 -0.245607,0.07887 -0.07124,0.02037 -0.142277,0.04119 -0.215512,0.05314 -0.05869,0.0029 -0.115176,0.01846 -0.173078,0.02707 -0.0095,0.0044 -0.09878,0.04282 -0.101616,0.0393 -0.0089,-0.01112 -0.01268,-0.02555 -0.01901,-0.03833 0.0021,-0.0057 0.0028,-0.01216 0.0064,-0.01702 0.01185,-0.01587 0.04292,-0.03442 0.05948,-0.04378 0.312868,-0.176915 0.222427,-0.1333 0.368892,-0.20242 0.06279,-0.03044 0.124279,-0.06161 0.191133,-0.08254 0.04159,-0.01529 0.08698,-0.02025 0.12888,-0.03391 0.02135,-0.007 0.04127,-0.01774 0.06228,-0.02566 0.04015,-0.02076 0.08358,-0.03503 0.124123,-0.05461 0.01043,-0.005 0.01994,-0.01178 0.0299,-0.01767 0.01107,-0.0053 0.02215,-0.0105 0.03322,-0.01575 0.06721,-0.03215 0.134957,-0.06258 0.201682,-0.09585 0.06035,-0.02869 0.125308,-0.04438 0.189011,-0.06331 0.06277,-0.01547 0.12489,-0.03318 0.188666,-0.04418 0.01053,-0.0011 0.02132,-8.43e-4 0.0316,-0.0034 0.0011,-2.68e-4 0.05052,-0.02154 0.05206,-0.02216 0.02622,-0.01055 0.05343,-0.01652 0.08009,-0.02589 0.02604,-0.0043 0.05881,-0.01992 0.07121,0.01436 0.0074,0.02043 0.0033,0.02265 -0.0038,0.03967 -0.0889,0.108202 -0.317157,0.19941 -0.382472,0.238029 -0.09171,0.05423 0.184531,-0.106563 0.277429,-0.158727 0.01023,-0.0057 -0.01957,0.01295 -0.02936,0.01943 -0.06211,0.04238 -0.12443,0.08441 -0.186811,0.126398 -0.92165,0.532161 -0.03978,0.02496 -0.06012,0.03669 -0.110456,0.06368 -0.221672,0.126049 -0.331624,0.190597 -0.09095,0.05339 0.182812,-0.105223 0.274618,-0.157131 0.0094,-0.0053 -0.01824,0.01167 -0.02744,0.01738 -0.0098,0.0061 -0.01978,0.01203 -0.02967,0.01805 -0.190019,0.228128 -0.251858,0.143443 -0.410115,0.213505 -0.03465,0.01534 -0.0661,0.03561 -0.101373,0.05012 -0.06226,0.03148 -0.128662,0.05211 -0.194681,0.07373 -0.01083,0.0031 -0.02203,0.0052 -0.0325,0.0093 -0.02051,0.0082 -0.03877,0.0213 -0.05904,0.03005 -0.03045,0.01315 -0.06197,0.02508 -0.09296,0.03697 -0.02779,0.0035 -0.112235,0.04229 -0.135951,0.03519 -0.005,-0.0015 -0.0078,-0.0068 -0.01172,-0.01015 -0.0041,-0.01055 -0.01165,-0.02035 -0.01217,-0.03164 -2.76e-4,-0.006 0.0048,-0.01201 0.01004,-0.0151 0.106806,-0.06352 0.215152,-0.124474 0.324357,-0.183773 0.09543,-0.05182 -0.188453,0.10794 -0.283013,0.161323 -0.0095,0.0053 0.01844,-0.01148 0.02769,-0.01718 0.0097,-0.006 0.01938,-0.01189 0.02907,-0.01784 0.1505,-0.102844 0.308726,-0.189243 0.46726,-0.280792 0.06151,-0.02694 0.120513,-0.05798 0.179629,-0.08983 0.129904,-0.05787 0.415189,-0.226147 -0.11907,0.07829 0.01256,-0.0082 0.04489,-0.02971 0.05793,-0.03733 0.110073,-0.0643 0.221744,-0.125893 0.330827,-0.191861 0.08954,-0.05415 -0.362962,0.208424 -0.272179,0.156393 0.112,-0.06419 0.223742,-0.12883 0.335827,-0.192872 0.01113,-0.0064 0.02253,-0.01221 0.0338,-0.01832 -0.666864,0.383445 -0.0053,0.003 0.06429,-0.03661 0.04714,-0.0268 0.01772,-0.0074 0.06541,-0.03119 0.01129,-0.0056 0.02205,-0.01228 0.03307,-0.01841 -0.09058,0.05162 -0.181155,0.103247 -0.271733,0.15487 0.132979,-0.08795 0.03671,-0.02511 0.360132,-0.209838 0.0096,-0.0055 0.01947,-0.01047 0.02945,-0.01521 0.0096,-0.0046 0.03844,-0.01807 0.02927,-0.01269 -0.09143,0.05362 -0.367755,0.21096 -0.276225,0.157512 0.110416,-0.06448 0.221922,-0.127064 0.332883,-0.190597 -0.02184,0.0096 0.07916,-0.04295 0.0597,-0.03161 -0.09225,0.05374 -0.371112,0.21133 -0.277941,0.159192 0.110573,-0.06188 0.219369,-0.126901 0.330147,-0.188407 0.0085,-0.0047 0.01828,-0.0067 0.02742,-0.01011 0.0083,-0.0052 0.01669,-0.01043 0.02504,-0.01565 0.05793,-0.03021 0.117445,-0.05646 0.176812,-0.08352 0.0064,0.0053 0.06541,-0.03346 0.06706,-0.03249 0.01038,0.0061 0.02989,0.02223 0.0205,0.02978 -0.132457,0.106464 -0.661983,0.405646 -0.01172,0.02957 -0.57896,0.337779 -0.284169,0.164944 -0.03437,0.02231 0.0064,-0.0037 -0.01247,0.008 -0.0187,0.01198 -0.0071,0.0045 -0.01423,0.0089 -0.02116,0.01367 -0.06626,0.04545 0.02053,-0.01176 -0.04999,0.03426 -0.110924,0.06355 -0.221909,0.127 -0.332773,0.190658 -0.0093,0.0053 -0.01824,0.01113 -0.02761,0.01627 -0.166328,0.09133 0.388643,-0.230176 0.223124,-0.127203 -0.0094,0.0059 -0.019,0.01152 -0.0285,0.01728 -0.172023,-0.02897 -0.234932,0.145484 -0.35861,0.206602 -0.06307,0.03117 0.0021,-0.0048 -0.06151,0.02302 -0.0099,0.0043 -0.01898,0.01046 -0.02847,0.01569 -0.01056,0.0046 -0.02113,0.0092 -0.03169,0.01376 0.02163,-0.01015 -0.07316,0.04086 -0.05502,0.03037 0.637323,-0.368237 0.06067,-0.02025 -0.09106,0.04916 -0.0084,0.0031 -0.03312,0.01397 -0.02534,0.0094 0.668155,-0.390948 -0.0021,0.02704 -0.124043,0.07035 -0.03189,0.01212 -0.08467,0.05016 -0.119032,0.03573 -0.03341,-0.0508 -0.0013,-0.06515 0.03666,-0.09649 0.05012,-0.03599 0.100311,-0.07174 0.150617,-0.107447 0.127146,-0.07725 0.257113,-0.149744 0.387107,-0.222077 0.09162,-0.05098 -0.181909,0.104334 -0.273033,0.156204 -0.01979,0.01127 0.03909,-0.02339 0.05856,-0.03521 0.111194,-0.06362 0.222512,-0.127029 0.333581,-0.190869 0.0093,-0.0054 0.01825,-0.01143 0.02762,-0.01674 0.169858,-0.09624 -0.414836,0.25261 -0.211794,0.119263 0.148725,-0.09959 0.296549,-0.209627 0.467199,-0.26639 0.04693,-0.0362 0.103208,-0.0543 0.155806,-0.07938 0.02358,-0.01505 0.05224,-0.01522 0.07775,-0.02355 0.02725,-0.0089 0.05371,-0.02403 0.08088,-0.03392 0.0082,-0.0068 0.08698,-0.04113 0.09005,-0.03657 0.0075,0.01119 0.01189,0.02421 0.01783,0.03632 -0.0072,0.03943 -0.04384,0.06725 -0.07561,0.08835 -0.04846,0.03157 -0.09507,0.06591 -0.141626,0.100217 -0.135061,0.117213 -0.29558,0.188782 -0.452421,0.27809 0.093,-0.05292 0.185536,-0.10667 0.27901,-0.158751 0.0089,-0.005 -0.01671,0.01161 -0.02515,0.01731 -0.0069,0.0047 -0.04368,0.0291 -0.0512,0.03346 -0.110316,0.06396 -0.220543,0.128087 -0.331639,0.190681 -0.0095,0.0053 -0.01991,0.0087 -0.02987,0.013 -0.0099,0.0034 -0.02011,0.0063 -0.02982,0.01035 -0.04731,0.01967 -0.0021,0.0063 -0.05185,0.02193 -0.02941,0.0093 -0.04866,0.0096 -0.07533,0.02625 -0.03874,0.02248 -0.07378,0.0412 -0.07854,-0.02223 0.01527,-0.04799 0.06473,-0.07726 0.101803,-0.108317 0.04288,-0.0403 0.08797,-0.07744 0.137688,-0.108905 0.05088,-0.04081 0.101926,-0.08214 0.148808,-0.127613 0.04462,-0.04745 0.100419,-0.08301 0.15462,-0.118581 0.125425,-0.0791 0.258202,-0.146283 0.384337,-0.223923 0.09119,-0.05613 -0.185427,0.107177 -0.27905,0.159148 -0.01626,0.009 0.02975,-0.02233 0.04449,-0.03366 0.04409,-0.03411 0.08932,-0.06671 0.135622,-0.09775 0.110403,-0.06363 0.220805,-0.127258 0.331207,-0.190888 0.0094,-0.0052 0.0377,-0.02103 0.02834,-0.01566 -0.09254,0.05318 -0.184936,0.106634 -0.277902,0.159073 0.01577,-0.01003 0.03063,-0.02137 0.04716,-0.03013 0.0072,0.01231 0.0199,0.03355 0.02239,0.04321 0.0017,0.0066 -0.05184,0.02344 -0.05586,0.0244 -0.04555,0.02154 -0.09334,0.03819 -0.142365,0.04976 -0.04526,0.0266 -0.09214,0.05189 -0.1415,0.07019 -0.04859,0.014 -0.09497,0.0305 -0.145752,0.03571 -0.03194,0.01489 -0.06418,-0.03647 -0.09071,-0.02594 -0.0033,6.58e-4 -0.0069,3.24e-4 -0.0098,0.002 -0.01071,0.0061 -0.02094,0.01656 -0.03213,0.02302 -0.08974,0.05182 0.179172,-0.104172 0.269145,-0.155585 -0.0068,0.0048 -0.01313,0.01028 -0.02031,0.01448 -0.10896,0.0638 -0.21946,0.124956 -0.328002,0.189461 -0.09272,0.0551 0.374606,-0.21396 0.280517,-0.161241 -0.109661,0.06144 -0.217569,0.125982 -0.327234,0.187417 -0.01485,0.0083 -0.03149,0.01297 -0.04681,0.0204 -0.05024,0.01741 -0.102743,0.02979 -0.151634,0.05055 0.0085,-0.0155 -0.05739,0.03147 -0.04313,0.02344 0.09431,-0.05314 0.37774,-0.211467 0.281359,-0.162182 -0.12598,0.06442 -0.247948,0.148892 -0.376938,0.212436 -0.0949,0.06057 -0.326377,0.207981 0.27793,-0.160402 0.0037,-0.0022 -0.0127,-0.0031 -0.01027,-0.01966 3.76e-4,-0.0026 0.005,-0.0016 0.0073,-0.0028 0.0033,-0.0017 0.0063,-0.0039 0.0094,-0.0058 0.0046,-0.0014 0.0095,-0.002 0.01365,-0.0043 0.02428,-0.01331 -0.0019,-0.0069 0.02622,-0.01723 0.02115,-0.0078 0.04204,-0.0093 0.06294,-0.01854 0.04648,-0.0192 0.09735,-0.0213 0.146936,-0.02414 0.04747,-0.01245 0.07963,-0.02943 0.119292,0.0081 0.0262,0.03786 0.01021,0.07908 2.29e-4,0.119601 -0.01409,0.05085 -0.04617,0.09192 -0.08017,0.130959 -0.03267,0.03434 -0.0632,0.07049 -0.09479,0.105796 -0.03048,0.04448 -0.06851,0.07997 -0.110071,0.113814 -0.0407,0.03804 -0.0819,0.07473 -0.127108,0.107492 -0.02461,0.01729 -0.06794,0.0673 -0.05775,-0.01188 0.0043,-0.0017 0.01674,-0.0074 0.01277,-0.0051 -0.09723,0.05628 -0.194927,0.11174 -0.292669,0.16712 -0.0052,0.0029 0.0098,-0.0068 0.01502,-0.0098 0.107311,-0.06165 0.21496,-0.122713 0.32244,-0.184069 0,0 -0.278402,0.222558 -0.278402,0.222558 l 0,0 c 0.624041,-0.361714 0.110663,-0.06322 -0.0589,0.03276 -0.06074,-0.01627 -0.02918,-0.06269 0.0076,-0.07991 0.043,-0.03502 0.09397,-0.06147 0.126702,-0.107956 0.04314,-0.02918 0.0878,-0.06041 0.112118,-0.107845 0.0169,-0.01711 0.03041,-0.03412 0.04545,-0.05268 0.05776,-0.07127 -0.02346,0.03268 0.03535,-0.03363 0.0054,-0.0061 0.009,-0.01367 0.01349,-0.02051 0.03681,-0.03175 0.06549,-0.07026 0.08875,-0.112904 0.0057,-0.02734 0.01771,-0.05564 0.01794,-0.08303 -0.03246,-0.01194 -0.06946,0.01606 -0.103039,0.01211 -0.0487,0.0046 -0.0965,0.0125 -0.141679,0.03227 -0.0371,0.01072 -0.0708,0.03091 -0.109555,0.03374 -0.01064,-0.0023 -0.0233,-0.0034 -0.03176,-0.01161 -0.01376,-0.01337 -0.02386,-0.03585 -0.019,-0.03903 0.101777,-0.06659 0.208805,-0.124794 0.313502,-0.186696 0.0056,-0.0033 0.01155,-0.0059 0.01733,-0.0089 0.02427,-0.01297 0.06186,-0.03315 0.0473,-0.02457 -0.09267,0.05462 -0.372305,0.215697 -0.278907,0.162331 0.122628,-0.07007 0.238705,-0.160041 0.373155,-0.208122 0.05049,-0.0157 0.100797,-0.03287 0.149659,-0.05295 0.01533,-0.0069 0.06006,-0.03031 0.04553,-0.02181 -0.0934,0.05464 -0.375438,0.215382 -0.28096,0.162625 0.109999,-0.06142 0.215855,-0.1303 0.327527,-0.188629 0.09561,-0.04994 -0.185841,0.109571 -0.279296,0.163436 -0.0071,0.0041 0.01343,-0.0094 0.02014,-0.01406 0.107723,-0.06339 0.215345,-0.126948 0.323167,-0.190167 0.013,-0.0076 0.0301,-0.01754 0.04546,-0.01951 0.0056,-7.14e-4 0.02117,0.0016 0.02697,0.0023 0.02864,0.01152 0.04903,0.02955 0.08293,0.01998 0.04815,-0.0098 0.09453,-0.02604 0.140646,-0.04281 0.04771,-0.02247 0.09403,-0.0487 0.143844,-0.06609 0.04815,-0.01487 0.09469,-0.03406 0.141591,-0.05235 0.04296,-0.02038 0.06767,-0.05415 0.08578,0.02015 -0.01459,0.01235 -0.03356,0.0222 -0.04996,0.03189 -0.109147,0.06449 -0.218534,0.12857 -0.328012,0.192495 -0.0093,0.0054 -0.03774,0.02109 -0.02841,0.01562 0.09143,-0.05355 0.183159,-0.106603 0.274738,-0.159904 -0.04752,0.02894 -0.09106,0.06233 -0.136343,0.09415 -0.115764,0.09484 -0.225099,0.132681 -0.370882,0.229139 -0.08898,0.05887 0.183946,-0.108159 0.276584,-0.161086 0.01879,-0.01074 -0.07496,0.05068 -0.05537,0.03393 -0.02901,0.0187 -0.05602,0.03787 -0.08386,0.05795 -0.01625,0.01172 -0.03542,0.01913 -0.05123,0.03144 -0.0082,0.0064 -0.01489,0.01438 -0.02234,0.02157 -0.04457,0.04976 -0.09841,0.08758 -0.145646,0.134396 -0.08791,0.0635 0.03306,-0.02177 -0.05075,0.03098 -0.03246,0.02043 -0.05737,0.05064 -0.08893,0.07217 -0.03123,0.0343 -0.07065,0.06002 -0.106748,0.08904 -0.0099,0.0011 -0.02549,-0.01396 -0.01589,-0.0212 0.01388,-0.01048 0.03619,-0.01197 0.0498,-0.02316 0.05306,-0.01656 0.105553,-0.03392 0.155747,-0.05826 0.123359,-0.06352 0.03084,-0.01648 -0.246366,0.144711 -0.0086,0.005 0.01763,-0.0095 0.02612,-0.01474 0.05791,-0.03599 -0.0064,6.65e-4 0.05115,-0.03348 0.108993,-0.06463 0.218258,-0.128803 0.327387,-0.193204 -0.09201,0.0534 -0.184037,0.106759 -0.276014,0.160209 -0.0092,0.0054 0.01847,-0.01079 0.02782,-0.01598 0.03456,-0.01916 0.07011,-0.03762 0.09393,-0.07044 0.04789,-0.03225 0.09254,-0.06939 0.140882,-0.1004 0.0066,-0.0047 0.01329,-0.0094 0.01993,-0.01412 0.0069,-0.0032 0.0143,-0.0056 0.02072,-0.0097 0.0098,-0.0063 0.01872,-0.0142 0.02648,-0.02292 0.0033,-0.0037 0.0041,-0.0094 0.008,-0.01242 0.0026,-0.002 0.0064,-7.18e-4 0.0096,-0.0011 0.0065,0.0081 0.01409,0.01544 0.01959,0.02426 7.08e-4,0.0011 -0.0027,3.6e-4 -0.0039,8.74e-4 -0.0043,0.0018 -0.0083,0.0041 -0.01258,0.006 -0.02271,0.01015 -0.04534,0.02051 -0.06841,0.02982 -0.0522,0.02079 -0.106005,0.03643 -0.157443,0.05905 -0.05412,0.02254 -0.103815,0.05296 -0.156832,0.07769 -0.111147,0.04821 -0.279323,0.153825 0.218422,-0.132547 0.01809,-0.01041 -0.03484,0.02301 -0.05224,0.03453 -0.008,0.0053 -0.01611,0.01021 -0.02416,0.01532 -0.109135,0.08428 -0.2808,0.168838 -0.368071,0.219654 -0.01771,0.01031 -0.07145,0.04013 -0.05378,0.02976 0.0906,-0.05318 0.181526,-0.105798 0.27229,-0.158697 -0.193936,0.124659 -0.722369,0.417919 -0.118068,0.06873 0.01817,-0.0105 -0.07056,0.04402 -0.05403,0.03229 -0.02937,0.01569 -0.04879,0.03621 -0.07554,0.0551 -0.02423,0.01711 -0.05385,0.02739 -0.07536,0.04883 -0.01241,0.0086 -0.02253,0.02043 -0.03534,0.02848 -0.0041,0.0025 -0.0098,0.0012 -0.01386,0.0038 -0.0029,0.0018 -0.0024,0.0082 -0.0057,0.0084 -0.0064,2.76e-4 -0.01863,-0.01895 -0.02023,-0.02111 0.01546,-0.01728 0.08506,-0.0301 0.105625,-0.04637 0.123496,-0.05759 0.0533,-0.02593 -0.24692,0.147658 -0.01552,0.009 0.02898,-0.02121 0.04446,-0.03025 0.314979,-0.183823 0.213568,-0.137899 0.35152,-0.198988 0.121927,-0.05722 0.04073,-0.01999 -0.257545,0.152903 -0.0071,0.0041 0.01378,-0.0089 0.02085,-0.01303 0.125721,-0.07356 0.250043,-0.15439 0.381955,-0.21835 0.127991,-0.06032 0.415577,-0.198067 -0.12712,0.08861 0.126172,-0.07781 0.25991,-0.153146 0.385037,-0.22619 0.01778,-0.01038 0.072,-0.03995 0.05426,-0.02951 -0.09098,0.05359 -0.182348,0.106494 -0.273522,0.15974 0.01653,-0.01072 0.03431,-0.01957 0.05018,-0.03124 0.0069,-0.0051 0.01214,-0.01232 0.01908,-0.01742 0.0059,-0.0043 0.01279,-0.0069 0.01908,-0.01059 0.251496,-0.146492 0.578628,-0.338613 0.03423,-0.01929 0.703996,-0.416321 0.145007,-0.09258 0.02514,0.0046 -0.0089,0.0072 0.01837,0.01653 0.02029,0.02786 2.49e-4,0.0015 -0.06669,0.02371 -0.06682,0.02822 -0.05966,0.02628 -0.117819,0.05576 -0.175537,0.08604 -0.0091,0.0043 -0.01829,0.0086 -0.02742,0.01297 -0.0085,0.004 -0.03368,0.017 -0.02556,0.01219 0.09203,-0.05443 0.370835,-0.213032 0.277362,-0.16112 -0.130417,0.07243 -0.256703,0.151941 -0.388386,0.221989 0.554427,-0.321607 0.158375,-0.09128 -0.05825,0.03167 -0.107192,0.06084 -0.274588,0.151648 0.216194,-0.130245 0.0099,-0.0057 -0.01892,0.01261 -0.02837,0.01892 -0.110977,0.06498 -0.221575,0.130622 -0.332933,0.194952 -0.0064,0.0037 -0.05812,0.02881 -0.06604,0.0329 -0.01089,0.0056 -0.04297,0.02361 -0.03238,0.01742 0.130615,-0.0764 0.673145,-0.388804 -0.06408,0.03615 -0.01129,0.0061 -0.04494,0.02488 -0.03387,0.01837 0.08945,-0.05261 0.358301,-0.209554 0.269016,-0.156672 -1.06759,0.632322 0.220712,-0.137261 -0.116878,0.07137 -0.161661,0.09533 -0.317675,0.192636 -0.486043,0.273195 -0.05877,0.03222 -0.120527,0.05797 -0.179438,0.08985 0.526605,-0.307441 0.251909,-0.152597 0.138625,-0.06845 -0.129789,0.07305 -0.244514,0.147482 -0.383022,0.222362 -0.0975,0.05271 0.192965,-0.109173 0.287564,-0.166924 0.0041,-0.0025 -0.01056,0.003 -0.01451,2.29e-4 -0.0079,-0.0056 -0.01188,-0.01535 -0.01782,-0.02303 -3.92e-4,-0.0019 -0.0027,-0.0045 -0.0012,-0.0056 0.01007,-0.0068 0.02379,-0.0051 0.03543,-0.0086 0.0314,-0.0094 0.06249,-0.02009 0.09336,-0.0311 0.06165,-0.02542 0.121597,-0.05541 0.185633,-0.07442 0.06561,-0.02143 0.129707,-0.04667 0.192121,-0.07624 0.129713,-0.06157 0.453138,-0.195721 -0.09575,0.08307 0.129707,-0.07519 0.260261,-0.151887 0.388598,-0.227595 0.09112,-0.05375 -0.36517,0.213809 -0.274262,0.159704 0.0879,-0.05231 0.711635,-0.414875 0.06114,-0.0365 0.06324,-0.04035 0.123851,-0.08437 0.186374,-0.125723 0.139772,-0.09614 -0.05236,0.03499 0.357781,-0.212276 0.09203,-0.05548 -0.185709,0.108189 -0.278647,0.162141 -0.01429,0.0083 0.02968,-0.01471 0.04346,-0.02383 0.005,-0.0033 0.0089,-0.0082 0.01331,-0.01223 0.0034,-0.0023 0.0062,-0.0063 0.01031,-0.0069 0.0063,-8.24e-4 0.0184,0.01019 0.01843,0.01557 7e-6,0.0012 -0.04801,0.01007 -0.04843,0.0132 -0.05521,0.01722 -0.10831,0.04188 -0.166478,0.04767 -0.06265,0.01302 -0.12447,0.02983 -0.186203,0.04659 -0.0631,0.01806 -0.125928,0.03791 -0.184562,0.0679 -0.06662,0.03339 -0.135762,0.06127 -0.201874,0.09572 -0.06179,0.03152 -0.12524,0.05971 -0.189626,0.08553 -0.06275,0.0236 -0.128311,0.03762 -0.191845,0.05899 -0.06446,0.02484 -0.125729,0.05585 -0.188438,0.08469 -0.13454,0.06014 -0.02989,0.01492 0.238784,-0.144805 0.008,-0.0048 -0.01712,0.0076 -0.02505,0.01248 -0.01598,0.0099 -0.02613,0.02884 -0.04695,0.02417 -0.0075,-0.0095 -0.01739,-0.01763 -0.02252,-0.02864 -0.0012,-0.0025 0.0054,-0.0016 0.008,-0.0026 0.005,-0.002 0.0099,-0.0044 0.01491,-0.0064 0.02576,-0.01036 0.05191,-0.02025 0.07935,-0.02514 0.05702,-0.0101 0.113968,-0.01971 0.171477,-0.02668 0.07158,-0.01438 0.141877,-0.03487 0.211611,-0.05633 0.08144,-0.02647 0.162794,-0.05326 0.243992,-0.0803 0.08139,-0.03256 0.160865,-0.06912 0.240589,-0.105511 0.08379,-0.03891 0.167299,-0.07834 0.251414,-0.116499 0.126826,-0.06453 0.470474,-0.259658 -0.06348,0.04633 0.05231,-0.02979 0.02623,-0.01419 0.07818,-0.04687 0.11299,-0.06601 0.226243,-0.13158 0.339737,-0.196723 0.301336,-0.172959 -1.016914,0.59457 0.111922,-0.0619 0.03816,-0.01944 0.07698,-0.03736 0.115101,-0.05687 0.01261,-0.0065 0.04986,-0.02684 0.03767,-0.01964 -0.09664,0.05708 -0.712549,0.412303 0.07331,-0.04143 0.125299,-0.06945 0.05139,-0.0288 -0.235305,0.137952 -0.01085,0.0063 0.02177,-0.01248 0.03248,-0.01903 0.03079,-0.01881 0.05909,-0.04081 0.08892,-0.06104 0.05056,-0.03041 0.09074,-0.07637 0.143766,-0.102754 0.04584,-0.02977 0.08812,-0.06597 0.12512,-0.106117 0.03707,-0.02374 0.07594,-0.04876 0.09754,-0.08834 0.0038,0.0028 0.0083,0.0047 0.01132,0.0084 0.0033,0.004 -0.01045,5.72e-4 -0.01567,7.95e-4 -0.02425,10e-4 -0.04794,0.0064 -0.07186,0.01 -0.05911,0.0083 -0.119094,0.007 -0.178003,0.01735 -0.06519,0.01234 -0.129859,0.02854 -0.192823,0.0495 -0.06912,0.02662 -0.138724,0.04998 -0.211129,0.0663 -0.0693,0.0223 -0.137011,0.04805 -0.203551,0.07763 -0.06918,0.02409 -0.139323,0.0455 -0.207632,0.07215 -0.06721,0.02681 -0.134852,0.05096 -0.205045,0.06905 -0.06827,0.02364 -0.13533,0.05082 -0.204808,0.07062 -0.07037,0.02215 -0.141075,0.04472 -0.207763,0.07658 -0.05485,0.02697 -0.110887,0.05101 -0.172667,0.05598 -0.136975,-0.006 -0.03384,0.0031 0.253708,-0.215258 0.0019,-0.0014 0.0047,3.03e-4 0.0071,8.5e-5 0.0063,-5.88e-4 0.03817,-0.0057 0.0402,-0.0061 0.01055,-0.0019 0.02105,-0.0041 0.03157,-0.0062 0.06439,-0.01624 0.128852,-0.0339 0.188847,-0.06293 0.06975,-0.03128 0.142448,-0.05401 0.211856,-0.08597 0.07785,-0.03701 0.153213,-0.07897 0.232524,-0.112831 0.08278,-0.03949 0.163882,-0.0823 0.247227,-0.120615 0.08729,-0.04377 0.176666,-0.08316 0.26235,-0.129922 -0.08696,0.05035 -0.173862,0.100805 -0.260891,0.151039 -0.01335,0.0077 0.02654,-0.01568 0.03985,-0.02345 0.113831,-0.0665 0.228483,-0.131618 0.341568,-0.199383 0.08673,-0.05197 -0.174964,0.101411 -0.262509,0.152007 -0.025,0.01445 0.09995,-0.05798 0.07426,-0.04459 0.113092,-0.06631 0.226079,-0.132792 0.339276,-0.198919 0.0125,-0.0073 0.05034,-0.02867 0.03783,-0.02137 -0.08703,0.05078 -0.348459,0.202537 -0.261389,0.151826 0.113467,-0.06608 0.226672,-0.132623 0.340578,-0.197947 0.02489,-0.01428 0.05584,-0.02779 0.08196,-0.03977 0.02936,-0.01334 0.05241,-0.02342 0.08125,-0.03814 0.01397,-0.0071 0.05496,-0.03024 0.04147,-0.02224 -0.475036,0.281621 -0.287838,0.169959 -0.18471,0.104747 0.0339,-0.02307 0.06938,-0.04154 0.104058,-0.06314 0.129635,-0.08076 0.259693,-0.162172 0.396683,-0.230543 -0.539078,0.315031 -0.24515,0.163256 -0.148925,0.06544 0.02184,-0.01725 0.0465,-0.03051 0.06715,-0.04919 0.0057,-0.0051 0.01051,-0.01103 0.01577,-0.01654 0.004,-0.0061 0.0068,-0.01333 0.01207,-0.01843 0.0035,-0.0033 0.0088,-0.0039 0.01318,-0.0059 0.01516,0.0035 0.01322,-0.0012 0.0031,-0.0041 -0.02319,-0.0067 -0.04785,-0.0031 -0.07145,-0.0025 -0.0633,0.0045 -0.126227,0.01209 -0.187747,0.02832 -0.06707,0.01464 -0.132998,0.0323 -0.196844,0.05799 -0.062,0.01919 -0.126693,0.02763 -0.187649,0.05063 -0.06438,0.0212 -0.129524,0.04075 -0.190157,0.07164 -0.0677,0.03356 -0.135281,0.06701 -0.204188,0.09811 -0.01056,0.0056 -0.042,0.02296 -0.03167,0.01691 0.08917,-0.0522 0.357342,-0.207697 0.268229,-0.155391 -1.089563,0.639531 0.232268,-0.144968 -0.128185,0.07839 -0.05694,0.03694 -0.113442,0.0773 -0.157351,0.129558 -0.02445,0.03088 -0.01317,0.01472 -0.0338,0.04848 -0.0045,0.0061 -0.01106,0.01056 -0.01569,0.01661 -0.0061,0.008 -0.0053,0.02118 -0.01348,0.02696 -0.0023,0.0016 -0.0052,-0.0019 -0.0078,-0.0029 -9.54e-4,-9.78e-4 -0.0034,-0.0017 -0.0029,-0.0029 2.63e-4,-6.5e-4 0.08798,-0.0089 0.09085,-0.01328 0.06477,-0.0116 0.126186,-0.03339 0.189814,-0.04944 0.06142,-0.01087 0.122514,-0.02506 0.182117,-0.04343 0.05966,-0.0238 0.116828,-0.05382 0.17856,-0.07228 0.009,-0.0037 0.04566,-0.01875 0.05465,-0.02288 0.0094,-0.0043 0.03693,-0.0191 0.02798,-0.0138 -0.493551,0.292041 -0.325514,0.191543 -0.220121,0.125835 0.02808,-0.02131 0.05113,-0.04568 0.07769,-0.06843 0.02574,-0.02204 0.05643,-0.03874 0.07628,-0.06742 0.0164,-0.02303 0.03267,-0.03876 0.05273,-0.05817 0.01148,-0.01111 0.01927,-0.02607 0.03214,-0.03552 0.0049,-0.0036 0.01134,-0.0046 0.01701,-0.0068 0.0029,-0.0031 0.0432,-0.04114 0.03787,-0.02061 -0.03868,0.03221 -0.09166,0.04703 -0.136172,0.06888 -0.02079,0.01062 -0.08189,0.04486 -0.06173,0.03308 0.09032,-0.05278 0.180844,-0.10521 0.271265,-0.157815 -0.01021,0.0063 -0.02054,0.0125 -0.03064,0.01903 -0.0095,0.0062 -0.01904,0.01242 -0.02826,0.01907 -0.0093,0.0067 -0.01817,0.01395 -0.02726,0.02093 -0.04955,0.02755 -0.09724,0.05963 -0.132752,0.104627 -0.04773,0.03001 -0.09542,0.06209 -0.130936,0.106635 -0.05667,0.04236 -0.104993,0.09207 -0.15343,0.143324 -0.04673,0.04552 -0.08914,0.09578 -0.129742,0.146721 -0.03977,0.04298 -0.08523,0.08037 -0.115606,0.131237 -0.101683,0.09758 -9.24e-4,0.0038 -0.350409,0.158448 -0.0036,0.0016 0.0085,4.19e-4 0.01177,-0.0019 0.01404,-0.01005 0.03666,-0.04237 0.05143,-0.05313 0.05699,-0.03538 0.10246,-0.08861 0.157349,-0.127456 0.06193,-0.05068 0.128465,-0.09519 0.190391,-0.145675 0.06486,-0.04539 0.124878,-0.09703 0.190685,-0.141157 0.05686,-0.0511 0.110464,-0.105722 0.168873,-0.155181 0.0615,-0.04884 0.118232,-0.103135 0.177417,-0.154619 0.06157,-0.0539 0.115154,-0.115491 0.163628,-0.181367 0.05635,-0.06488 0.119187,-0.124109 0.166653,-0.196358 0.02118,-0.03003 0.03849,-0.06182 0.05881,-0.09227 0.01441,-0.0216 0.02349,-0.02708 0.03575,-0.04967 0.0044,-0.0081 0.0071,-0.01701 0.0107,-0.02551 0.02236,-0.05056 0.05271,-0.100115 0.08814,-0.142199 0.0049,-0.006 0.0109,-0.0112 0.01462,-0.01797 0.0024,-0.0044 0.01426,-0.0624 0.0269,-0.03519 6.53e-4,0.0014 -0.0017,0.0026 -0.0025,0.0039 -0.130844,0.02952 -0.349206,0.183236 0.174361,-0.125399 -0.154075,0.08642 -0.301274,0.18497 -0.461707,0.258915 -0.0094,0.0053 -0.03751,0.02133 -0.02819,0.0159 0.09138,-0.0533 0.36546,-0.213306 0.274378,-0.159497 -0.139283,0.08228 -0.277761,0.169814 -0.423851,0.240861 -0.11423,0.0557 -0.268683,0.151181 0.216893,-0.131412 0.0419,-0.02439 -0.120746,0.06209 -0.08049,0.05117 -0.05677,0.04943 -0.126842,0.08282 -0.181263,0.135987 -0.05864,0.04042 -0.105439,0.09287 -0.164743,0.132265 -0.05062,0.05117 -0.101619,0.101424 -0.158458,0.145691 -0.01857,0.01605 -0.03903,0.02983 -0.05735,0.04616 -0.03375,0.03007 -0.06034,0.06818 -0.09148,0.100749 -0.04301,0.04472 -0.0716,0.09711 -0.100907,0.151237 -0.02653,0.05536 0.0055,-0.0073 -0.02334,0.03825 -0.01476,0.02333 -0.0046,0.01608 -0.02106,0.03678 -0.0031,0.004 -0.0083,0.0062 -0.01085,0.01062 -0.0022,0.0038 -0.0017,0.0085 -0.0025,0.01278 -0.02828,3.57e-4 0.0619,-0.009 0.06234,-0.01466 0.05739,-0.02139 0.115119,-0.04247 0.170218,-0.06935 0.06331,-0.02635 0.128507,-0.04863 0.187287,-0.08477 0.06622,-0.03537 0.13656,-0.06208 0.202407,-0.09829 -0.08868,0.05167 -0.355957,0.204505 -0.266044,0.15501 0.113471,-0.06246 0.224075,-0.130004 0.336732,-0.193922 0.01617,-0.0092 0.05209,-0.02422 0.06886,-0.0322 0.01199,-0.0057 0.04707,-0.02458 0.03565,-0.01779 -0.0888,0.0528 -0.178585,0.103917 -0.267877,0.155875 0.06678,-0.03796 0.132582,-0.07832 0.196484,-0.120559 0.06249,-0.04463 0.123403,-0.09151 0.18652,-0.135248 0.05565,-0.04675 0.114276,-0.08957 0.166139,-0.140886 0.0208,-0.02553 0.04059,-0.05458 0.06414,-0.07764 0.03527,-0.03453 0.01596,-0.0067 0.05061,-0.04198 0.0081,-0.0083 0.01481,-0.01792 0.02222,-0.02688 0.04614,-0.04769 0.09399,-0.09284 0.123734,-0.153349 0.03524,-0.05087 0.07115,-0.102603 0.114145,-0.147132 0.0018,-0.0025 0.0344,-0.04432 0.0375,-0.04587 0.524396,-0.261841 0.418602,-0.208828 0.305357,-0.142937 -0.03445,0.0334 -0.06043,0.07439 -0.102251,0.09984 -0.04772,0.03184 -0.08468,0.07867 -0.126511,0.117649 -0.02509,0.02402 -0.04306,0.05156 -0.06677,0.07681 -0.01102,0.01173 -0.03144,0.0295 -0.04211,0.04192 -0.006,0.007 -0.01106,0.01487 -0.0166,0.02231 -0.01821,0.02055 -0.03219,0.04347 -0.05011,0.06416 -0.0051,0.0058 -0.01173,0.01034 -0.01602,0.01678 -0.0081,0.01216 -0.0093,0.0281 -0.01938,0.03931 -0.07275,0.116287 -0.0075,0.01698 -0.340256,0.171079 -0.0032,0.0015 0.0051,-0.005 0.007,-0.0079 0.02689,-0.04069 -0.01165,0.0093 0.02369,-0.03462 0.005,-0.0074 0.0089,-0.01543 0.01334,-0.02314 0.03314,-0.04787 0.06149,-0.09784 0.105499,-0.137358 4.72e-4,-6.26e-4 0.03483,-0.04624 0.03566,-0.04712 0.01623,-0.0172 0.0247,-0.01683 0.04009,-0.03479 0.0063,-0.0074 0.01043,-0.01646 0.01628,-0.02424 0.0064,-0.0085 0.01355,-0.01631 0.02032,-0.02446 0.02455,-0.03248 0.05141,-0.05342 0.08153,-0.08043 0.03536,-0.03171 0.02731,-0.02799 0.05982,-0.06192 0.0095,-0.01 0.01964,-0.01938 0.02945,-0.02907 0.05713,-0.0594 0.107586,-0.125675 0.157904,-0.190801 0.05586,-0.06139 0.106176,-0.127719 0.155132,-0.194588 0.04244,-0.06532 0.08572,-0.130093 0.131357,-0.193095 0.04709,-0.05486 0.08908,-0.112673 0.12504,-0.175503 0.029,-0.05704 0.05777,-0.114488 0.0845,-0.172482 0.02686,-0.06361 0.04339,-0.13139 0.07419,-0.193637 0.02204,-0.05065 0.05187,-0.09806 0.06467,-0.152248 0.0045,-0.01112 0.0072,-0.01834 0.0077,-0.0182 0.02092,0.0059 -0.01141,0.02514 -0.0155,0.0239 -0.108892,0.04995 -0.270249,0.150822 0.246304,-0.14633 0.02894,-0.01665 -0.08617,0.04629 -0.05815,0.03802 -0.03922,0.04416 -0.08667,0.07767 -0.133095,0.113689 -0.05936,0.05063 -0.119973,0.09938 -0.181064,0.147997 -0.0092,0.0072 -0.01845,0.01444 -0.02767,0.02166 -0.0092,0.0057 -0.0189,0.01051 -0.02754,0.01696 -0.03288,0.02456 -0.06173,0.05608 -0.09031,0.08521 -0.02715,0.02851 -0.05814,0.05882 -0.09142,0.08012 -0.0082,0.0052 -0.01764,0.0084 -0.02567,0.01383 -0.0079,0.0054 -0.01452,0.01232 -0.02179,0.01847 -0.02303,0.01982 -0.04562,0.04125 -0.06671,0.06313 -0.03643,0.03778 -0.0033,0.0081 -0.03842,0.04972 -0.0064,0.0076 -0.01421,0.014 -0.02132,0.02099 -0.0417,0.05111 -0.08959,0.09573 -0.134506,0.143587 -0.05822,0.05771 -0.122922,0.108752 -0.174983,0.172563 -0.05981,0.0599 -0.119549,0.119894 -0.17786,0.181262 -0.04905,0.05231 -0.09273,0.109381 -0.14838,0.154824 -0.05726,0.05129 -0.110827,0.107204 -0.165831,0.160779 -0.04832,0.05591 -0.08801,0.116083 -0.128582,0.177553 -0.0303,0.04178 -0.06848,0.07643 -0.09671,0.11934 -0.0475,0.0555 0.01895,-0.01835 -0.02282,0.01822 -0.0021,0.0019 -0.0011,0.006 -0.0032,0.0079 -0.0023,0.002 -0.0066,-0.0054 -0.0047,-0.0078 0.0023,-0.0028 0.0064,-0.0033 0.0096,-0.005 0.04979,-0.01956 0.09803,-0.04315 0.147138,-0.06431 0.130009,-0.05062 0.378984,-0.1788 -0.154969,0.108824 0.15077,-0.08631 0.294638,-0.186055 0.454158,-0.255639 0.0454,-0.02419 0.002,-0.0013 0.05064,-0.02619 0.0096,-0.0049 0.03812,-0.02043 0.02879,-0.01495 -0.492559,0.289306 -0.321949,0.192461 -0.21978,0.124763 0.153516,-0.09032 0.30656,-0.198403 0.476453,-0.260671 0.06435,-0.02256 0.125716,-0.05172 0.185025,-0.08538 0.05645,-0.02858 0.114348,-0.05379 0.170598,-0.08272 0.01663,-0.008 0.06545,-0.03408 0.04954,-0.02472 -0.09289,0.0546 -0.372976,0.215947 -0.279452,0.162446 1.089216,-0.62309 -0.200727,0.108366 0.06118,-0.03505 0.04628,-0.03262 0.098,-0.05762 0.13987,-0.09686 0.06097,-0.03245 0.112064,-0.07874 0.160452,-0.127453 0.04929,-0.0515 0.103654,-0.09785 0.155584,-0.146621 0.03636,-0.05021 0.08465,-0.0896 0.104952,-0.150116 0.02819,-0.06338 0.06366,-0.124613 0.07567,-0.194007 0,0 0.321667,-0.152777 0.321667,-0.152777 z"
     inkscape:connector-curvature="0" />
  <ellipse
     style="opacity:1;fill:#60b1f3;fill-opacity:1;fill-rule:nonzero;stroke:none;stroke-width:1.5;stroke-miterlimit:4;stroke-dasharray:none;stroke-opacity:1"
     id="path4183"
     cx="49.797096"
     cy="41.132885"
     rx="7.8021445"
     ry="1.8216988" />
  <ellipse
     style="opacity:1;fill:#60b1f3;fill-opacity:1;fill-rule:nonzero;stroke:none;stroke-width:1.5;stroke-miterlimit:4;stroke-dasharray:none;stroke-opacity:1"
     id="path4185"
     cx="44.343987"
     cy="44.392769"
     rx="2.1333053"
     ry="3.020185" />
  <ellipse
     style="opacity:1;fill:#60b1f3;fill-opacity:1;fill-rule:nonzero;stroke:none;stroke-width:1.5;stroke-miterlimit:4;stroke-dasharray:none;stroke-opacity:1"
     id="path4187"
     cx="43.529015"
     cy="49.07885"
     rx="1.1505467"
     ry="1.6179562" />
  <ellipse
     style="opacity:1;fill:#60b1f3;fill-opacity:1;fill-rule:nonzero;stroke:none;stroke-width:1.5;stroke-miterlimit:4;stroke-dasharray:none;stroke-opacity:1"
     id="path4189"
     cx="43.217407"
     cy="47.640667"
     rx="1.1026071"
     ry="1.0187131" />
  <ellipse
     style="opacity:1;fill:#60b1f3;fill-opacity:1;fill-rule:nonzero;stroke:none;stroke-width:1.5;stroke-miterlimit:4;stroke-dasharray:none;stroke-opacity:1"
     id="path4191"
     cx="43.660847"
     cy="52.015141"
     rx="1.0906223"
     ry="2.1333053" />
  <ellipse
     style="opacity:1;fill:#60b1f3;fill-opacity:1;fill-rule:nonzero;stroke:none;stroke-width:1.5;stroke-miterlimit:4;stroke-dasharray:none;stroke-opacity:1"
     id="path4193"
     cx="45.758198"
     cy="51.212154"
     rx="1.3183347"
     ry="1.4501681" />
  <ellipse
     style="opacity:1;fill:#60b1f3;fill-opacity:1;fill-rule:nonzero;stroke:none;stroke-width:1.5;stroke-miterlimit:4;stroke-dasharray:none;stroke-opacity:1"
     id="path4195"
     cx="49.605339"
     cy="43.889404"
     rx="4.4224138"
     ry="1.7018502" />
  <ellipse
     style="opacity:1;fill:#60b1f3;fill-opacity:1;fill-rule:nonzero;stroke:none;stroke-width:1.5;stroke-miterlimit:4;stroke-dasharray:none;stroke-opacity:1"
     id="path4197"
     cx="46.716988"
     cy="47.568756"
     rx="2.9003363"
     ry="2.1452901" />
  <ellipse
     style="opacity:1;fill:#60b1f3;fill-opacity:1;fill-rule:nonzero;stroke:none;stroke-width:1.5;stroke-miterlimit:4;stroke-dasharray:none;stroke-opacity:1"
     id="path4199"
     cx="46.261562"
     cy="49.857864"
     rx="0.79100078"
     ry="0.35954583" />
  <ellipse
     style="opacity:1;fill:#60b1f3;fill-opacity:1;fill-rule:nonzero;stroke:none;stroke-width:1.5;stroke-miterlimit:4;stroke-dasharray:none;stroke-opacity:1"
     id="path4201"
     cx="51.259251"
     cy="45.591255"
     rx="1.6419259"
     ry="1.8216988" />
  <ellipse
     style="opacity:1;fill:#60b1f3;fill-opacity:1;fill-rule:nonzero;stroke:none;stroke-width:1.5;stroke-miterlimit:4;stroke-dasharray:none;stroke-opacity:1"
     id="path4203"
     cx="49.809082"
     cy="47.113331"
     rx="1.2224557"
     ry="0.85092509" />
</svg>
