<?xml version="1.0" encoding="UTF-8" standalone="no"?>
<svg
   xmlns:dc="http://purl.org/dc/elements/1.1/"
   xmlns:cc="http://creativecommons.org/ns#"
   xmlns:rdf="http://www.w3.org/1999/02/22-rdf-syntax-ns#"
   xmlns:svg="http://www.w3.org/2000/svg"
   xmlns="http://www.w3.org/2000/svg"
   xmlns:sodipodi="http://sodipodi.sourceforge.net/DTD/sodipodi-0.dtd"
   xmlns:inkscape="http://www.inkscape.org/namespaces/inkscape"
   width="64"
   height="64"
   viewBox="0 0 64 64"
   id="svg2"
   version="1.1"
   inkscape:version="0.91 r13725"
   sodipodi:docname="Y+.svg">
  <metadata
     id="metadata16">
    <rdf:RDF>
      <cc:Work
         rdf:about="">
        <dc:format>image/svg+xml</dc:format>
        <dc:type
           rdf:resource="http://purl.org/dc/dcmitype/StillImage" />
      </cc:Work>
    </rdf:RDF>
  </metadata>
  <defs
     id="defs14" />
  <sodipodi:namedview
     pagecolor="#ffffff"
     bordercolor="#666666"
     borderopacity="1"
     objecttolerance="10"
     gridtolerance="10"
     guidetolerance="10"
     inkscape:pageopacity="0"
     inkscape:pageshadow="2"
     inkscape:window-width="1920"
     inkscape:window-height="1051"
     id="namedview12"
     showgrid="false"
     inkscape:zoom="20.85965"
     inkscape:cx="25.711475"
     inkscape:cy="45.445493"
     inkscape:window-x="1920"
     inkscape:window-y="0"
     inkscape:window-maximized="1"
     inkscape:current-layer="svg2" />
  <g
     fill="none"
     id="g4">
    <path
       d="M9.1 20h11.9v-9.6zM23 22h18v18h-18zM43 53.7l12.6-11.7h-12.6zM22 42l-13.9 13h32.9v-13h-19zM21 22h-14v31.2l14-13.1zM43 21.9v18.1h14v-29.9l-13.7 11.7-.3.1zM42 20h.1l13-11h-32.1v11z"
       id="path6" />
  </g>
  <path
     fill="#3DB1F3"
     d="M59 8zM59 7.6l-.2-.3s-.1-.1-.2-.1h-.1c-.4-.3-.9-.2-1.3-.2h-34.8c-.8 0-1 .1-1.3.5l-15.7 12.7c-.1.1-.2.2-.3.4-.1.1-.1.3-.1.4v.4c.2.4.9.6 1.3.6h36.300000000000004c.1 0 .2 0 .4-.1.1 0 .2-.1.3-.2l13.7-11.6 1.6-1.3c.2-.2.4-.5.4-.8 0-.5-.5-1-1-1h-.4.2.2c.5 0 1 .4 1 1v-.4zm-16.9 12.4h-33l11.9-9.6 1.8-1.4h32.300000000000004l-13 11zm15.2-12.8l-2.2 1.8 2.2-1.8z"
     id="path8" />
  <path
     d="M57.2 7h-.8.8zM23 9h-.2l-1.8 1.4v9.6h2zM58.5 7.1zM57 10.1v29.9h-14v-18.1c-.1 0-.2.1-.4.1h-1.6v18h-18v-18h-2v18.1l-14 13.1v-31.2h-.7c-.4 0-1.1-.2-1.2-.6v-.2 34.3.5c0 .6.4 1 1 1h35.8c.4.1.8-.1 1-.2l16-14.9c.2-.2.2-.5.2-.7v-33.2c0 .3-.2.6-.4.8l-1.7 1.3zm-35 31.9h19v13h-32.9l13.9-13zm21 11.7v-11.7h12.6l-12.6 11.7z"
     id="path10" />
  <path
     style="opacity:1;fill:#60b1f3;fill-opacity:1;fill-rule:nonzero;stroke:none;stroke-width:1.5;stroke-miterlimit:4;stroke-dasharray:none;stroke-opacity:1"
     d="m 23.001687,14.510526 0,-5.4890665 16.021362,0 c 9.41298,0 16.002576,0.017672 15.975819,0.042845 -0.02505,0.023565 -2.943138,2.4936443 -6.484642,5.4890663 l -6.4391,5.446221 -9.53672,0 -9.536719,0 0,-5.489066 z"
     id="path4144"
     inkscape:connector-curvature="0" />
  <path
     style="opacity:1;fill:#60b1f3;fill-opacity:1;fill-rule:nonzero;stroke:none;stroke-width:1.5;stroke-miterlimit:4;stroke-dasharray:none;stroke-opacity:1"
     d="m 9.1511829,19.981525 c 0.080818,-0.0731 11.7401031,-9.467626 11.7826111,-9.493897 0.04048,-0.02502 0.05444,1.189721 0.05444,4.73916 l 0,4.772804 -5.928511,0 c -3.260681,0 -5.9195222,-0.0081 -5.9085361,-0.01807 z"
     id="path4146"
     inkscape:connector-curvature="0" />
  <path
     style="opacity:1;fill:#60b1f3;fill-opacity:1;fill-rule:nonzero;stroke:none;stroke-width:1.5;stroke-miterlimit:4;stroke-dasharray:none;stroke-opacity:1"
     d="m 21.038981,15.193663 0.0028,-4.805929 0.884961,-0.6831374 c 0.486729,-0.3757254 0.927705,-0.6831371 0.979947,-0.6831371 0.09413,0 0.09499,0.049167 0.09499,5.4890665 l 0,5.489066 -0.982759,0 -0.982758,0 0.0028,-4.805929 z"
     id="path4148"
     inkscape:connector-curvature="0" />
  <path
     style="opacity:1;fill:#60b1f3;fill-opacity:1;fill-rule:nonzero;stroke:none;stroke-width:1.5;stroke-miterlimit:4;stroke-dasharray:none;stroke-opacity:1"
     d="m 21.052255,16.396216 c 0.01752,-1.981858 0.03185,-4.145338 0.03185,-4.807735 l 0,-1.204358 0.659168,-0.5052571 c 0.750505,-0.5752679 1.08562,-0.8094669 1.158267,-0.8094669 0.03327,0 0.05507,0.3620004 0.06424,1.066653 l 0.01387,1.066652 0.01102,-1.090622 0.01102,-1.0906225 11.229814,0.00688 c 6.176398,0.00378 13.362492,0.019962 15.969096,0.035955 l 4.739281,0.029078 -6.441131,5.4519493 -6.441132,5.451949 -10.518607,0.0012 -10.518607,0.0012 0.03185,-3.603376 z"
     id="path4150"
     inkscape:connector-curvature="0" />
  <path
     style="opacity:1;fill:#60b1f3;fill-opacity:1;fill-rule:nonzero;stroke:none;stroke-width:1.5;stroke-miterlimit:4;stroke-dasharray:none;stroke-opacity:1"
     d="m 10.623402,19.965663 -1.4120696,-0.01751 2.4579866,-1.983051 c 1.351892,-1.090678 3.985628,-3.212626 5.852747,-4.715441 l 3.394761,-2.73239 0.02146,0.206966 c 0.0118,0.113832 0.02324,0.836204 0.02542,1.605272 0.0026,0.906963 0.01587,1.398305 0.03786,1.398305 0.02143,0 0.0339,-0.241097 0.0339,-0.655495 0,-0.360522 0.01007,-1.114869 0.02238,-1.676325 l 0.02238,-1.020829 0.613213,-0.4702255 c 0.895556,-0.6867312 1.21059,-0.9008129 1.245846,-0.8466172 0.003,0.00466 0.0153,0.3440678 0.02727,0.7542373 l 0.02175,0.7457624 0.0066,-0.7756788 0.0066,-0.7756791 15.709835,0.025365 c 8.640409,0.013951 15.827124,0.03504 15.970473,0.046865 l 0.260637,0.021501 -6.436576,5.4482548 -6.436573,5.448255 -10.516949,8.97e-4 -10.516949,8.98e-4 -0.0042,-2.025423 c -0.0024,-1.133533 -0.01619,-1.958252 -0.03139,-1.872882 -0.01493,0.0839 -0.02827,0.995339 -0.02966,2.025424 l -0.0025,1.872881 -4.466101,-0.0079 c -2.456356,-0.0044 -5.101533,-0.01579 -5.878171,-0.02542 z"
     id="path4152"
     inkscape:connector-curvature="0" />
  <path
     style="opacity:1;fill:#60b1f3;fill-opacity:1;fill-rule:nonzero;stroke:none;stroke-width:1.5;stroke-miterlimit:4;stroke-dasharray:none;stroke-opacity:1"
     d="m 10.146605,19.965912 -0.9397133,-0.01776 3.8549673,-3.10815 c 2.120232,-1.709482 4.754968,-3.832386 5.854968,-4.717565 l 2,-1.609416 0.02207,0.175193 c 0.01214,0.09636 0.02358,0.811156 0.02542,1.588446 0.0018,0.777289 0.01479,1.420325 0.02878,1.428968 0.01398,0.0086 0.01999,-0.727473 0.01336,-1.635815 l -0.01207,-1.65153 0.09681,-0.06343 c 0.05325,-0.03488 0.363761,-0.268542 0.690033,-0.5192394 0.796507,-0.6120137 1.123068,-0.8312076 1.158039,-0.7772973 0.003,0.00466 0.01536,0.2601695 0.02742,0.5677966 l 0.02192,0.5593221 0.0065,-0.5903381 0.0065,-0.590338 15.822033,0.025527 c 8.702119,0.01404 15.889607,0.035624 15.972197,0.047965 l 0.150166,0.022438 -6.437861,5.4491528 -6.437862,5.449152 -10.517388,0 -10.517387,0 -0.0039,-1.957627 c -0.0023,-1.130543 -0.01575,-1.90034 -0.03195,-1.822034 -0.01543,0.07458 -0.02893,0.955509 -0.03,1.957627 l -0.002,1.822034 -4.940678,-0.0077 c -2.717373,-0.0042 -5.363549,-0.01566 -5.880391,-0.02542 z"
     id="path4154"
     inkscape:connector-curvature="0" />
  <path
     style="opacity:1;fill:#60b1f3;fill-opacity:1;fill-rule:nonzero;stroke:none;stroke-width:1.5;stroke-miterlimit:4;stroke-dasharray:none;stroke-opacity:1"
     d="m 9.9744189,19.966066 -0.7729163,-0.01791 3.4339334,-2.768021 c 1.888663,-1.522412 4.524611,-3.646481 5.857662,-4.720154 l 2.423729,-1.952133 0.02245,0.160832 c 0.01235,0.08846 0.02476,0.778628 0.02757,1.533713 0.0037,0.989352 0.015,1.349207 0.0405,1.288136 0.02388,-0.05721 0.02839,-0.569381 0.01388,-1.576272 l -0.0215,-1.491525 0.711477,-0.5384619 c 0.91839,-0.6950587 1.196084,-0.8819411 1.227294,-0.8259448 0.0026,0.00466 0.01515,0.1991525 0.02788,0.4322034 l 0.02316,0.4237288 0.006,-0.4547895 0.006,-0.4547894 15.838983,0.02459 c 8.71144,0.013525 15.899847,0.035363 15.97424,0.04853 l 0.135255,0.02394 -6.43857,5.4486323 -6.43857,5.448632 -10.51872,0 -10.51872,0 -0.0055,-1.872881 c -0.003,-1.030085 -0.01628,-1.758475 -0.02947,-1.618644 -0.01319,0.13983 -0.02598,0.982627 -0.02842,1.872881 l -0.0044,1.618644 -5.110169,-0.0075 c -2.810594,-0.0041 -5.457982,-0.01557 -5.8830861,-0.02542 z"
     id="path4156"
     inkscape:connector-curvature="0" />
  <path
     style="opacity:1;fill:#60b1f3;fill-opacity:1;fill-rule:nonzero;stroke:none;stroke-width:1.5;stroke-miterlimit:4;stroke-dasharray:none;stroke-opacity:1"
     d="m 9.9565889,19.966085 -0.7568479,-0.01793 1.282272,-1.035253 c 0.705249,-0.56939 3.089898,-2.491074 5.299221,-4.27041 2.209322,-1.779336 4.268644,-3.438281 4.576271,-3.686543 l 0.559322,-0.451387 0.02291,0.145525 c 0.0126,0.08004 0.02404,0.721373 0.02542,1.425186 0.0018,0.922853 0.01313,1.279661 0.0406,1.279661 0.02798,0 0.03155,-0.389188 0.01347,-1.466101 l -0.02462,-1.466102 0.84246,-0.6307442 c 0.896293,-0.6710481 1.04521,-0.7709327 1.08718,-0.7292153 0.01456,0.014469 0.03519,0.1738365 0.04585,0.3541502 l 0.01938,0.3278433 0.006,-0.3700308 0.006,-0.3700307 15.838983,0.024222 c 8.71144,0.013322 15.897101,0.034921 15.968139,0.047997 l 0.129156,0.023775 -0.112207,0.1050764 c -0.06171,0.057792 -1.054156,0.9010574 -2.205427,1.8739244 -1.151272,0.972866 -2.093221,1.783632 -2.093221,1.801703 0,0.01807 -0.01274,0.02904 -0.02832,0.02438 -0.03804,-0.01138 -0.853034,0.680229 -0.853034,0.72389 0,0.01889 -0.01255,0.02659 -0.02788,0.01711 -0.01534,-0.0095 -0.122502,0.07059 -0.238143,0.177936 -0.115644,0.107344 -0.214478,0.190949 -0.219637,0.18579 -0.0052,-0.0052 -0.104312,0.07874 -0.220339,0.186441 -0.116027,0.107701 -0.21518,0.191599 -0.220339,0.18644 -0.0052,-0.0052 -0.104312,0.07874 -0.220339,0.186441 -0.116027,0.107701 -0.21518,0.191599 -0.220339,0.186441 -0.0052,-0.0052 -0.104312,0.07874 -0.220339,0.18644 -0.116027,0.107701 -0.21518,0.1916 -0.220339,0.186441 -0.0052,-0.0052 -0.104312,0.07874 -0.220339,0.186441 -0.116027,0.107701 -0.21518,0.191599 -0.220339,0.186441 -0.0052,-0.0052 -0.104312,0.07874 -0.220339,0.18644 -0.116027,0.107701 -0.21518,0.1916 -0.220339,0.186441 -0.0052,-0.0052 -0.104312,0.07874 -0.220339,0.186441 -0.116027,0.107701 -0.21518,0.191599 -0.220339,0.18644 -0.0052,-0.0052 -0.105566,0.0799 -0.223125,0.189025 -0.117556,0.109123 -0.21759,0.196356 -0.222295,0.19385 -0.02102,-0.01119 -1.712983,1.441855 -1.712983,1.471105 0,0.01805 -0.01278,0.029 -0.02839,0.02434 -0.03831,-0.01144 -1.293644,1.052552 -1.293644,1.096455 0,0.01907 -0.01255,0.02691 -0.02788,0.01743 -0.01534,-0.0095 -0.122117,0.07024 -0.237288,0.177142 -0.115172,0.106907 -0.209403,0.189294 -0.209403,0.183083 0,-0.0062 -0.109611,0.08097 -0.243579,0.193738 l -0.243578,0.205032 -10.519134,0 -10.519133,0 -0.0058,-1.737288 c -0.0039,-1.160937 -0.0138,-1.585469 -0.02989,-1.279661 -0.01325,0.251695 -0.02588,1.033475 -0.02809,1.737288 l -0.004,1.279661 -5.127118,-0.0075 c -2.819916,-0.0041 -5.467701,-0.01556 -5.8839671,-0.02542 z"
     id="path4158"
     inkscape:connector-curvature="0" />
  <path
     style="opacity:1;fill:#60b1f3;fill-opacity:1;fill-rule:nonzero;stroke:none;stroke-width:1.5;stroke-miterlimit:4;stroke-dasharray:none;stroke-opacity:1"
     d="m 9.9196649,19.966124 -0.7259754,-0.01797 2.0813475,-1.677966 c 1.144741,-0.922882 3.782447,-3.047996 5.861569,-4.722476 l 3.780221,-3.04451 0.02347,0.129256 c 0.01291,0.07109 0.02542,0.670781 0.02781,1.332645 0.0024,0.661864 0.01794,1.233898 0.03456,1.271186 0.0179,0.04015 0.02202,-0.519663 0.01012,-1.372881 l -0.0201,-1.440678 0.604478,-0.4576271 c 0.797555,-0.6037976 1.236927,-0.9152542 1.291149,-0.9152542 0.05345,0 0.0754,0.087156 0.08966,0.3559322 0.0078,0.1468262 0.01257,0.1164056 0.0172,-0.1093852 l 0.0064,-0.3127752 1.127118,0.016 c 0.619915,0.0088 7.762712,0.02373 15.872882,0.033178 8.110169,0.00945 14.788474,0.028871 14.840674,0.043163 l 0.09491,0.025985 -0.240034,0.2214839 c -0.13202,0.1218161 -0.244166,0.217353 -0.249213,0.2123043 -0.0051,-0.00505 -0.104112,0.07894 -0.220139,0.1866411 -0.116028,0.1077013 -0.21518,0.1915996 -0.220339,0.1864406 -0.0052,-0.00516 -0.104312,0.078739 -0.220339,0.186441 -0.116028,0.107701 -0.21518,0.191599 -0.220339,0.18644 -0.0052,-0.0052 -0.104312,0.07874 -0.220339,0.186441 -0.116027,0.107701 -0.216173,0.190608 -0.222543,0.184237 -0.0064,-0.0064 -0.05794,0.04121 -0.114596,0.105743 -0.05666,0.06453 -0.11018,0.11016 -0.118939,0.101401 -0.0088,-0.0088 -0.05426,0.02964 -0.101119,0.08532 -0.04685,0.05569 -0.09249,0.09395 -0.1014,0.08504 -0.0089,-0.0089 -0.06256,0.03659 -0.11922,0.101118 -0.05666,0.06453 -0.11018,0.11016 -0.118939,0.101402 -0.0088,-0.0088 -0.05426,0.02964 -0.101119,0.08532 -0.04685,0.05569 -0.09249,0.09395 -0.1014,0.08504 -0.0089,-0.0089 -0.06256,0.03659 -0.11922,0.101117 -0.05666,0.06453 -0.11018,0.11016 -0.118939,0.101402 -0.0088,-0.0088 -0.05426,0.02964 -0.101119,0.08532 -0.04685,0.05569 -0.09248,0.09395 -0.1014,0.08504 -0.0089,-0.0089 -0.06256,0.03659 -0.11922,0.101118 -0.05666,0.06453 -0.11018,0.11016 -0.118939,0.101402 -0.0088,-0.0088 -0.05841,0.0343 -0.110346,0.09568 -0.05193,0.06138 -0.106159,0.10814 -0.120508,0.103911 -0.01435,-0.0042 -0.06358,0.03687 -0.109417,0.09134 -0.04583,0.05447 -0.09075,0.09161 -0.09983,0.08253 -0.0091,-0.0091 -0.05899,0.03372 -0.110922,0.0951 -0.05193,0.06138 -0.1066,0.107994 -0.121485,0.103585 -0.01489,-0.0044 -0.06763,0.04517 -0.11721,0.11017 -0.04958,0.065 -0.109461,0.118185 -0.133071,0.118185 -0.02361,0 -0.06823,0.03862 -0.09916,0.08583 -0.03093,0.0472 -0.06943,0.07767 -0.08556,0.06771 -0.01613,-0.01 -0.06715,0.02684 -0.113383,0.08179 -0.04624,0.05495 -0.09149,0.09248 -0.10057,0.08341 -0.0091,-0.0091 -0.05484,0.02906 -0.101695,0.08475 -0.04685,0.05569 -0.09249,0.09395 -0.1014,0.08504 -0.0089,-0.0089 -0.06256,0.03659 -0.11922,0.101117 -0.05666,0.06453 -0.110539,0.109802 -0.119732,0.100607 -0.0092,-0.0092 -0.05809,0.03753 -0.108661,0.103822 -0.05057,0.0663 -0.104105,0.113021 -0.118977,0.10383 -0.01487,-0.0092 -0.06487,0.02825 -0.111101,0.0832 -0.04624,0.05495 -0.09149,0.09248 -0.10057,0.08341 -0.0091,-0.0091 -0.05484,0.02906 -0.101695,0.08474 -0.04685,0.05569 -0.09248,0.09395 -0.1014,0.08504 -0.0089,-0.0089 -0.06256,0.03659 -0.11922,0.101118 -0.05666,0.06453 -0.11018,0.11016 -0.118939,0.101402 -0.0088,-0.0088 -0.05426,0.02964 -0.101119,0.08532 -0.04685,0.05569 -0.09248,0.09395 -0.1014,0.08504 -0.0089,-0.0089 -0.06256,0.03659 -0.11922,0.101117 -0.05666,0.06453 -0.11018,0.11016 -0.118939,0.101402 -0.0088,-0.0088 -0.05426,0.02964 -0.101119,0.08532 -0.04685,0.05569 -0.09248,0.09395 -0.1014,0.08504 -0.0089,-0.0089 -0.06256,0.03659 -0.11922,0.101118 -0.05666,0.06453 -0.11018,0.110159 -0.118939,0.101401 -0.0088,-0.0088 -0.05426,0.02964 -0.101119,0.08532 -0.04685,0.05569 -0.09248,0.09395 -0.1014,0.08504 -0.0089,-0.0089 -0.06256,0.03659 -0.11922,0.101117 -0.05666,0.06453 -0.11018,0.11016 -0.118939,0.101402 -0.0088,-0.0088 -0.05426,0.02964 -0.101119,0.08532 -0.04685,0.05569 -0.09248,0.09395 -0.1014,0.08504 -0.0089,-0.0089 -0.06256,0.03659 -0.11922,0.101117 -0.05666,0.06453 -0.11018,0.11016 -0.118939,0.101402 -0.0088,-0.0088 -0.05426,0.02964 -0.101119,0.08532 -0.04685,0.05569 -0.09248,0.09395 -0.1014,0.08504 -0.0089,-0.0089 -0.06256,0.03659 -0.11922,0.101118 -0.05666,0.06453 -0.11018,0.11016 -0.118939,0.101402 -0.0088,-0.0088 -0.05426,0.02964 -0.101119,0.08532 -0.04685,0.05569 -0.09248,0.09395 -0.1014,0.08504 -0.0089,-0.0089 -0.06256,0.03659 -0.11922,0.101117 -0.05666,0.06453 -0.11018,0.11016 -0.118939,0.101402 -0.0088,-0.0088 -0.05841,0.0343 -0.110346,0.09568 -0.05193,0.06138 -0.106159,0.108141 -0.120508,0.103911 -0.01435,-0.0042 -0.06358,0.03687 -0.109417,0.09134 -0.04583,0.05447 -0.09075,0.0916 -0.09983,0.08253 -0.0091,-0.0091 -0.05484,0.02906 -0.101694,0.08475 -0.04686,0.05569 -0.09249,0.09395 -0.1014,0.08504 -0.0089,-0.0089 -0.06256,0.03659 -0.119221,0.101118 -0.05666,0.06453 -0.110179,0.11016 -0.118939,0.101402 -0.0088,-0.0088 -0.05426,0.02964 -0.101118,0.08532 -0.04686,0.05569 -0.09248,0.09395 -0.1014,0.08504 -0.0089,-0.0089 -0.06256,0.03659 -0.119221,0.101117 -0.05666,0.06453 -0.110179,0.11016 -0.118939,0.101402 -0.0088,-0.0088 -0.05841,0.0343 -0.110345,0.09568 -0.05193,0.06138 -0.1066,0.107994 -0.121485,0.103585 -0.01489,-0.0044 -0.06752,0.04502 -0.11696,0.109839 -0.04944,0.06482 -0.102281,0.110198 -0.117427,0.100838 -0.01514,-0.0094 -0.06025,0.02893 -0.10023,0.08508 -0.03998,0.05615 -0.09419,0.102094 -0.120454,0.102094 -0.02627,0 -0.07266,0.03801 -0.103095,0.08445 -0.03044,0.04645 -0.06753,0.07692 -0.08244,0.06771 -0.0149,-0.0092 -0.06493,0.02821 -0.111166,0.08316 -0.04624,0.05495 -0.09136,0.09261 -0.100274,0.0837 -0.0089,-0.0089 -0.06256,0.03659 -0.119221,0.101117 -0.05666,0.06453 -0.110179,0.11016 -0.118939,0.101402 -0.0088,-0.0088 -0.05426,0.02964 -0.101118,0.08532 -0.04685,0.05569 -0.09248,0.09395 -0.1014,0.08504 -0.0089,-0.0089 -0.06702,0.04151 -0.129132,0.112049 -0.06211,0.07054 -0.124312,0.124723 -0.138238,0.120404 -0.01393,-0.0043 -0.05783,0.03781 -0.09757,0.09362 -0.03974,0.05581 -0.08495,0.09362 -0.100472,0.08403 -0.01552,-0.0096 -0.06605,0.02752 -0.112282,0.08247 -0.04624,0.05495 -0.09149,0.09248 -0.100567,0.0834 -0.0091,-0.0091 -0.05899,0.03372 -0.110922,0.0951 -0.05193,0.06138 -0.106161,0.10814 -0.120509,0.103911 -0.01435,-0.0042 -0.06359,0.03687 -0.109416,0.09134 -0.04583,0.05447 -0.09076,0.0916 -0.09983,0.08253 -0.0091,-0.0091 -0.05547,0.02981 -0.103096,0.08641 l -0.08659,0.102912 -10.566979,3.06e-4 -10.566979,3.05e-4 0.01726,-1.534005 c 0.0095,-0.843703 0.0062,-1.305192 -0.0073,-1.025531 -0.0135,0.279661 -0.02651,0.969916 -0.02892,1.533899 l -0.0044,1.025454 -5.161017,-0.0075 c -2.838559,-0.0041 -5.487706,-0.01554 -5.8869921,-0.02542 z"
     id="path4160"
     inkscape:connector-curvature="0" />
  <path
     style="opacity:1;fill:#60b1f3;fill-opacity:1;fill-rule:nonzero;stroke:none;stroke-width:1.5;stroke-miterlimit:4;stroke-dasharray:none;stroke-opacity:1"
     d="M 6.0693691,21.963653 C 5.6803858,21.912488 5.2504017,21.695141 5.1642959,21.50616 c -0.021135,-0.04639 -0.06224,-0.07998 -0.091991,-0.07517 -0.046236,0.0075 -0.05354,-0.03947 -0.052049,-0.334474 0.00166,-0.329143 0.00646,-0.350953 0.1172889,-0.533828 0.063555,-0.104865 0.1771815,-0.249757 0.252503,-0.321981 0.075322,-0.07222 3.6149145,-2.942321 7.8657622,-6.377994 4.250847,-3.435673 7.829536,-6.34899 7.952642,-6.4740384 0.15096,-0.1533425 0.277871,-0.2482637 0.38983,-0.2915679 0.161961,-0.062644 0.603781,-0.06462 18.149053,-0.081156 9.890678,-0.00932 18.082204,-0.00668 18.20339,0.00586 0.728166,0.07538 1.191075,0.6764997 0.9744,1.265326 -0.103278,0.280664 -0.249827,0.4321144 -1.042196,1.0770702 -0.438136,0.3566235 -3.921733,3.295767 -7.741323,6.531431 -3.819593,3.235663 -6.971332,5.902576 -7.003867,5.926472 -0.03253,0.0239 -0.164143,0.07347 -0.292468,0.11017 -0.230841,0.06601 -0.425871,0.06668 -18.402913,0.06242 -9.993279,-0.0024 -18.2611245,-0.01634 -18.3729889,-0.03105 z M 9.7838193,19.96632 9.1931844,19.948155 9.4363616,19.751779 c 0.1337472,-0.108008 0.243177,-0.204359 0.243177,-0.214114 0,-0.01624 -0.2414058,0.167818 -0.4915254,0.37476 l -0.1016949,0.08414 0.6440678,-0.006 0.6440679,-0.006 -0.5906347,-0.01817 z M 42.25581,19.880358 c 0.04379,-0.04661 0.07199,-0.08475 0.06266,-0.08475 -0.0093,0 -0.05278,0.03814 -0.09656,0.08475 -0.04379,0.04661 -0.07199,0.08475 -0.06267,0.08475 0.0093,0 0.05278,-0.03814 0.09656,-0.08475 z m 0.220339,-0.18644 c 0.03375,-0.03729 0.05373,-0.0678 0.04441,-0.0678 -0.0093,0 -0.04456,0.03051 -0.07831,0.0678 -0.03375,0.03729 -0.05373,0.0678 -0.04441,0.0678 0.0093,0 0.04456,-0.03051 0.07831,-0.0678 z m 0.20339,-0.169492 c 0.03375,-0.03729 0.05373,-0.0678 0.04441,-0.0678 -0.0093,0 -0.04456,0.03051 -0.07831,0.0678 -0.03375,0.03729 -0.05373,0.0678 -0.04441,0.0678 0.0093,0 0.04456,-0.03051 0.07831,-0.0678 z m -32.8813563,-0.0678 c 0.033745,-0.03729 0.053728,-0.0678 0.044406,-0.0678 -0.00932,0 -0.044559,0.03051 -0.078304,0.0678 -0.033745,0.03729 -0.053728,0.0678 -0.044406,0.0678 0.00932,0 0.044559,-0.03051 0.078304,-0.0678 z m 0.9322033,-0.769315 c 0,-0.01147 -0.0267,0.0019 -0.05932,0.02963 -0.03263,0.02777 -0.214803,0.175088 -0.404836,0.32738 -0.190032,0.152291 -0.3565586,0.294765 -0.3700579,0.316607 -0.0135,0.02184 0.1686769,-0.116094 0.4048359,-0.306526 0.236159,-0.190432 0.42938,-0.355624 0.42938,-0.367093 z m 32.173817,0.642197 c 0.04216,-0.05376 0.04097,-0.05496 -0.0128,-0.0128 -0.03263,0.02559 -0.05932,0.05228 -0.05932,0.05932 0,0.0279 0.02784,0.0099 0.07212,-0.04652 z m 0.453302,-0.381356 c 0.03375,-0.03729 0.05373,-0.0678 0.04441,-0.0678 -0.0093,0 -0.04456,0.03051 -0.07831,0.0678 -0.03374,0.03729 -0.05373,0.0678 -0.04441,0.0678 0.0093,0 0.04456,-0.03051 0.07831,-0.0678 z m 0.220339,-0.186441 c 0.04379,-0.04661 0.07199,-0.08475 0.06266,-0.08475 -0.0093,0 -0.05278,0.03814 -0.09656,0.08475 -0.04379,0.04661 -0.07199,0.08475 -0.06266,0.08475 0.0093,0 0.05278,-0.03814 0.09656,-0.08475 z m -22.548525,-0.70339 -0.0062,-0.652542 -0.01933,0.457627 c -0.01835,0.434461 -0.0092,0.847458 0.01875,0.847458 0.0071,0 0.01011,-0.293644 0.0067,-0.652543 z m -9.248085,-0.218253 c 0,-0.01159 -0.0267,0.0017 -0.05932,0.02959 -0.03263,0.02786 -0.252767,0.205416 -0.4892,0.39456 -0.236433,0.189144 -0.44097,0.361845 -0.454527,0.38378 -0.01356,0.02193 0.206584,-0.146137 0.489201,-0.373492 0.282617,-0.227356 0.513849,-0.422854 0.513849,-0.434441 z m 32.016949,0.735202 c 0.03374,-0.03729 0.05373,-0.0678 0.04441,-0.0678 -0.0093,0 -0.04456,0.03051 -0.07831,0.0678 -0.03375,0.03729 -0.05373,0.0678 -0.04441,0.0678 0.0093,0 0.04456,-0.03051 0.07831,-0.0678 z m 0.20339,-0.169491 c 0.03374,-0.03729 0.05373,-0.0678 0.04441,-0.0678 -0.0093,0 -0.04456,0.03051 -0.07831,0.0678 -0.03375,0.03729 -0.05373,0.0678 -0.04441,0.0678 0.0093,0 0.04456,-0.03051 0.07831,-0.0678 z m 0.224664,-0.194915 c 0.04216,-0.05377 0.04097,-0.05496 -0.0128,-0.0128 -0.03263,0.02559 -0.05932,0.05228 -0.05932,0.05932 0,0.0279 0.02784,0.0099 0.07212,-0.04652 z m 0.440678,-0.372882 c 0.04216,-0.05376 0.04097,-0.05496 -0.0128,-0.0128 -0.03263,0.02559 -0.05932,0.05228 -0.05932,0.05932 0,0.0279 0.02784,0.0099 0.07212,-0.04652 z M 17.31978,13.396837 c 1.974167,-1.59025 3.598743,-2.882035 3.610169,-2.870635 0.01143,0.0114 0.02903,0.572445 0.03911,1.246765 l 0.01833,1.226035 0.0071,-1.292909 0.0071,-1.292909 0.831354,-0.6259373 c 0.855103,-0.643818 1.045296,-0.7703508 1.090291,-0.7253559 0.01431,0.014309 0.03565,0.1051658 0.04741,0.2019032 l 0.0214,0.1758862 0.0048,-0.2288135 0.0048,-0.2288136 -0.101688,0 c -0.08085,0 -0.292082,0.148541 -1.030692,0.7247822 -1.104632,0.8618017 -10.006095,8.0385907 -10.04158,8.0960077 -0.01352,0.02188 0.409066,-0.309959 0.939091,-0.737428 0.530025,-0.427468 2.57891,-2.078328 4.553076,-3.668578 z m 27.563148,4.263182 c 0.03375,-0.03729 0.05373,-0.0678 0.04441,-0.0678 -0.0093,0 -0.04456,0.03051 -0.07831,0.0678 -0.03375,0.03729 -0.05373,0.0678 -0.04441,0.0678 0.0093,0 0.04456,-0.03051 0.07831,-0.0678 z m 0.237289,-0.20339 c 0.03375,-0.03729 0.05373,-0.0678 0.04441,-0.0678 -0.0093,0 -0.04456,0.03051 -0.07831,0.0678 -0.03374,0.03729 -0.05373,0.0678 -0.04441,0.0678 0.0093,0 0.04456,-0.03051 0.0783,-0.0678 z m 0.220339,-0.18644 c 0.04379,-0.04661 0.07199,-0.08475 0.06266,-0.08475 -0.0093,0 -0.05278,0.03814 -0.09656,0.08475 -0.04379,0.04661 -0.07199,0.08475 -0.06266,0.08475 0.0093,0 0.05278,-0.03814 0.09656,-0.08475 z m 0.220339,-0.186441 c 0.03374,-0.03729 0.05373,-0.0678 0.04441,-0.0678 -0.0093,0 -0.04456,0.03051 -0.07831,0.0678 -0.03374,0.03729 -0.05373,0.0678 -0.04441,0.0678 0.0093,0 0.04456,-0.03051 0.07831,-0.0678 z m 0.220339,-0.186441 c 0.04379,-0.04661 0.07199,-0.08475 0.06266,-0.08475 -0.0093,0 -0.05278,0.03814 -0.09656,0.08475 -0.04379,0.04661 -0.07199,0.08475 -0.06266,0.08475 0.0093,0 0.05278,-0.03814 0.09656,-0.08475 z m 0.220339,-0.18644 c 0.03374,-0.03729 0.05373,-0.0678 0.04441,-0.0678 -0.0093,0 -0.04456,0.03051 -0.07831,0.0678 -0.03375,0.03729 -0.05373,0.0678 -0.04441,0.0678 0.0093,0 0.04456,-0.03051 0.07831,-0.0678 z m 0.203389,-0.169492 c 0.03375,-0.03729 0.05373,-0.0678 0.04441,-0.0678 -0.0093,0 -0.04456,0.03051 -0.07831,0.0678 -0.03375,0.03729 -0.05373,0.0678 -0.04441,0.0678 0.0093,0 0.04456,-0.03051 0.07831,-0.0678 z m 0.237289,-0.20339 c 0.03375,-0.03729 0.05373,-0.0678 0.04441,-0.0678 -0.0093,0 -0.04456,0.03051 -0.07831,0.0678 -0.03375,0.03729 -0.05373,0.0678 -0.04441,0.0678 0.0093,0 0.04456,-0.03051 0.07831,-0.0678 z m 0.203389,-0.169491 c 0.03375,-0.03729 0.05373,-0.0678 0.04441,-0.0678 -0.0093,0 -0.04456,0.03051 -0.07831,0.0678 -0.03375,0.03729 -0.05373,0.0678 -0.04441,0.0678 0.0093,0 0.04456,-0.03051 0.07831,-0.0678 z m 0.237288,-0.20339 c 0.03375,-0.03729 0.05373,-0.0678 0.04441,-0.0678 -0.0093,0 -0.04456,0.03051 -0.07831,0.0678 -0.03375,0.03729 -0.05373,0.0678 -0.04441,0.0678 0.0093,0 0.04456,-0.03051 0.07831,-0.0678 z m 0.20339,-0.169492 c 0.03375,-0.03729 0.05373,-0.0678 0.04441,-0.0678 -0.0093,0 -0.04456,0.03051 -0.07831,0.0678 -0.03375,0.03729 -0.05373,0.0678 -0.04441,0.0678 0.0093,0 0.04456,-0.03051 0.07831,-0.0678 z m 0.237288,-0.203389 c 0.03375,-0.03729 0.05373,-0.0678 0.04441,-0.0678 -0.0093,0 -0.04456,0.03051 -0.07831,0.0678 -0.03375,0.03729 -0.05373,0.0678 -0.04441,0.0678 0.0093,0 0.04456,-0.03051 0.07831,-0.0678 z m 0.20339,-0.169492 c 0.03375,-0.03729 0.05373,-0.0678 0.04441,-0.0678 -0.0093,0 -0.04456,0.03051 -0.0783,0.0678 -0.03375,0.03729 -0.05373,0.0678 -0.04441,0.0678 0.0093,0 0.04456,-0.03051 0.07831,-0.0678 z m 0.237288,-0.20339 c 0.03375,-0.03729 0.05373,-0.0678 0.04441,-0.0678 -0.0093,0 -0.04456,0.03051 -0.07831,0.0678 -0.03375,0.03729 -0.05373,0.0678 -0.04441,0.0678 0.0093,0 0.04456,-0.03051 0.07831,-0.0678 z m 0.20339,-0.169491 c 0.03375,-0.03729 0.05373,-0.0678 0.04441,-0.0678 -0.0093,0 -0.04456,0.03051 -0.07831,0.0678 -0.03375,0.03729 -0.05373,0.0678 -0.04441,0.0678 0.0093,0 0.04456,-0.03051 0.07831,-0.0678 z m 0.237288,-0.20339 c 0.03375,-0.03729 0.05373,-0.0678 0.04441,-0.0678 -0.0093,0 -0.04456,0.03051 -0.07831,0.0678 -0.03375,0.03729 -0.05373,0.0678 -0.04441,0.0678 0.0093,0 0.04456,-0.03051 0.07831,-0.0678 z m 0.20339,-0.169492 c 0.03375,-0.03729 0.05373,-0.0678 0.04441,-0.0678 -0.0093,0 -0.04456,0.03051 -0.07831,0.0678 -0.03375,0.03729 -0.05373,0.0678 -0.04441,0.0678 0.0093,0 0.04456,-0.03051 0.07831,-0.0678 z m 0.237288,-0.203389 c 0.03375,-0.03729 0.05373,-0.0678 0.04441,-0.0678 -0.0093,0 -0.04456,0.03051 -0.07831,0.0678 -0.03375,0.03729 -0.05373,0.0678 -0.04441,0.0678 0.0093,0 0.04456,-0.03051 0.07831,-0.0678 z m 0.20339,-0.169492 c 0.03375,-0.03729 0.05373,-0.0678 0.04441,-0.0678 -0.0093,0 -0.04456,0.03051 -0.07831,0.0678 -0.03375,0.03729 -0.05373,0.0678 -0.04441,0.0678 0.0093,0 0.04456,-0.03051 0.07831,-0.0678 z m 0.237288,-0.20339 c 0.03375,-0.03729 0.05373,-0.0678 0.04441,-0.0678 -0.0093,0 -0.04456,0.03051 -0.07831,0.0678 -0.03375,0.03729 -0.05373,0.0678 -0.04441,0.0678 0.0093,0 0.04456,-0.03051 0.07831,-0.0678 z m 0.20339,-0.169491 c 0.03375,-0.03729 0.05373,-0.0678 0.04441,-0.0678 -0.0093,0 -0.04456,0.03051 -0.07831,0.0678 -0.03375,0.03729 -0.05373,0.0678 -0.04441,0.0678 0.0093,0 0.04456,-0.03051 0.07831,-0.0678 z m 0.224665,-0.194916 c 0.04216,-0.05376 0.04097,-0.05496 -0.0128,-0.0128 -0.03263,0.02559 -0.05932,0.05228 -0.05932,0.05932 0,0.0279 0.02784,0.0099 0.07212,-0.04652 z m 0.237288,-0.203389 c 0.04216,-0.05377 0.04097,-0.05496 -0.0128,-0.0128 -0.03263,0.02559 -0.05932,0.05228 -0.05932,0.05932 0,0.0279 0.02784,0.0099 0.07212,-0.04652 z m 0.216013,-0.177967 c 0.03375,-0.03729 0.05373,-0.0678 0.04441,-0.0678 -0.0093,0 -0.04456,0.03051 -0.07831,0.0678 -0.03375,0.03729 -0.05373,0.0678 -0.04441,0.0678 0.0093,0 0.04456,-0.03051 0.07831,-0.0678 z m 0.20339,-0.169491 c 0.03375,-0.03729 0.05373,-0.0678 0.04441,-0.0678 -0.0093,0 -0.04456,0.03051 -0.07831,0.0678 -0.03375,0.03729 -0.05373,0.0678 -0.04441,0.0678 0.0093,0 0.04456,-0.03051 0.07831,-0.0678 z m 0.224664,-0.194915 c 0.04216,-0.05377 0.04097,-0.05496 -0.0128,-0.0128 -0.03263,0.02559 -0.05932,0.05228 -0.05932,0.05932 0,0.0279 0.02784,0.0099 0.07212,-0.04652 z M 51.05242,12.43968 c 0.03375,-0.03729 0.05373,-0.0678 0.04441,-0.0678 -0.0093,0 -0.04456,0.03051 -0.07831,0.0678 -0.03375,0.03729 -0.05373,0.0678 -0.04441,0.0678 0.0093,0 0.04456,-0.03051 0.07831,-0.0678 z m 0.224664,-0.194915 c 0.04216,-0.05376 0.04097,-0.05496 -0.0128,-0.0128 -0.03263,0.02559 -0.05932,0.05228 -0.05932,0.05932 0,0.0279 0.02784,0.0099 0.07212,-0.04652 z m 0.216014,-0.177966 c 0.03375,-0.03729 0.05373,-0.0678 0.04441,-0.0678 -0.0093,0 -0.04456,0.03051 -0.07831,0.0678 -0.03375,0.03729 -0.05373,0.0678 -0.04441,0.0678 0.0093,0 0.04456,-0.03051 0.07831,-0.0678 z m 0.237288,-0.20339 c 0.03375,-0.03729 0.05373,-0.0678 0.04441,-0.0678 -0.0093,0 -0.04456,0.03051 -0.07831,0.0678 -0.03375,0.03729 -0.05373,0.0678 -0.04441,0.0678 0.0093,0 0.04456,-0.03051 0.07831,-0.0678 z m 0.220339,-0.186441 c 0.04379,-0.04661 0.07199,-0.08474 0.06267,-0.08474 -0.0093,0 -0.05278,0.03813 -0.09656,0.08474 -0.04379,0.04661 -0.07199,0.08475 -0.06266,0.08475 0.0093,0 0.05278,-0.03813 0.09656,-0.08475 z m 0.220339,-0.18644 c 0.03375,-0.03729 0.05373,-0.0678 0.04441,-0.0678 -0.0093,0 -0.04456,0.03051 -0.07831,0.0678 -0.03375,0.03729 -0.05373,0.0678 -0.04441,0.0678 0.0093,0 0.04456,-0.03051 0.07831,-0.0678 z m 0.220339,-0.186441 c 0.04379,-0.04661 0.07199,-0.08475 0.06266,-0.08475 -0.0093,0 -0.05278,0.03814 -0.09656,0.08475 -0.04379,0.04661 -0.07199,0.08475 -0.06267,0.08475 0.0093,0 0.05278,-0.03814 0.09656,-0.08475 z m 0.220339,-0.186441 c 0.03375,-0.03729 0.05373,-0.0678 0.04441,-0.0678 -0.0093,0 -0.04456,0.03051 -0.07831,0.0678 -0.03375,0.03729 -0.05373,0.0678 -0.04441,0.0678 0.0093,0 0.04456,-0.03051 0.07831,-0.0678 z m 0.220339,-0.18644 c 0.04379,-0.04661 0.07199,-0.08475 0.06266,-0.08475 -0.0093,0 -0.05278,0.03813 -0.09656,0.08475 -0.04379,0.04661 -0.07199,0.08474 -0.06267,0.08474 0.0093,0 0.05278,-0.03813 0.09656,-0.08474 z m 0.237288,-0.20339 c 0.04379,-0.04661 0.07199,-0.08475 0.06266,-0.08475 -0.0093,0 -0.05278,0.03814 -0.09656,0.08475 -0.04379,0.04661 -0.07199,0.08475 -0.06267,0.08475 0.0093,0 0.05278,-0.03814 0.09656,-0.08475 z m 0.20339,-0.169492 c 0.04379,-0.04661 0.07199,-0.08474 0.06266,-0.08474 -0.0093,0 -0.05278,0.03813 -0.09656,0.08474 -0.04379,0.04661 -0.07199,0.08475 -0.06267,0.08475 0.0093,0 0.05278,-0.03814 0.09656,-0.08475 z m 0.20339,-0.169491 c 0.04379,-0.04661 0.07199,-0.08475 0.06266,-0.08475 -0.0093,0 -0.05278,0.03814 -0.09656,0.08475 -0.04379,0.04661 -0.07199,0.08475 -0.06266,0.08475 0.0093,0 0.05278,-0.03814 0.09656,-0.08475 z m 0.237288,-0.20339 c 0.04379,-0.04661 0.07199,-0.08475 0.06266,-0.08475 -0.0093,0 -0.05278,0.03814 -0.09656,0.08475 -0.04379,0.04661 -0.07199,0.08475 -0.06266,0.08475 0.0093,0 0.05278,-0.03814 0.09656,-0.08475 z m 0.20339,-0.169492 c 0.04379,-0.04661 0.07199,-0.084745 0.06266,-0.084745 -0.0093,0 -0.05278,0.038136 -0.09656,0.084745 -0.04379,0.04661 -0.07199,0.08475 -0.06266,0.08475 0.0093,0 0.05278,-0.03814 0.09656,-0.08475 z m 0.237288,-0.2033894 c 0.04379,-0.04661 0.07199,-0.084746 0.06266,-0.084746 -0.0093,0 -0.05278,0.038136 -0.09656,0.084746 -0.04379,0.04661 -0.07199,0.084746 -0.06266,0.084746 0.0093,0 0.05278,-0.038136 0.09656,-0.084746 z m 0.222471,-0.1949153 0.09956,-0.1101695 -0.11017,0.099562 c -0.102695,0.092806 -0.125752,0.1207766 -0.09956,0.1207766 0.0058,0 0.05541,-0.049576 0.110169,-0.1101695 z m 0.218207,-0.1779661 c 0.04379,-0.04661 0.07199,-0.084746 0.06266,-0.084746 -0.0093,0 -0.05278,0.038135 -0.09656,0.084746 -0.04379,0.04661 -0.07199,0.084746 -0.06267,0.084746 0.0093,0 0.05278,-0.038136 0.09656,-0.084746 z m 0.222471,-0.1949152 0.09956,-0.1101695 -0.11017,0.099562 c -0.102695,0.092806 -0.125752,0.1207766 -0.09956,0.1207766 0.0058,0 0.05541,-0.049576 0.110169,-0.1101695 z m 0.218207,-0.1779661 0.07961,-0.084746 -14.844891,0.00566 -14.844892,0.00566 14.644068,0.026493 c 8.054237,0.014571 14.693644,0.035597 14.754237,0.046724 0.06059,0.011127 0.11017,0.034794 0.11017,0.052593 0,0.048086 0.01416,0.040791 0.101695,-0.052383 z"
     id="path4162"
     inkscape:connector-curvature="0" />
  <path
     style="opacity:1;fill:#60b1f3;fill-opacity:1;fill-rule:nonzero;stroke:none;stroke-width:1.5;stroke-miterlimit:4;stroke-dasharray:none;stroke-opacity:1"
     d="m 6.4761488,21.965714 c -0.5199107,-0.01784 -0.6384748,-0.03213 -0.8015194,-0.09662 -0.2370757,-0.09377 -0.4598521,-0.25214 -0.510236,-0.36272 -0.021579,-0.04736 -0.066825,-0.08364 -0.1043102,-0.08364 -0.062239,0 -0.065394,-0.02079 -0.052728,-0.347458 0.01285,-0.3314 0.019107,-0.356073 0.1353938,-0.533898 0.067057,-0.102542 0.188572,-0.249289 0.2700335,-0.326103 0.081462,-0.07681 1.4676035,-1.206335 3.0803153,-2.510048 C 19.852038,8.522685 20.860867,7.7032696 21.159561,7.4169714 c 0.386734,-0.3706863 0.330025,-0.3586361 1.791164,-0.3806026 0.689831,-0.010371 8.874616,-0.019563 18.18841,-0.020428 14.427949,-0.00134 16.953953,0.00545 17.067797,0.045864 0.374,0.1327692 0.563485,0.2966291 0.716339,0.6194653 0.07312,0.1544216 0.08329,0.2115134 0.0643,0.3607622 -0.02862,0.2249406 -0.158488,0.4952181 -0.318824,0.6635588 -0.06864,0.072066 -0.46802,0.4112209 -0.887511,0.7536783 -0.419492,0.3424574 -2.539831,2.12617 -4.711865,3.963805 -8.509691,7.199571 -9.516112,8.051869 -9.734776,8.244012 -0.154993,0.136191 -0.283176,0.216688 -0.40678,0.255453 -0.167556,0.05255 -1.457078,0.05687 -18.010986,0.06035 -9.80678,0.0021 -18.105085,-0.0057 -18.4406782,-0.01718 z m 3.1053457,-1.992062 -0.3861793,-0.01086 0.080972,-0.09207 c 0.075643,-0.08601 0.073183,-0.08537 -0.03738,0.0096 -0.065093,0.05593 -0.1247837,0.105509 -0.1326451,0.11017 -0.00786,0.0047 0.1827404,0.0052 0.4235594,0.0012 l 0.4378532,-0.0072 -0.3861797,-0.01086 z M 42.260135,19.871884 c 0.04216,-0.05377 0.04097,-0.05496 -0.0128,-0.0128 -0.03263,0.02559 -0.05932,0.05228 -0.05932,0.05932 0,0.0279 0.02784,0.0099 0.07212,-0.04652 z M 9.4591996,19.727816 c 0.033745,-0.03729 0.053728,-0.0678 0.044406,-0.0678 -0.00932,0 -0.044559,0.03051 -0.078304,0.0678 -0.033745,0.03729 -0.053728,0.0678 -0.044406,0.0678 0.00932,0 0.044559,-0.03051 0.078304,-0.0678 z m 0.1568665,-0.127119 c 0.042165,-0.05376 0.040966,-0.05496 -0.012799,-0.0128 -0.032627,0.02559 -0.059322,0.05228 -0.059322,0.05932 0,0.0279 0.027837,0.0099 0.072121,-0.04652 z m 0.1821166,-0.144068 c 0.033745,-0.03729 0.053728,-0.0678 0.044406,-0.0678 -0.00932,0 -0.044559,0.03051 -0.078304,0.0678 -0.033745,0.03729 -0.053728,0.0678 -0.044406,0.0678 0.00932,0 0.044559,-0.03051 0.078304,-0.0678 z m 0.1907647,-0.161017 c 0.042165,-0.05376 0.040967,-0.05496 -0.012799,-0.0128 -0.056466,0.04428 -0.074423,0.07212 -0.046523,0.07212 0.00704,0 0.033734,-0.02669 0.059322,-0.05932 z m 0.1694916,-0.135593 c 0.04217,-0.05376 0.04097,-0.05496 -0.0128,-0.0128 -0.05647,0.04428 -0.07442,0.07212 -0.04652,0.07212 0.007,0 0.03373,-0.0267 0.05932,-0.05932 z m 0.182117,-0.144068 c 0.03375,-0.03729 0.05373,-0.0678 0.04441,-0.0678 -0.0093,0 -0.04456,0.03051 -0.07831,0.0678 -0.03374,0.03729 -0.05373,0.0678 -0.04441,0.0678 0.0093,0 0.04456,-0.03051 0.07831,-0.0678 z m 0.169491,-0.135593 c 0.03374,-0.03729 0.05373,-0.0678 0.04441,-0.0678 -0.0093,0 -0.04456,0.03051 -0.0783,0.0678 -0.03375,0.03729 -0.05373,0.0678 -0.04441,0.0678 0.0093,0 0.04456,-0.03051 0.0783,-0.0678 z m 0.156867,-0.127118 c 0.04216,-0.05377 0.04097,-0.05496 -0.0128,-0.0128 -0.03263,0.02559 -0.05932,0.05228 -0.05932,0.05932 0,0.0279 0.02784,0.0099 0.07212,-0.04652 z m 32.915255,0 c 0.04216,-0.05377 0.04097,-0.05496 -0.0128,-0.0128 -0.03263,0.02559 -0.05932,0.05228 -0.05932,0.05932 0,0.0279 0.02784,0.0099 0.07212,-0.04652 z M 10.870303,18.583748 c 0.04217,-0.05376 0.04097,-0.05496 -0.0128,-0.0128 -0.03263,0.02559 -0.05932,0.05228 -0.05932,0.05932 0,0.0279 0.02784,0.0099 0.07212,-0.04652 z m 0.148219,-0.110169 c 0.03374,-0.03729 0.05373,-0.0678 0.04441,-0.0678 -0.0093,0 -0.04456,0.03051 -0.07831,0.0678 -0.03374,0.03729 -0.05373,0.0678 -0.04441,0.0678 0.0093,0 0.04456,-0.03051 0.07831,-0.0678 z m 0.18644,-0.152543 c 0.04379,-0.04661 0.07199,-0.08475 0.06267,-0.08475 -0.0093,0 -0.05278,0.03814 -0.09656,0.08475 -0.04379,0.04661 -0.07199,0.08475 -0.06266,0.08475 0.0093,0 0.05278,-0.03814 0.09656,-0.08475 z m 0.186441,-0.152542 c 0.03374,-0.03729 0.05373,-0.0678 0.04441,-0.0678 -0.0093,0 -0.04456,0.03051 -0.0783,0.0678 -0.03375,0.03729 -0.05373,0.0678 -0.04441,0.0678 0.0093,0 0.04456,-0.03051 0.0783,-0.0678 z m 0.169492,-0.135593 c 0.03374,-0.03729 0.05373,-0.0678 0.04441,-0.0678 -0.0093,0 -0.04456,0.03051 -0.07831,0.0678 -0.03374,0.03729 -0.05373,0.0678 -0.04441,0.0678 0.0093,0 0.04456,-0.03051 0.07831,-0.0678 z m 0.156866,-0.127119 c 0.04217,-0.05376 0.04097,-0.05496 -0.0128,-0.0128 -0.03263,0.02559 -0.05932,0.05228 -0.05932,0.05932 0,0.0279 0.02784,0.0099 0.07212,-0.04652 z m 0.372881,-0.305085 c 0.04216,-0.05376 0.04097,-0.05496 -0.0128,-0.0128 -0.05647,0.04428 -0.07442,0.07212 -0.04652,0.07212 0.007,0 0.03373,-0.02669 0.05932,-0.05932 z m 0.169492,-0.135593 c 0.04216,-0.05376 0.04097,-0.05496 -0.0128,-0.0128 -0.03263,0.02559 -0.05932,0.05228 -0.05932,0.05932 0,0.0279 0.02784,0.0099 0.07212,-0.04652 z m 0.169491,-0.135593 c 0.04217,-0.05376 0.04097,-0.05496 -0.0128,-0.0128 -0.03263,0.02559 -0.05932,0.05228 -0.05932,0.05932 0,0.0279 0.02784,0.0099 0.07212,-0.04652 z m 32.915256,-0.0678 c 0.04216,-0.05377 0.04097,-0.05496 -0.0128,-0.0128 -0.03263,0.02559 -0.05932,0.05228 -0.05932,0.05932 0,0.0279 0.02784,0.0099 0.07212,-0.04652 z m -32.733139,-0.07627 c 0.03374,-0.03729 0.05373,-0.0678 0.04441,-0.0678 -0.0093,0 -0.04456,0.03051 -0.0783,0.0678 -0.03375,0.03729 -0.05373,0.0678 -0.04441,0.0678 0.0093,0 0.04456,-0.03051 0.0783,-0.0678 z m 0.169492,-0.135593 c 0.03374,-0.03729 0.05373,-0.0678 0.04441,-0.0678 -0.0093,0 -0.04456,0.03051 -0.07831,0.0678 -0.03374,0.03729 -0.05373,0.0678 -0.04441,0.0678 0.0093,0 0.04456,-0.03051 0.07831,-0.0678 z m 0.169491,-0.135594 c 0.03374,-0.03729 0.05373,-0.0678 0.04441,-0.0678 -0.0093,0 -0.04456,0.03051 -0.0783,0.0678 -0.03375,0.03729 -0.05373,0.0678 -0.04441,0.0678 0.0093,0 0.04456,-0.03051 0.0783,-0.0678 z m 32.834834,-0.02542 c 0.04216,-0.05377 0.04097,-0.05496 -0.0128,-0.0128 -0.03263,0.02559 -0.05932,0.05228 -0.05932,0.05932 0,0.0279 0.02784,0.0099 0.07212,-0.04652 z m -32.665342,-0.11017 c 0.03374,-0.03729 0.05373,-0.0678 0.04441,-0.0678 -0.0093,0 -0.04456,0.03051 -0.07831,0.0678 -0.03374,0.03729 -0.05373,0.0678 -0.04441,0.0678 0.0093,0 0.04456,-0.03051 0.07831,-0.0678 z m 0.423728,-0.362245 c 0,-0.0093 -0.07627,0.04691 -0.169491,0.124957 -0.09322,0.07805 -0.169492,0.149534 -0.169492,0.158856 0,0.0093 0.07627,-0.04691 0.169492,-0.124958 0.09322,-0.07805 0.169491,-0.149533 0.169491,-0.158855 z m 0.118644,-0.07843 c 0.03375,-0.03729 0.05373,-0.0678 0.04441,-0.0678 -0.0093,0 -0.04456,0.03051 -0.07831,0.0678 -0.03374,0.03729 -0.05373,0.0678 -0.04441,0.0678 0.0093,0 0.04456,-0.03051 0.0783,-0.0678 z m 32.800936,-0.02542 c 0.04216,-0.05376 0.04097,-0.05496 -0.0128,-0.0128 -0.03263,0.02559 -0.05932,0.05228 -0.05932,0.05932 0,0.0279 0.02784,0.0099 0.07212,-0.04652 z m -32.631444,-0.11017 c 0.03374,-0.03729 0.05373,-0.0678 0.04441,-0.0678 -0.0093,0 -0.04456,0.03051 -0.0783,0.0678 -0.03375,0.03729 -0.05373,0.0678 -0.04441,0.0678 0.0093,0 0.04456,-0.03051 0.0783,-0.0678 z m 0.169492,-0.135593 c 0.03374,-0.03729 0.05373,-0.0678 0.04441,-0.0678 -0.0093,0 -0.04456,0.03051 -0.07831,0.0678 -0.03375,0.03729 -0.05373,0.0678 -0.04441,0.0678 0.0093,0 0.04456,-0.03051 0.07831,-0.0678 z m 0.169491,-0.135593 c 0.03374,-0.03729 0.05373,-0.0678 0.04441,-0.0678 -0.0093,0 -0.04456,0.03051 -0.0783,0.0678 -0.03375,0.03729 -0.05373,0.0678 -0.04441,0.0678 0.0093,0 0.04456,-0.03051 0.0783,-0.0678 z m 0.423729,-0.362246 c 0,-0.0093 -0.07627,0.04691 -0.169492,0.124958 -0.09322,0.07805 -0.169491,0.149533 -0.169491,0.158855 0,0.0093 0.07627,-0.04691 0.169491,-0.124957 0.09322,-0.07805 0.169492,-0.149534 0.169492,-0.158856 z m 0.118644,-0.07843 c 0.03374,-0.03729 0.05373,-0.0678 0.04441,-0.0678 -0.0093,0 -0.04456,0.03051 -0.0783,0.0678 -0.03375,0.03729 -0.05373,0.0678 -0.04441,0.0678 0.0093,0 0.04456,-0.03051 0.0783,-0.0678 z m 0.169491,-0.135594 c 0.03375,-0.03729 0.05373,-0.0678 0.04441,-0.0678 -0.0093,0 -0.04456,0.03051 -0.0783,0.0678 -0.03375,0.03729 -0.05373,0.0678 -0.04441,0.0678 0.0093,0 0.04456,-0.03051 0.0783,-0.0678 z m 0.169492,-0.135593 c 0.03374,-0.03729 0.05373,-0.0678 0.04441,-0.0678 -0.0093,0 -0.04456,0.03051 -0.0783,0.0678 -0.03375,0.03729 -0.05373,0.0678 -0.04441,0.0678 0.0093,0 0.04456,-0.03051 0.0783,-0.0678 z m 0.762712,-0.63045 c 0,-0.0093 -0.152543,0.106584 -0.338983,0.257569 -0.186441,0.150985 -0.338983,0.282145 -0.338983,0.291467 0,0.0093 0.152542,-0.106584 0.338983,-0.257569 0.18644,-0.150985 0.338983,-0.282145 0.338983,-0.291467 z m 0.118644,-0.08141 c 0.03374,-0.03729 0.05373,-0.0678 0.04441,-0.0678 -0.0093,0 -0.04456,0.03051 -0.0783,0.0678 -0.03375,0.03729 -0.05373,0.0678 -0.04441,0.0678 0.0093,0 0.04456,-0.03051 0.07831,-0.0678 z m 0.169491,-0.135593 c 0.03375,-0.03729 0.05373,-0.0678 0.04441,-0.0678 -0.0093,0 -0.04456,0.03051 -0.07831,0.0678 -0.03374,0.03729 -0.05373,0.0678 -0.04441,0.0678 0.0093,0 0.04456,-0.03051 0.0783,-0.0678 z m 0.932204,-0.765412 c 0,-0.0093 -0.190678,0.136808 -0.423729,0.324734 -0.233051,0.187925 -0.423729,0.34931 -0.423729,0.358632 0,0.0093 0.190678,-0.136808 0.423729,-0.324734 0.233051,-0.187926 0.423729,-0.34931 0.423729,-0.358632 z m 0.118644,-0.08205 c 0.03374,-0.03729 0.05373,-0.0678 0.04441,-0.0678 -0.0093,0 -0.04456,0.03051 -0.0783,0.0678 -0.03375,0.03729 -0.05373,0.0678 -0.04441,0.0678 0.0093,0 0.04456,-0.03051 0.07831,-0.0678 z m 3.131398,-2.517416 c 0.342608,-0.27625 0.632438,-0.492783 0.644068,-0.481183 0.01163,0.0116 0.02951,0.46603 0.03974,1.009845 l 0.0186,0.988754 0.0068,-1.052542 c 0.0051,-0.786378 0.01754,-1.064394 0.0492,-1.099406 0.02331,-0.02578 -0.07966,0.05233 -0.228813,0.173567 -0.149153,0.121238 -1.014831,0.818768 -1.923729,1.550068 -0.908898,0.731299 -1.652542,1.337229 -1.652542,1.346511 0,0.01482 0.892357,-0.698568 3.046652,-2.435614 z m 31.669538,0.661484 c 0.04216,-0.05377 0.04097,-0.05496 -0.0128,-0.0128 -0.03263,0.02559 -0.05932,0.05228 -0.05932,0.05932 0,0.0279 0.02784,0.0099 0.07212,-0.04652 z m 0.440677,-0.372882 c 0.04216,-0.05376 0.04097,-0.05496 -0.0128,-0.0128 -0.03263,0.02559 -0.05932,0.05228 -0.05932,0.05932 0,0.0279 0.02784,0.0099 0.07212,-0.04652 z m 0.440678,-0.372881 c 0.04216,-0.05377 0.04097,-0.05496 -0.0128,-0.0128 -0.03263,0.02559 -0.05932,0.05228 -0.05932,0.05932 0,0.0279 0.02784,0.0099 0.07212,-0.04652 z m 0.237289,-0.20339 c 0.04216,-0.05377 0.04097,-0.05496 -0.0128,-0.0128 -0.03263,0.02559 -0.05932,0.05228 -0.05932,0.05932 0,0.0279 0.02784,0.0099 0.07212,-0.04652 z m 0.203389,-0.169491 c 0.04216,-0.05376 0.04097,-0.05496 -0.0128,-0.0128 -0.03263,0.02559 -0.05932,0.05228 -0.05932,0.05932 0,0.0279 0.02784,0.0099 0.07212,-0.04652 z m 0.20339,-0.169492 c 0.04216,-0.05376 0.04097,-0.05496 -0.0128,-0.0128 -0.03263,0.02559 -0.05932,0.05228 -0.05932,0.05932 0,0.0279 0.02784,0.0099 0.07212,-0.04652 z M 22.779346,9.0993432 c 0.06482,-0.034908 0.12891,-0.052414 0.142422,-0.038903 0.01351,0.013512 0.03509,0.089114 0.04794,0.1680049 0.02308,0.14161 0.02343,0.1409539 0.02762,-0.051477 0.004,-0.1831856 -5.49e-4,-0.1949152 -0.0754,-0.1949152 -0.04381,0 -0.141889,0.041949 -0.217964,0.09322 -0.189626,0.1277981 -1.563856,1.1966286 -1.587285,1.2345366 -0.01038,0.0168 0.33295,-0.234398 0.762965,-0.5582238 0.430016,-0.3238255 0.834881,-0.6173348 0.899702,-0.652243 z m 30.938416,1.0776248 c 0.04216,-0.05376 0.04097,-0.05496 -0.0128,-0.0128 -0.03263,0.02559 -0.05932,0.05228 -0.05932,0.05932 0,0.0279 0.02784,0.0099 0.07212,-0.04652 z m 0.20339,-0.169491 c 0.04216,-0.053765 0.04097,-0.054964 -0.0128,-0.012799 -0.03263,0.025588 -0.05932,0.052283 -0.05932,0.059322 0,0.0279 0.02784,0.0099 0.07212,-0.04652 z m 0.237288,-0.20339 c 0.04216,-0.053765 0.04097,-0.054964 -0.0128,-0.012799 -0.03263,0.025588 -0.05932,0.052283 -0.05932,0.059322 0,0.027899 0.02784,0.00994 0.07212,-0.046524 z m 0.20339,-0.1694915 c 0.04216,-0.053765 0.04097,-0.054964 -0.0128,-0.012798 -0.03263,0.025588 -0.05932,0.052283 -0.05932,0.059322 0,0.0279 0.02784,0.00994 0.07212,-0.046524 z m 0.237288,-0.2033899 c 0.04216,-0.053765 0.04097,-0.054964 -0.0128,-0.012798 -0.03263,0.025588 -0.05932,0.052283 -0.05932,0.059322 0,0.0279 0.02784,0.00994 0.07212,-0.046524 z m 0.216014,-0.1779661 c 0.03375,-0.037288 0.05373,-0.067797 0.04441,-0.067797 -0.0093,0 -0.04456,0.030508 -0.07831,0.067797 -0.03375,0.037288 -0.05373,0.067797 -0.04441,0.067797 0.0093,0 0.04456,-0.030508 0.07831,-0.067797 z m 0.220339,-0.1864406 0.07961,-0.084746 -12.6754,0.00567 -12.6754,0.00567 11.779661,0.026592 c 13.399478,0.030249 13.361712,0.029997 13.381394,0.08919 0.01849,0.055624 0.01783,0.055879 0.110132,-0.042373 z"
     id="path4164"
     inkscape:connector-curvature="0" />
  <path
     style="opacity:1;fill:#60b1f3;fill-opacity:1;fill-rule:nonzero;stroke:none;stroke-width:1.5;stroke-miterlimit:4;stroke-dasharray:none;stroke-opacity:1"
     d="M 6.3236064,21.964751 C 5.8474581,21.940961 5.6919446,21.902821 5.4190861,21.742915 5.3398697,21.696491 5.2345933,21.605458 5.1851385,21.540619 5.1356837,21.475781 5.0724197,21.422731 5.0445519,21.422731 c -0.04254,0 -0.048508,-0.05574 -0.037197,-0.347458 0.012808,-0.330335 0.019426,-0.356645 0.1342866,-0.533898 0.066448,-0.102542 0.19559,-0.255443 0.2869826,-0.33978 0.091393,-0.08434 1.4398971,-1.183674 2.9966768,-2.442972 C 20.695678,7.8329631 20.86232,7.697552 21.17255,7.4003339 c 0.324577,-0.3109625 0.421988,-0.3447144 1.051467,-0.3643244 0.287825,-0.00897 8.471703,-0.017489 18.186396,-0.01894 15.200488,-0.00227 17.682153,0.00409 17.799905,0.045639 0.34738,0.122562 0.558705,0.2932839 0.681319,0.5504117 0.03008,0.063082 0.06414,0.1146952 0.07569,0.1146952 0.0389,0 0.0381,0.283296 -0.0013,0.4473566 -0.07498,0.3125721 -0.249783,0.5205491 -0.849227,1.0104214 -0.96321,0.7871436 -7.213061,6.0632382 -14.01,11.8271762 -0.836997,0.70979 -1.043492,0.868837 -1.186441,0.913814 -0.157969,0.0497 -1.741963,0.05474 -18.156119,0.05774 -9.890678,0.0018 -18.1889827,-0.007 -18.4406776,-0.01958 z m 3.1063952,-1.990972 c -0.2282498,-0.01172 -0.2314711,-0.01318 -0.1727122,-0.07811 0.088179,-0.09744 0.040891,-0.08064 -0.052327,0.01858 l -0.079614,0.08475 0.268621,-0.0066 0.2686206,-0.0066 -0.2325878,-0.01195 z M 10.32793,19.024426 c 0.04217,-0.05376 0.04097,-0.05496 -0.0128,-0.0128 -0.03263,0.02559 -0.05932,0.05228 -0.05932,0.05932 0,0.0279 0.02784,0.0099 0.07212,-0.04652 z m 0.881356,-0.711864 c 0.04216,-0.05376 0.04097,-0.05496 -0.0128,-0.0128 -0.03263,0.02559 -0.05932,0.05228 -0.05932,0.05932 0,0.0279 0.02784,0.0099 0.07212,-0.04652 z m 0.169492,-0.135594 c 0.04216,-0.05376 0.04097,-0.05496 -0.0128,-0.0128 -0.03263,0.02559 -0.05932,0.05228 -0.05932,0.05932 0,0.0279 0.02784,0.0099 0.07212,-0.04652 z m 1.932203,-1.559322 c 0.04217,-0.05376 0.04097,-0.05496 -0.0128,-0.0128 -0.05647,0.04428 -0.07442,0.07212 -0.04652,0.07212 0.007,0 0.03373,-0.0267 0.05932,-0.05932 z m 0.169492,-0.135593 c 0.04217,-0.05377 0.04097,-0.05496 -0.0128,-0.0128 -0.05647,0.04428 -0.07442,0.07212 -0.04652,0.07212 0.007,0 0.03373,-0.0267 0.05932,-0.05932 z m 0.169491,-0.135593 c 0.04216,-0.05377 0.04097,-0.05496 -0.0128,-0.0128 -0.03263,0.02559 -0.05932,0.05228 -0.05932,0.05932 0,0.0279 0.02784,0.0099 0.07212,-0.04652 z m 0.169492,-0.135593 c 0.04216,-0.05377 0.04097,-0.05496 -0.0128,-0.0128 -0.05647,0.04428 -0.07442,0.07212 -0.04652,0.07212 0.007,0 0.03373,-0.0267 0.05932,-0.05932 z m 0.542373,-0.440678 c 0.04217,-0.05377 0.04097,-0.05496 -0.0128,-0.0128 -0.05647,0.04428 -0.07442,0.07212 -0.04652,0.07212 0.007,0 0.03373,-0.0267 0.05932,-0.05932 z m 0.169491,-0.135594 c 0.04217,-0.05376 0.04097,-0.05496 -0.0128,-0.0128 -0.05647,0.04428 -0.07442,0.07212 -0.04652,0.07212 0.007,0 0.03373,-0.0267 0.05932,-0.05932 z m 0.169492,-0.135593 c 0.04216,-0.05376 0.04097,-0.05496 -0.0128,-0.0128 -0.05647,0.04428 -0.07442,0.07212 -0.04652,0.07212 0.007,0 0.03373,-0.0267 0.05932,-0.05932 z m 0.169491,-0.135593 c 0.04217,-0.05377 0.04097,-0.05496 -0.0128,-0.0128 -0.03263,0.02559 -0.05932,0.05228 -0.05932,0.05932 0,0.0279 0.02784,0.0099 0.07212,-0.04652 z m 0.372882,-0.305085 c 0.04216,-0.05376 0.04097,-0.05496 -0.0128,-0.0128 -0.05647,0.04428 -0.07442,0.07212 -0.04652,0.07212 0.007,0 0.03373,-0.0267 0.05932,-0.05932 z m 0.169491,-0.135593 c 0.04217,-0.05377 0.04097,-0.05496 -0.0128,-0.0128 -0.05647,0.04428 -0.07442,0.07212 -0.04652,0.07212 0.007,0 0.03373,-0.0267 0.05932,-0.05932 z m 0.169492,-0.135593 c 0.04217,-0.05377 0.04097,-0.05496 -0.0128,-0.0128 -0.05647,0.04428 -0.07442,0.07212 -0.04652,0.07212 0.007,0 0.03373,-0.0267 0.05932,-0.05932 z m 0.169491,-0.135593 c 0.04217,-0.05377 0.04097,-0.05496 -0.0128,-0.0128 -0.05647,0.04428 -0.07442,0.07212 -0.04652,0.07212 0.007,0 0.03373,-0.0267 0.05932,-0.05932 z m 0.169492,-0.135594 c 0.04217,-0.05376 0.04097,-0.05496 -0.0128,-0.0128 -0.05647,0.04428 -0.07442,0.07212 -0.04652,0.07212 0.007,0 0.03373,-0.02669 0.05932,-0.05932 z m 0.169491,-0.135593 c 0.04217,-0.05376 0.04097,-0.05496 -0.0128,-0.0128 -0.05647,0.04428 -0.07442,0.07212 -0.04652,0.07212 0.007,0 0.03373,-0.02669 0.05932,-0.05932 z m 0.20339,-0.169491 c 0.04216,-0.05377 0.04097,-0.05496 -0.0128,-0.0128 -0.05647,0.04428 -0.07442,0.07212 -0.04652,0.07212 0.007,0 0.03373,-0.0267 0.05932,-0.05932 z m 0.169492,-0.135594 c 0.04217,-0.05376 0.04097,-0.05496 -0.0128,-0.0128 -0.05647,0.04428 -0.07442,0.07212 -0.04652,0.07212 0.007,0 0.03373,-0.02669 0.05932,-0.05932 z m 0.148218,-0.110169 c 0.03374,-0.03729 0.05373,-0.0678 0.04441,-0.0678 -0.0093,0 -0.04456,0.03051 -0.0783,0.0678 -0.03375,0.03729 -0.05373,0.0678 -0.04441,0.0678 0.0093,0 0.04456,-0.03051 0.0783,-0.0678 z m 0.190765,-0.161017 c 0.04217,-0.05377 0.04097,-0.05496 -0.0128,-0.0128 -0.05647,0.04428 -0.07442,0.07212 -0.04652,0.07212 0.007,0 0.03373,-0.0267 0.05932,-0.05932 z m 0.169491,-0.135593 c 0.04217,-0.05377 0.04097,-0.05496 -0.0128,-0.0128 -0.05647,0.04428 -0.07442,0.07212 -0.04652,0.07212 0.007,0 0.03373,-0.0267 0.05932,-0.05932 z m 0.169492,-0.135593 c 0.04217,-0.05377 0.04097,-0.05496 -0.0128,-0.0128 -0.05647,0.04428 -0.07442,0.07212 -0.04652,0.07212 0.007,0 0.03373,-0.0267 0.05932,-0.05932 z m 0.372881,-0.305085 c 0.04217,-0.05377 0.04097,-0.05496 -0.0128,-0.0128 -0.05647,0.04428 -0.07442,0.07212 -0.04652,0.07212 0.007,0 0.03373,-0.0267 0.05932,-0.05932 z m 0.169492,-0.135593 c 0.04217,-0.05377 0.04097,-0.05496 -0.0128,-0.0128 -0.03263,0.02559 -0.05932,0.05228 -0.05932,0.05932 0,0.0279 0.02784,0.0099 0.07212,-0.04652 z m 0.169491,-0.135594 c 0.04217,-0.05376 0.04097,-0.05496 -0.0128,-0.0128 -0.05647,0.04428 -0.07442,0.07212 -0.04652,0.07212 0.007,0 0.03373,-0.0267 0.05932,-0.05932 z m 0.169492,-0.135593 c 0.04216,-0.05377 0.04097,-0.05496 -0.0128,-0.0128 -0.05647,0.04428 -0.07442,0.07212 -0.04652,0.07212 0.007,0 0.03373,-0.0267 0.05932,-0.05932 z m 0.182116,-0.144068 c 0.03375,-0.03729 0.05373,-0.0678 0.04441,-0.0678 -0.0093,0 -0.04456,0.03051 -0.0783,0.0678 -0.03374,0.03729 -0.05373,0.0678 -0.04441,0.0678 0.0093,0 0.04456,-0.03051 0.0783,-0.0678 z m 0.169492,-0.135593 c 0.03374,-0.03729 0.05373,-0.0678 0.04441,-0.0678 -0.0093,0 -0.04456,0.03051 -0.0783,0.0678 -0.03375,0.03729 -0.05373,0.0678 -0.04441,0.0678 0.0093,0 0.04456,-0.03051 0.07831,-0.0678 z m 0.169491,-0.135593 c 0.03375,-0.03729 0.05373,-0.0678 0.04441,-0.0678 -0.0093,0 -0.04456,0.03051 -0.0783,0.0678 -0.03374,0.03729 -0.05373,0.0678 -0.04441,0.0678 0.0093,0 0.04456,-0.03051 0.0783,-0.0678 z m 0.169492,-0.135593 c 0.03374,-0.03729 0.05373,-0.0678 0.04441,-0.0678 -0.0093,0 -0.04456,0.03051 -0.0783,0.0678 -0.03375,0.03729 -0.05373,0.0678 -0.04441,0.0678 0.0093,0 0.04456,-0.03051 0.0783,-0.0678 z m 0.169491,-0.135594 c 0.03375,-0.03729 0.05373,-0.0678 0.04441,-0.0678 -0.0093,0 -0.04456,0.03051 -0.07831,0.0678 -0.03374,0.03729 -0.05373,0.0678 -0.04441,0.0678 0.0093,0 0.04456,-0.03051 0.0783,-0.0678 z m 0.593221,-0.49588 c 0,-0.0093 -0.114407,0.07654 -0.254238,0.190796 -0.13983,0.114259 -0.254237,0.215372 -0.254237,0.224694 0,0.0093 0.114407,-0.07654 0.254237,-0.190796 0.139831,-0.11426 0.254238,-0.215372 0.254238,-0.224694 z m 1.533625,-0.727531 0.0087,-0.528496 -0.415255,0.334931 c -0.228389,0.184212 -0.415254,0.342426 -0.415254,0.351587 0,0.0092 0.163809,-0.115119 0.36402,-0.276178 0.347085,-0.279213 0.365062,-0.289118 0.386451,-0.212922 0.01234,0.04395 0.02709,0.384998 0.03278,0.757879 0.01041,0.682264 0.02234,0.550113 0.03851,-0.426801 z m -1.414981,0.64714 c 0.03374,-0.03729 0.05373,-0.0678 0.04441,-0.0678 -0.0093,0 -0.04456,0.03051 -0.0783,0.0678 -0.03375,0.03729 -0.05373,0.0678 -0.04441,0.0678 0.0093,0 0.04456,-0.03051 0.07831,-0.0678 z m 0.169491,-0.135593 c 0.03375,-0.03729 0.05373,-0.0678 0.04441,-0.0678 -0.0093,0 -0.04456,0.03051 -0.0783,0.0678 -0.03374,0.03729 -0.05373,0.0678 -0.04441,0.0678 0.0093,0 0.04456,-0.03051 0.0783,-0.0678 z m 0.169492,-0.135593 c 0.03374,-0.03729 0.05373,-0.0678 0.04441,-0.0678 -0.0093,0 -0.04456,0.03051 -0.0783,0.0678 -0.03375,0.03729 -0.05373,0.0678 -0.04441,0.0678 0.0093,0 0.04456,-0.03051 0.07831,-0.0678 z m 0.169491,-0.135593 c 0.03375,-0.03729 0.05373,-0.0678 0.04441,-0.0678 -0.0093,0 -0.04456,0.03051 -0.07831,0.0678 -0.03374,0.03729 -0.05373,0.0678 -0.04441,0.0678 0.0093,0 0.04456,-0.03051 0.0783,-0.0678 z M 21.34488,10.14307 c 0.04217,-0.05377 0.04097,-0.05496 -0.0128,-0.0128 -0.03263,0.02559 -0.05932,0.05228 -0.05932,0.05932 0,0.0279 0.02784,0.0099 0.07212,-0.04652 z m 1.443236,-1.0484498 c 0.124724,-0.067168 0.143399,-0.057045 0.180018,0.097577 0.02516,0.1062217 0.02667,0.1037331 0.02997,-0.049127 0.0031,-0.1457775 -0.0038,-0.1610169 -0.07341,-0.1610169 -0.04228,0 -0.137621,0.040796 -0.211865,0.090659 -0.174138,0.1169527 -1.304479,0.9943902 -1.304479,1.0126142 0,0.0076 0.285903,-0.1989537 0.635339,-0.4590525 0.349437,-0.2600987 0.684428,-0.4993427 0.744425,-0.5316533 z M 55.05242,9.0498497 c 0.06134,-0.067782 0.05921,-0.067797 -9.881753,-0.067797 -5.468708,0 -9.93675,0.00551 -9.928982,0.012252 0.0078,0.00674 4.410498,0.02224 9.78384,0.034447 5.814295,0.013209 9.801193,0.034827 9.847458,0.053396 0.108895,0.043703 0.111,0.043324 0.179437,-0.032298 z"
     id="path4166"
     inkscape:connector-curvature="0" />
  <path
     style="opacity:1;fill:#60b1f3;fill-opacity:1;fill-rule:nonzero;stroke:none;stroke-width:1.5;stroke-miterlimit:4;stroke-dasharray:none;stroke-opacity:1"
     d="m 6.2558098,21.965104 c -0.2144068,-0.01271 -0.453275,-0.04615 -0.5308183,-0.07432 -0.21523,-0.07819 -0.4443652,-0.222868 -0.5243818,-0.331096 -0.039601,-0.05356 -0.1005852,-0.104863 -0.1355198,-0.113999 -0.055709,-0.01457 -0.063494,-0.05138 -0.063328,-0.299444 2.417e-4,-0.361491 0.034453,-0.476425 0.211606,-0.710895 0.1659161,-0.219598 -0.1656393,0.05365 5.2797305,-4.351174 9.248944,-7.4815749 10.342876,-8.3711043 10.686476,-8.6896947 0.268757,-0.2491949 0.441199,-0.3352758 0.720304,-0.3595656 0.334231,-0.029087 36.170884,-0.019395 36.271498,0.00981 0.320081,0.092909 0.626488,0.3351173 0.725095,0.5731707 0.02504,0.060456 0.05893,0.1099208 0.07532,0.1099208 0.04731,0 0.03458,0.3105436 -0.02031,0.495381 -0.08632,0.2906736 -0.240739,0.4753982 -0.744691,0.8908575 -1.182739,0.9750517 -2.754838,2.2997347 -8.727241,7.3537697 -5.559668,4.704763 -6.40882,5.411446 -6.559322,5.45881 -0.157739,0.04964 -1.754363,0.05472 -18.223732,0.05799 -9.927966,0.002 -18.2262714,-0.0068 -18.4406782,-0.01952 z m 3.0570918,-1.99079 c -0.093047,-0.01145 -0.1054647,-0.02219 -0.07212,-0.06237 0.061453,-0.07405 0.016985,-0.05781 -0.052768,0.01926 -0.060516,0.06687 -0.059313,0.06772 0.087966,0.06237 0.1282478,-0.0047 0.1334587,-0.0074 0.036922,-0.01926 z M 16.633015,13.93968 c 0.04217,-0.05376 0.04097,-0.05496 -0.0128,-0.0128 -0.05647,0.04428 -0.07442,0.07212 -0.04652,0.07212 0.007,0 0.03373,-0.0267 0.05932,-0.05932 z m 1.559322,-1.254237 c 0.04217,-0.05376 0.04097,-0.05496 -0.0128,-0.0128 -0.03263,0.02559 -0.05932,0.05228 -0.05932,0.05932 0,0.0279 0.02784,0.0099 0.07212,-0.04652 z m 0.711865,-0.576271 c 0.04216,-0.05376 0.04097,-0.05496 -0.0128,-0.0128 -0.05647,0.04428 -0.07442,0.07212 -0.04652,0.07212 0.007,0 0.03373,-0.0267 0.05932,-0.05932 z m 0.169491,-0.135593 c 0.04217,-0.05377 0.04097,-0.05496 -0.0128,-0.0128 -0.05647,0.04428 -0.07442,0.07212 -0.04652,0.07212 0.007,0 0.03373,-0.0267 0.05932,-0.05932 z m 0.169492,-0.135594 c 0.04217,-0.05376 0.04097,-0.05496 -0.0128,-0.0128 -0.05647,0.04428 -0.07442,0.07212 -0.04652,0.07212 0.007,0 0.03373,-0.0267 0.05932,-0.05932 z m 0.169491,-0.135593 c 0.04216,-0.05377 0.04097,-0.05496 -0.0128,-0.0128 -0.05647,0.04428 -0.07442,0.07212 -0.04652,0.07212 0.007,0 0.03373,-0.0267 0.05932,-0.05932 z m 0.169492,-0.135593 c 0.04217,-0.05377 0.04097,-0.05496 -0.0128,-0.0128 -0.05647,0.04428 -0.07442,0.07212 -0.04652,0.07212 0.007,0 0.03373,-0.0267 0.05932,-0.05932 z m 0.169491,-0.135593 c 0.04217,-0.05377 0.04097,-0.05496 -0.0128,-0.0128 -0.05647,0.04428 -0.07442,0.07212 -0.04652,0.07212 0.007,0 0.03373,-0.0267 0.05932,-0.05932 z m 0.182117,-0.144068 c 0.03374,-0.03729 0.05373,-0.0678 0.04441,-0.0678 -0.0093,0 -0.04456,0.03051 -0.0783,0.0678 -0.03375,0.03729 -0.05373,0.0678 -0.04441,0.0678 0.0093,0 0.04456,-0.03051 0.07831,-0.0678 z m 0.190765,-0.161017 c 0.04217,-0.05377 0.04097,-0.05496 -0.0128,-0.0128 -0.05647,0.04428 -0.07442,0.07212 -0.04652,0.07212 0.007,0 0.03373,-0.0267 0.05932,-0.05932 z m 0.169491,-0.135593 c 0.04216,-0.05377 0.04097,-0.05496 -0.0128,-0.0128 -0.03263,0.02559 -0.05932,0.05228 -0.05932,0.05932 0,0.0279 0.02784,0.0099 0.07212,-0.04652 z m 0.169492,-0.135594 c 0.04217,-0.05376 0.04097,-0.05496 -0.0128,-0.0128 -0.03263,0.02559 -0.05932,0.05228 -0.05932,0.05932 0,0.0279 0.02784,0.0099 0.07212,-0.04652 z m 0.473415,-0.328553 c 0.0169,0.01045 0.03073,0.0028 0.03073,-0.0169 0,-0.01975 -0.01386,-0.0359 -0.03079,-0.0359 -0.03402,0 -0.409887,0.298718 -0.409887,0.325758 0,0.0093 0.08532,-0.05255 0.189604,-0.137501 0.104282,-0.08495 0.203435,-0.145902 0.220339,-0.135455 z m 1.672364,-1.3146188 c 0.129168,-0.089052 0.254579,-0.1619125 0.278692,-0.1619125 0.02411,0 0.05816,0.049576 0.07565,0.1101695 l 0.03181,0.1101695 0.0031,-0.1281826 c 0.0034,-0.1440593 -0.04281,-0.1795007 -0.170751,-0.1308579 -0.08465,0.032183 -1.1075,0.8027652 -1.232972,0.9288786 -0.03729,0.037479 0.122882,-0.074618 0.355932,-0.2491043 0.233051,-0.1744863 0.529412,-0.3901084 0.658579,-0.4791603 z M 55.031451,9.0716416 c 0.0312,-0.037591 0,-0.04999 -0.170312,-0.067797 -0.114672,-0.011985 -4.069394,-0.019269 -8.788268,-0.016185 l -8.579773,0.00561 8.644068,0.028434 c 5.077362,0.016701 8.679034,0.041258 8.728813,0.059513 0.116722,0.042807 0.122268,0.042486 0.165472,-0.00957 z"
     id="path4168"
     inkscape:connector-curvature="0" />
  <path
     style="opacity:1;fill:#60b1f3;fill-opacity:1;fill-rule:nonzero;stroke:none;stroke-width:1.5;stroke-miterlimit:4;stroke-dasharray:none;stroke-opacity:1"
     d="m 6.2388606,21.963703 c -0.2050847,-0.01357 -0.4220196,-0.0405 -0.4820774,-0.05984 -0.1872373,-0.0603 -0.4507336,-0.218639 -0.5477906,-0.32918 -0.051148,-0.05825 -0.120129,-0.11633 -0.1532906,-0.129055 -0.053514,-0.02054 -0.058994,-0.06269 -0.048737,-0.374871 l 0.011557,-0.351736 0.151428,-0.223171 c 0.083285,-0.122744 0.251082,-0.304575 0.3728814,-0.40407 0.4850552,-0.39623 3.402511,-2.759911 5.67908,-4.601111 8.163953,-6.6026832 9.652993,-7.8139866 9.968827,-8.1094344 0.11527,-0.1078289 0.283846,-0.2303164 0.374615,-0.2721943 l 0.165033,-0.076142 18.067797,-0.016949 c 9.937288,-0.00932 18.145779,-0.00563 18.241095,0.00821 0.370684,0.053821 0.667271,0.2605998 0.886023,0.6177319 0.133872,0.2185552 0.07984,0.5933411 -0.131542,0.9124728 -0.0753,0.1136853 -0.495386,0.4854502 -1.399054,1.2381263 -1.305278,1.0871858 -2.231356,1.8688988 -9.999475,8.4406698 -3.730918,3.15633 -4.324237,3.646062 -4.474576,3.693354 -0.158285,0.04979 -1.740485,0.05484 -18.241115,0.05819 -9.937289,0.002 -18.2355936,-0.0074 -18.4406784,-0.02101 z m 3.0250088,-1.988148 c -0.034851,-0.0091 -0.049793,-0.03217 -0.035866,-0.05539 0.013333,-0.02223 -0.00145,-0.01927 -0.033483,0.0067 -0.077834,0.06314 -0.072766,0.07277 0.035866,0.06819 0.058131,-0.0025 0.070735,-0.0098 0.033483,-0.01951 z M 20.633015,10.719341 c 0.04217,-0.05377 0.04097,-0.05496 -0.0128,-0.0128 -0.03263,0.02559 -0.05932,0.05228 -0.05932,0.05932 0,0.0279 0.02784,0.0099 0.07212,-0.04652 z m 0.169492,-0.135593 c 0.04217,-0.05377 0.04097,-0.05496 -0.0128,-0.0128 -0.05647,0.04428 -0.07442,0.07212 -0.04652,0.07212 0.007,0 0.03373,-0.0267 0.05932,-0.05932 z m 0.165167,-0.08192 c 0,-0.01554 -0.01435,-0.02825 -0.0319,-0.02825 -0.01754,0 -0.03976,0.01271 -0.04936,0.02825 -0.0096,0.01554 0.0048,0.02825 0.0319,0.02825 0.02715,0 0.04936,-0.01271 0.04936,-0.02825 z m 0.817884,-0.69774 c 0.04216,-0.053765 0.04097,-0.054964 -0.0128,-0.012799 -0.05647,0.044284 -0.07442,0.072121 -0.04652,0.072121 0.007,0 0.03373,-0.026695 0.05932,-0.059322 z m 0.425279,-0.323064 c 0.02977,-0.048171 -0.284286,0.1771224 -0.337914,0.2424074 -0.02246,0.027346 0.03921,-0.00765 0.137061,-0.077777 0.09785,-0.070123 0.18823,-0.1442068 0.200853,-0.1646308 z m 0.408577,-0.2742759 c 0.253699,-0.1717029 0.332442,-0.1824377 0.357964,-0.048801 0.01119,0.058607 0.01612,0.050321 0.01958,-0.032889 0.003,-0.071357 -0.0138,-0.1182994 -0.04675,-0.1309435 -0.05986,-0.02297 -0.353489,0.1472963 -0.544692,0.3158509 -0.158595,0.1398085 -0.111874,0.1172631 0.213897,-0.1032173 z M 55.025929,9.0615264 c 0.0228,-0.068403 -1.002902,-0.079183 -7.007407,-0.073645 l -6.050848,0.00558 6.40678,0.029306 c 3.536586,0.016177 6.444746,0.042728 6.491525,0.059267 0.09793,0.034622 0.143522,0.028776 0.15995,-0.020509 z"
     id="path4170"
     inkscape:connector-curvature="0" />
  <path
     style="opacity:1;fill:#60b1f3;fill-opacity:1;fill-rule:nonzero;stroke:none;stroke-width:1.5;stroke-miterlimit:4;stroke-dasharray:none;stroke-opacity:1"
     d="M 6.2175243,21.965704 C 5.8573765,21.94461 5.8017136,21.93203 5.5734565,21.820142 5.4360389,21.752782 5.2511488,21.629518 5.1625894,21.54622 l -0.1610169,-0.151449 0,-0.303005 c 0,-0.326667 0.059048,-0.491503 0.2645099,-0.738396 C 5.38322,20.212612 5.2638219,20.310361 9.9846233,16.490411 19.705164,8.6248029 20.859646,7.6861457 21.194193,7.3764144 21.30801,7.2710398 21.475215,7.1506413 21.565759,7.1088623 l 0.164627,-0.075962 18.067797,-0.016949 c 9.937288,-0.00932 18.145779,-0.00563 18.241095,0.00821 0.27281,0.03961 0.525732,0.1739043 0.719379,0.3819661 0.09526,0.1023508 0.164251,0.1860923 0.153312,0.1860923 -0.01094,0 0.0047,0.037599 0.03486,0.083553 0.118627,0.1810505 0.03838,0.6044748 -0.172454,0.9099591 C 58.722213,8.6613086 58.130386,9.181178 57.4592,9.741 c -0.671187,0.559822 -2.204238,1.849344 -3.40678,2.865603 -1.85879,1.57085 -8.697251,7.352998 -10.422597,8.812652 -0.421095,0.356251 -0.579115,0.469538 -0.711864,0.510346 -0.153017,0.04704 -2.034881,0.0528 -18.23842,0.05582 -9.937289,0.0019 -18.245195,-0.007 -18.4620147,-0.01972 z M 9.2727589,19.98568 c 0,-0.03216 -0.1014705,-0.04836 -0.1195589,-0.0191 -0.01102,0.01783 0.011373,0.03242 0.049762,0.03242 0.038388,0 0.069797,-0.006 0.069797,-0.01332 z M 20.967674,10.507477 c 0,-0.01864 -0.01615,-0.0339 -0.0359,-0.0339 -0.01974,0 -0.02647,0.01525 -0.01495,0.0339 0.01152,0.01864 0.02768,0.0339 0.0359,0.0339 0.0082,0 0.01495,-0.01525 0.01495,-0.0339 z m 1.254238,-1.0402301 c 0,-0.023548 -0.198295,0.1232053 -0.225116,0.1666026 -0.01308,0.021159 0.03223,-0.00424 0.10067,-0.056449 0.06845,-0.052206 0.124446,-0.1017748 0.124446,-0.1101535 z M 22.4592,9.3017016 c 0,-0.00932 -0.03051,-6.213e-4 -0.0678,0.019335 -0.03729,0.019956 -0.0678,0.043911 -0.0678,0.053233 0,0.00932 0.03051,6.213e-4 0.0678,-0.019334 0.03729,-0.019956 0.0678,-0.043911 0.0678,-0.053233 z m 0.263904,-0.1671061 c 0.153931,-0.1045985 0.204174,-0.106347 0.243514,-0.00847 0.0297,0.073891 0.03072,0.073424 0.03281,-0.014949 0.0012,-0.050171 -0.01352,-0.1009056 -0.03268,-0.1127439 -0.04089,-0.02527 -0.314183,0.1004572 -0.373361,0.1717614 -0.06096,0.073449 -0.01029,0.059547 0.129719,-0.035594 z m 32.283553,-0.09322 C 54.973193,9.0079115 53.932945,8.998002 50.0592,8.9942452 l -4.905085,-0.00476 3.644068,0.029253 c 2.004237,0.016089 4.19322,0.03368 4.864407,0.039091 0.671186,0.00541 1.257711,0.013456 1.303389,0.017878 0.06644,0.00643 0.07458,-4.363e-4 0.04068,-0.034335 z"
     id="path4172"
     inkscape:connector-curvature="0" />
  <path
     style="opacity:1;fill:#60b1f3;fill-opacity:1;fill-rule:nonzero;stroke:none;stroke-width:1.5;stroke-miterlimit:4;stroke-dasharray:none;stroke-opacity:1"
     d="M 6.1458671,21.964245 C 5.865819,21.942796 5.7781723,21.9206 5.5695959,21.818309 5.4343017,21.751957 5.2511488,21.629518 5.1625894,21.54622 l -0.1610169,-0.151449 0,-0.301398 c 0,-0.354326 0.075226,-0.54382 0.3143008,-0.791718 C 5.4752275,20.136419 5.602901,20.032501 13.276524,13.822186 19.475801,8.805069 20.700835,7.8081498 21.104978,7.4514734 21.267269,7.308243 21.466751,7.1554699 21.54827,7.1119775 l 0.148218,-0.079077 18.084746,-0.016949 c 9.94661,-0.00932 18.162728,-0.00563 18.258044,0.00821 0.27281,0.03961 0.525732,0.1739043 0.719379,0.3819661 0.09526,0.1023508 0.162194,0.1863259 0.148736,0.1866114 -0.01345,2.847e-4 -0.0016,0.01501 0.02638,0.032721 0.03865,0.024477 0.05063,0.099575 0.04993,0.3130403 -9.49e-4,0.2911996 -0.0476,0.428229 -0.232376,0.6827121 -0.03948,0.054378 -0.62857,0.5649763 -1.309078,1.1346624 -0.680509,0.5696861 -1.725424,1.4480661 -2.322034,1.9519541 -1.481502,1.251257 -11.085543,9.371045 -11.602963,9.809788 -0.276519,0.23447 -0.47022,0.371885 -0.576271,0.408811 -0.147271,0.05128 -1.577546,0.05591 -18.312292,0.05937 -9.983898,0.0021 -18.301169,-0.0076 -18.4828239,-0.02155 z M 22.4592,9.3017016 c 0,-0.00932 -0.03051,-6.213e-4 -0.0678,0.019335 -0.03729,0.019956 -0.0678,0.043911 -0.0678,0.053233 0,0.00932 0.03051,6.213e-4 0.0678,-0.019334 0.03729,-0.019956 0.0678,-0.043911 0.0678,-0.053233 z m 0.493474,-0.203 c 0.03905,0.05255 0.0489,0.055093 0.0489,0.012625 0,-0.1100395 -0.08167,-0.1306759 -0.228891,-0.057837 -0.07693,0.038065 -0.159875,0.09374 -0.184309,0.1237219 -0.02564,0.031464 0.03164,0.01248 0.135487,-0.044899 0.175995,-0.097246 0.180981,-0.097978 0.228814,-0.033611 z m 32.030255,-0.045956 c -0.01883,-0.018128 -1.467997,-0.037024 -3.489831,-0.045503 -1.901695,-0.00798 -3.190678,-0.00879 -2.864407,-0.00182 0.326271,0.00698 1.866949,0.024949 3.423729,0.03994 1.55678,0.01499 2.860254,0.029759 2.89661,0.032819 0.04074,0.00343 0.05375,-0.00633 0.0339,-0.025439 z m -7.040678,-0.060161 c -0.03263,-0.00853 -0.08602,-0.00853 -0.118645,0 -0.03263,0.00853 -0.0059,0.015503 0.05932,0.015503 0.06526,0 0.09195,-0.00698 0.05932,-0.015503 z"
     id="path4174"
     inkscape:connector-curvature="0" />
  <path
     style="opacity:1;fill:#60b1f3;fill-opacity:1;fill-rule:nonzero;stroke:none;stroke-width:1.5;stroke-miterlimit:4;stroke-dasharray:none;stroke-opacity:1"
     d="M 6.1472677,21.964331 C 5.7519724,21.934028 5.4738527,21.819222 5.1876201,21.568196 L 5.002428,21.405782 5.0027446,21.100697 c 5.043e-4,-0.485626 0.1242045,-0.678084 0.7784889,-1.211204 0.2144068,-0.174702 3.2805085,-2.65764 6.8135595,-5.51764 6.755216,-5.4683384 8.167559,-6.6179027 8.565116,-6.9715017 0.133695,-0.1189125 0.325386,-0.2538847 0.42598,-0.2999383 L 21.768788,7.0166793 39.919078,7.0159 c 10.768623,-4.623e-4 18.193417,0.011732 18.256328,0.029983 0.209529,0.060786 0.371458,0.1542813 0.542614,0.313296 0.09574,0.08895 0.165658,0.1701466 0.15537,0.1804365 -0.01029,0.01029 0.0016,0.018709 0.02649,0.018709 0.02486,0 0.03576,0.00944 0.02421,0.020985 -0.01154,0.011541 0.0029,0.044933 0.03223,0.074202 0.04199,0.04199 0.05007,0.1074737 0.03833,0.3103832 -0.012,0.207235 -0.03623,0.2972152 -0.124831,0.4634413 -0.137267,0.2575425 -0.13842,0.2586216 -1.410623,1.3200685 -1.235261,1.0306245 -2.01801,1.6910105 -8.711865,7.3499755 -2.777966,2.348485 -5.185156,4.383329 -5.349315,4.521877 -0.178803,0.150911 -0.362278,0.274134 -0.457627,0.30735 -0.146522,0.05104 -1.600468,0.05574 -18.311702,0.05919 -9.983898,0.0021 -18.3005387,-0.0076 -18.4814233,-0.02147 z M 22.4592,9.3017016 c 0,-0.00932 -0.03051,-6.213e-4 -0.0678,0.019335 -0.03729,0.019956 -0.0678,0.043911 -0.0678,0.053233 0,0.00932 0.03051,6.213e-4 0.0678,-0.019334 0.03729,-0.019956 0.0678,-0.043911 0.0678,-0.053233 z M 22.775976,9.100475 c 0.129529,-0.06584 0.130649,-0.065835 0.181011,8.844e-4 0.05044,0.06682 0.05062,0.066817 0.03881,-6.62e-4 -0.01663,-0.095014 -0.131672,-0.1013658 -0.277505,-0.015322 -0.06793,0.040076 -0.123499,0.080258 -0.123499,0.089292 0,0.018162 -0.0026,0.019231 0.181183,-0.074192 z m 32.200173,-0.039177 c -0.02331,-0.0094 -0.06144,-0.0094 -0.08475,0 -0.0233,0.0094 -0.0042,0.017098 0.04237,0.017098 0.04661,0 0.06568,-0.00769 0.04237,-0.017098 z m -1.053241,-0.036853 c -0.509366,-0.00528 -1.333095,-0.00527 -1.830508,9.7e-6 -0.497414,0.00528 -0.08066,0.0096 0.926122,0.00959 1.006779,-5.3e-6 1.413752,-0.00433 0.904386,-0.0096 z"
     id="path4176"
     inkscape:connector-curvature="0" />
  <path
     style="opacity:1;fill:#60b1f3;fill-opacity:1;fill-rule:nonzero;stroke:none;stroke-width:1.5;stroke-miterlimit:4;stroke-dasharray:none;stroke-opacity:1"
     d="M 6.1472677,21.964331 C 5.7519724,21.934028 5.4738527,21.819222 5.1876201,21.568196 L 5.002428,21.405782 5.0020002,21.108083 C 5.0013238,20.63733 5.1229331,20.430436 5.6602269,19.988243 5.847967,19.833732 8.8541149,17.397843 12.340556,14.575154 19.335027,8.912299 20.551759,7.9226179 21.052768,7.4887072 21.2394,7.3270699 21.471197,7.154739 21.567873,7.1057497 l 0.175774,-0.089072 18.162861,-5.574e-4 c 13.213085,-4.056e-4 18.199814,0.0097 18.298454,0.037094 0.07458,0.020708 0.181356,0.062745 0.237289,0.093414 0.09578,0.052521 0.472311,0.3777971 0.437328,0.3777971 -0.0089,0 0.01628,0.034322 0.05603,0.076271 0.06435,0.067909 0.07071,0.1060044 0.05802,0.3474576 -0.01478,0.2811788 -0.07839,0.4549939 -0.25062,0.6847747 -0.04473,0.059677 -0.451041,0.417783 -0.902909,0.7957913 -1.333888,1.1158572 -3.498149,2.9419192 -8.872427,7.4859702 -2.787288,2.356705 -5.246376,4.435568 -5.46464,4.619696 -0.262685,0.2216 -0.451773,0.35386 -0.559322,0.391222 -0.15075,0.05237 -1.47298,0.05671 -18.315021,0.06019 -9.983898,0.0021 -18.3005387,-0.0076 -18.4814233,-0.02147 z M 22.749355,9.1119633 c 0.104501,-0.061657 0.135403,-0.066694 0.192066,-0.031308 0.05491,0.034294 0.06476,0.033772 0.05271,-0.00279 -0.02497,-0.075769 -0.138338,-0.067192 -0.280694,0.021236 -0.166762,0.1035884 -0.136325,0.1144889 0.03592,0.012863 z m 30.83899,-0.087435 c -0.245918,-0.00578 -0.657783,-0.0058 -0.915254,-3.3e-5 -0.257471,0.00577 -0.05626,0.010498 0.447126,0.010516 0.503389,1.82e-5 0.714047,-0.0047 0.468128,-0.010483 z"
     id="path4178"
     inkscape:connector-curvature="0" />
  <path
     style="opacity:1;fill:#60b1f3;fill-opacity:1;fill-rule:nonzero;stroke:none;stroke-width:1.5;stroke-miterlimit:4;stroke-dasharray:none;stroke-opacity:1"
     d="M 6.1524551,21.966474 C 5.7626802,21.939381 5.4758606,21.820983 5.1876201,21.568196 L 5.002428,21.405782 5.0020002,21.108083 c -7.391e-4,-0.51438 0.1060813,-0.668484 0.9311428,-1.343312 0.3359413,-0.274769 2.7845312,-2.259493 5.441311,-4.410496 8.496694,-6.8791618 9.14019,-7.4023667 9.697575,-7.8847724 0.178581,-0.1545589 0.401657,-0.319673 0.495725,-0.3669202 l 0.17103,-0.085904 18.165294,-5.576e-4 c 13.156725,-4.038e-4 18.202101,0.00977 18.298796,0.036891 0.210366,0.05901 0.345299,0.1442189 0.580231,0.3664139 l 0.218468,0.2066262 0,0.2361379 c 0,0.2717787 -0.06749,0.4985705 -0.210021,0.7057535 -0.05494,0.079867 -0.422962,0.4171496 -0.81782,0.7495172 -0.394858,0.3323676 -1.3586,1.1434323 -2.141651,1.8023673 -0.783051,0.658934 -3.833898,3.235436 -6.779661,5.725558 -2.945763,2.490123 -5.489129,4.639275 -5.651929,4.775892 -0.177854,0.149254 -0.360505,0.270823 -0.457627,0.304586 -0.149671,0.05203 -1.504624,0.05645 -18.314173,0.05965 -9.983898,0.0019 -18.2982044,-0.0067 -18.4762359,-0.01904 z M 22.738041,9.117773 c 0.06104,-0.037218 0.09574,-0.067626 0.07709,-0.067573 -0.01864,5.42e-5 -0.07966,0.030404 -0.135593,0.067447 -0.13253,0.087771 -0.08541,0.087873 0.0585,1.254e-4 l 0,1.3e-6 z m 30.339803,-0.090374 c -0.02331,-0.0094 -0.06144,-0.0094 -0.08475,0 -0.02331,0.0094 -0.0042,0.017098 0.04237,0.017098 0.04661,0 0.06568,-0.00769 0.04237,-0.017098 z m 0.185735,0.00197 c -0.01126,-0.011264 -0.0405,-0.012468 -0.06497,-0.00268 -0.02704,0.010821 -0.01901,0.018854 0.02048,0.02048 0.03573,0.00147 0.05576,-0.00654 0.04449,-0.017804 z"
     id="path4180"
     inkscape:connector-curvature="0" />
  <path
     style="opacity:1;fill:#60b1f3;fill-opacity:1;fill-rule:nonzero;stroke:none;stroke-width:1.5;stroke-miterlimit:4;stroke-dasharray:none;stroke-opacity:1"
     d="M 6.1371657,21.964906 C 5.7148765,21.931296 5.5160641,21.847482 5.1795386,21.561198 L 5.0015725,21.409801 5.002317,21.102706 c 8.119e-4,-0.334911 0.050347,-0.491518 0.2261404,-0.714952 0.121572,-0.154518 0.3858309,-0.371672 4.9087086,-4.033722 9.062851,-7.3379416 10.16851,-8.2364023 10.948096,-8.896447 0.204504,-0.1731452 0.438015,-0.3431815 0.518913,-0.3778584 0.142779,-0.061203 0.678879,-0.063065 18.30614,-0.063606 13.262786,-4.069e-4 18.195614,0.00964 18.294647,0.037275 0.203939,0.056901 0.321126,0.1247931 0.513434,0.2974535 0.09595,0.086145 0.200638,0.1779065 0.232641,0.2039137 0.04928,0.040038 0.05611,0.094595 0.04462,0.3559322 -0.01683,0.3829932 -0.09876,0.5702205 -0.365102,0.8344244 -0.103569,0.1027373 -0.943393,0.8205014 -1.866275,1.5950318 -0.922881,0.77453 -4.294406,3.619285 -7.492278,6.321679 -3.197871,2.702394 -5.894193,4.979808 -5.991827,5.060919 -0.09763,0.08111 -0.249834,0.172637 -0.33823,0.20339 -0.148505,0.05167 -1.540997,0.05618 -18.330207,0.05948 -9.99322,0.002 -18.3067797,-0.0074 -18.4745763,-0.02071 z M 22.798183,9.0644135 c 0,-0.00932 -0.03051,-6.214e-4 -0.0678,0.019334 -0.03729,0.019956 -0.0678,0.043911 -0.0678,0.053233 0,0.00932 0.03051,6.214e-4 0.0678,-0.019334 0.03729,-0.019956 0.0678,-0.043911 0.0678,-0.053233 z"
     id="path4182"
     inkscape:connector-curvature="0" />
  <path
     style="opacity:1;fill:#60b1f3;fill-opacity:1;fill-rule:nonzero;stroke:none;stroke-width:1.5;stroke-miterlimit:4;stroke-dasharray:none;stroke-opacity:1"
     d="M 6.1032674,21.963907 C 5.6932933,21.924929 5.520472,21.85009 5.1795386,21.563891 l -0.1779661,-0.149396 0,-0.302055 c 0,-0.486545 0.1028882,-0.662459 0.6590657,-1.126843 0.2061579,-0.172134 2.3883919,-1.943472 4.8494088,-3.936307 8.792567,-7.1198786 9.86314,-7.9899014 10.609372,-8.6219231 0.186002,-0.1575346 0.401391,-0.3143854 0.478643,-0.3485575 0.135614,-0.059988 0.766967,-0.06215 18.305883,-0.062689 13.267475,-4.072e-4 18.201984,0.00964 18.301017,0.037275 0.200167,0.055849 0.319441,0.1238142 0.508475,0.2897424 0.09322,0.081826 0.196186,0.1713438 0.228814,0.1989293 0.07686,0.064984 0.08161,0.4733187 0.0083,0.7134944 -0.08182,0.2680289 -0.244305,0.4487246 -0.901132,1.0021013 -0.340115,0.2865503 -1.008664,0.8498192 -1.485661,1.2517082 -0.476996,0.40189 -3.033183,2.560364 -5.680417,4.796611 -2.647237,2.236246 -5.476461,4.626212 -6.287169,5.311036 -1.014824,0.857246 -1.521834,1.263809 -1.627522,1.305084 -0.146095,0.05705 -1.03398,0.06014 -18.373851,0.06377 -10.021187,0.0021 -18.3423731,-0.0078 -18.4915256,-0.02196 z M 22.748232,9.0902947 c -0.01044,-0.010437 -0.03779,-2.15e-5 -0.06078,0.023145 -0.03323,0.033479 -0.02933,0.037372 0.01898,0.018976 0.03343,-0.01273 0.05225,-0.031684 0.04181,-0.042121 z"
     id="path4184"
     inkscape:connector-curvature="0" />
  <path
     style="opacity:1;fill:#60b1f3;fill-opacity:1;fill-rule:nonzero;stroke:none;stroke-width:1.5;stroke-miterlimit:4;stroke-dasharray:none;stroke-opacity:1"
     d="m 14.03852,15.143883 2.69e-4,-1.951271 0.450725,-0.364407 c 1.628793,-1.316864 4.70964,-3.8171506 5.49789,-4.4618571 0.657357,-0.5376492 1.212399,-0.9996776 1.288976,-1.0729685 0.0261,-0.024978 0.0495,-0.043367 0.052,-0.040865 0.0025,0.0025 0.01261,-0.0057 0.02247,-0.018226 0.0099,-0.012527 0.01804,-0.019401 0.0182,-0.015277 1.55e-4,0.00412 0.0073,-9.196e-4 0.0159,-0.011209 0.0086,-0.010289 0.01791,-0.016417 0.0207,-0.013618 0.0028,0.0028 0.0075,-0.00115 0.01042,-0.00879 0.0029,-0.00763 0.0088,-0.011749 0.01297,-0.00915 0.0042,0.0026 0.0099,-0.00121 0.01271,-0.00847 0.0028,-0.00726 0.0078,-0.011523 0.0111,-0.00947 0.0033,0.00205 0.02294,-0.00748 0.0436,-0.021186 0.02067,-0.013702 0.08334,-0.045414 0.139267,-0.070471 l 0.101695,-0.045558 0.207627,-0.00663 c 0.114195,-0.00365 0.220975,-0.00685 0.237288,-0.00711 0.01631,-2.669e-4 2.631462,3.137e-4 5.811441,0.00129 l 5.78178,0.00178 0,5.0423733 0,5.042372 -9.868644,0 -9.868644,0 2.68e-4,-1.951271 z m 8.675022,-6.0155863 c 0.03427,-0.016591 0.0498,-0.041617 0.02583,-0.041617 -0.01466,0 -0.074,0.041016 -0.074,0.051153 0,0.011743 0.0071,0.010331 0.04817,-0.00954 z"
     id="path4186"
     inkscape:connector-curvature="0" />
  <path
     style="opacity:1;fill:#60b1f3;fill-opacity:1;fill-rule:nonzero;stroke:none;stroke-width:1.5;stroke-miterlimit:4;stroke-dasharray:none;stroke-opacity:1"
     d="m 14.038335,15.143883 8.3e-5,-1.951271 0.743338,-0.601695 c 4.314277,-3.4921901 6.259296,-5.0792249 6.51497,-5.3158784 0.08361,-0.07739 0.140892,-0.1141143 0.291795,-0.1870758 l 0.131934,-0.06379 0.245763,-0.010471 c 0.294659,-0.012555 3.077242,-0.014602 8.319915,-0.00612 l 3.489407,0.00565 0,5.0409643 0,5.040963 -9.868644,0 -9.868644,0 8.3e-5,-1.951271 z m 8.669746,-6.0150024 c 0.01846,-0.00942 0.03356,-0.022764 0.03356,-0.029661 0,-0.0069 -0.0029,-0.01254 -0.0065,-0.01254 -0.01152,0 -0.06976,0.042704 -0.06976,0.051153 0,0.011441 0.0046,0.010467 0.04271,-0.00895 z"
     id="path4188"
     inkscape:connector-curvature="0" />
  <path
     style="opacity:1;fill:#60b1f3;fill-opacity:1;fill-rule:nonzero;stroke:none;stroke-width:1.5;stroke-miterlimit:4;stroke-dasharray:none;stroke-opacity:1"
     d="m 14.038252,15.143688 0,-1.951466 0.701098,-0.567601 c 4.383377,-3.5487338 6.302245,-5.1142117 6.557376,-5.3497295 0.08466,-0.07815 0.141721,-0.1144634 0.296071,-0.1884124 l 0.136133,-0.065221 0.279661,-0.00979 c 0.3155,-0.011043 7.107943,-0.013671 10.062151,-0.00389 l 1.704798,0.00564 0,5.0409675 0,5.040967 -9.868644,0 -9.868644,0 0,-1.951466 z m 8.694234,-6.0280788 c 0.0024,-0.00243 -9.72e-4,-0.00776 -0.0076,-0.011843 -0.01266,-0.00782 -0.05954,0.019301 -0.05954,0.034451 0,0.0072 0.05626,-0.011754 0.06712,-0.022609 z"
     id="path4190"
     inkscape:connector-curvature="0" />
  <path
     style="opacity:1;fill:#60b1f3;fill-opacity:1;fill-rule:nonzero;stroke:none;stroke-width:1.5;stroke-miterlimit:4;stroke-dasharray:none;stroke-opacity:1"
     d="m 14.038252,15.143352 0,-1.951803 0.548728,-0.444242 c 4.543258,-3.6781414 6.4556,-5.2381931 6.711765,-5.4753276 0.07725,-0.071516 0.139339,-0.1108265 0.292961,-0.1854976 l 0.137224,-0.066701 0.262712,-0.00894 c 0.295515,-0.01006 9.553035,-0.012822 10.956224,-0.00327 l 0.827674,0.00564 0,5.0409752 0,5.040974 -9.868644,0 -9.868644,0 0,-1.951802 z m 8.673329,-6.0156596 c 0.02185,-0.00995 0.02713,-0.019636 0.01486,-0.027222 -0.0063,-0.0039 -0.06107,0.026269 -0.06107,0.033652 0,0.00671 0.02502,0.00323 0.04621,-0.00643 z"
     id="path4192"
     inkscape:connector-curvature="0" />
  <path
     style="opacity:1;fill:#60b1f3;fill-opacity:1;fill-rule:nonzero;stroke:none;stroke-width:1.5;stroke-miterlimit:4;stroke-dasharray:none;stroke-opacity:1"
     d="m 14.038252,15.142943 0,-1.952212 0.506356,-0.409896 c 4.329013,-3.5043465 6.44766,-5.232221 6.747881,-5.5032725 0.08993,-0.081195 0.143062,-0.1151541 0.299217,-0.1912553 l 0.137224,-0.066876 0.262605,-0.00875 c 0.294422,-0.00981 10.534174,-0.012627 11.320022,-0.00312 l 0.463983,0.00562 0,5.0409864 0,5.040985 -9.868644,0 -9.868644,0 0,-1.952211 z m 8.644067,-6.0138902 c 0,-0.00466 -0.0017,-0.00847 -0.0037,-0.00847 -0.0021,0 -0.0061,0.00381 -0.009,0.00847 -0.0029,0.00466 -0.0012,0.00847 0.0037,0.00847 0.0049,0 0.009,-0.00381 0.009,-0.00847 z m 0.05085,-0.017856 c 0,-0.00416 -0.0076,-0.00757 -0.01695,-0.00757 -0.01652,0 -0.02209,0.00899 -0.01188,0.01919 0.0068,0.00679 0.02883,-0.0021 0.02883,-0.011622 z"
     id="path4194"
     inkscape:connector-curvature="0" />
  <path
     style="opacity:1;fill:#60b1f3;fill-opacity:1;fill-rule:nonzero;stroke:none;stroke-width:1.5;stroke-miterlimit:4;stroke-dasharray:none;stroke-opacity:1"
     d="m 14.038252,15.142865 0,-1.952289 0.103813,-0.08432 c 0.0571,-0.04638 0.628178,-0.509104 1.269068,-1.028286 1.713321,-1.387952 1.891005,-1.532022 2.805085,-2.2744219 1.86225,-1.5124875 2.78826,-2.2731062 3.062485,-2.5155049 0.108519,-0.095924 0.144069,-0.1189124 0.311283,-0.2012872 l 0.138944,-0.068448 0.25,-0.00798 c 0.28346,-0.00905 11.122045,-0.011656 11.536017,-0.00278 l 0.260593,0.00559 0,5.0410052 0,5.041005 -9.868644,0 -9.868644,0 0,-1.952289 z m 8.644067,-6.0138122 c 0,-0.00466 -0.0017,-0.00847 -0.0037,-0.00847 -0.0021,0 -0.0061,0.00381 -0.009,0.00847 -0.0029,0.00466 -0.0012,0.00847 0.0037,0.00847 0.0049,0 0.009,-0.00381 0.009,-0.00847 z m 0.04661,-0.016949 c 0.0029,-0.00466 -7.04e-4,-0.00847 -0.008,-0.00847 -0.0073,0 -0.01321,0.00381 -0.01321,0.00847 0,0.00466 0.0036,0.00847 0.008,0.00847 0.0044,0 0.01033,-0.00381 0.01321,-0.00847 z"
     id="path4196"
     inkscape:connector-curvature="0" />
  <ellipse
     style="opacity:1;fill:#60b1f3;fill-opacity:1;fill-rule:nonzero;stroke:none;stroke-width:1.5;stroke-miterlimit:4;stroke-dasharray:none;stroke-opacity:1"
     id="path4198"
     cx="22.669491"
     cy="9.1228809"
     rx="0.31355932"
     ry="0.21610169" />
</svg>
