<svg xmlns="http://www.w3.org/2000/svg" width="64" height="64" viewBox="0 0 64 64"><path fill="none" d="M43 53.6l12.6-11.6h-12.6zM57 10.1l-3.2 2.6-10.8 9.1v18.2h14zM23 21.9v18.1h18v-18.2zM9.2 20h11.8v-9.5zM55.2 9h-32.2v11h19.1zM55.6 42h-12.6v11.6zM21 20v-9.5l-11.8 9.5zM41 40v-18h-18v18zM42.1 20l13.1-11h-32.2v11h19zM21.8 41.9c.1.1.2.1.2.1l-13.9 13h32.9v-13h-18.9c-.1 0-.2 0-.3-.1zM43 21.8v18.2h14v-29.900000000000002l-3.2 2.6zM20.6 22h-13.3l-.1 31.1 13.8-12.7v-18.4zM55.6 42h-12.6v11.6zM58 7.3zM21.5 41.8z"/><path fill="#3DB1F3" d="M23 40v-18h-2v18.4s0 .9.3 1.2l.2.2c.1.1.2.1.3.1l.3.1h18.9v-2h-18z"/><path d="M23 22h18v18h2v-18.2l10.8-9.1 3.2-2.6v-1.1h-1.8l-13.1 11h-19.1v1.9zM55.6 42l-12.6 11.6v-11.6h-2v13h-32.9l13.9-13s-.1 0-.2-.1l-.3-.1c-.3-.2-.5-.5-.5-.8v-.5l-13.8 12.6v-31.1h13.8v-2h-11.8l11.8-9.5v-2.6l.1-.3-15.6 12.6c-.2.2-.5.5-.5.8v35c0 .6.4 1 1 1h36c.3 0 .7-.1.9-.3l16-14.9c-.1.1-.3.2-.5.2h-2.8zM21.8 41.9l-.3-.1c.1.1.2.1.3.1z"/><path fill="#3DB1F3" d="M58.1 7h-36c-.4 0-.7.2-.9.5-.1.1-.2.2-.2.4v12.1h2v-11h34.00000000000001v31h-14v2h15.3c.2 0 .4-.1.5-.2l.1-.2v-33.6c.1-.6-.3-1-.8-1zm-.1.3z"/><path d="M21 22h2v-2h-2v1.9zM41 40h2v2h-2zM21 40.4v.6c0 .3.2.6.5.8-.1 0-.1-.1-.2-.2-.3-.3-.3-1.2-.3-1.2z"/></svg>