<?xml version="1.0" encoding="UTF-8" standalone="no"?>
<svg
   xmlns:dc="http://purl.org/dc/elements/1.1/"
   xmlns:cc="http://creativecommons.org/ns#"
   xmlns:rdf="http://www.w3.org/1999/02/22-rdf-syntax-ns#"
   xmlns:svg="http://www.w3.org/2000/svg"
   xmlns="http://www.w3.org/2000/svg"
   xmlns:sodipodi="http://sodipodi.sourceforge.net/DTD/sodipodi-0.dtd"
   xmlns:inkscape="http://www.inkscape.org/namespaces/inkscape"
   width="64"
   height="64"
   viewBox="0 0 64 64"
   id="svg2"
   version="1.1"
   inkscape:version="0.91 r13725"
   sodipodi:docname="Y-.svg">
  <metadata
     id="metadata16">
    <rdf:RDF>
      <cc:Work
         rdf:about="">
        <dc:format>image/svg+xml</dc:format>
        <dc:type
           rdf:resource="http://purl.org/dc/dcmitype/StillImage" />
      </cc:Work>
    </rdf:RDF>
  </metadata>
  <defs
     id="defs14" />
  <sodipodi:namedview
     pagecolor="#ffffff"
     bordercolor="#666666"
     borderopacity="1"
     objecttolerance="10"
     gridtolerance="10"
     guidetolerance="10"
     inkscape:pageopacity="0"
     inkscape:pageshadow="2"
     inkscape:window-width="1920"
     inkscape:window-height="1051"
     id="namedview12"
     showgrid="false"
     inkscape:zoom="14.75"
     inkscape:cx="11.689615"
     inkscape:cy="10.938643"
     inkscape:window-x="1920"
     inkscape:window-y="0"
     inkscape:window-maximized="1"
     inkscape:current-layer="svg2" />
  <g
     fill="none"
     id="g4">
    <path
       d="M43 21.9v18h14v-29.7l-13.7 11.6-.3.1zM41 22h-18v18h18zM42 20h.1l13.1-11h-32.2v11zM21 40.1v-18.1h-14v31.2l14-13.1zM9.2 20h11.8v-9.5z"
       id="path6" />
  </g>
  <path
     fill="#3DB1F3"
     d="M59 40.6c-.2-.4-.7-.6-1.1-.6h-14.9v2h12.6l-6.6 6.1-6 5.6-1.4 1.3h-33.50000000000001l13.9-13h19v-2h-19.3c-.2 0-.5 0-.7.1h-.1l-13.9 13.1-1.8 1.7c-.1.1-.2.2-.2.4-.2.6 0 1.2.3 1.5.1.1.2.1.2.2h36.7c.3 0 .6-.1.8-.3l15.8-14.8c.3-.3.3-.8.2-1.3z"
     id="path8" />
  <path
     d="M5.9 57h6.199999999999999-6-.2zM57 10.2v29.8h.1l-.1-29.9zM7 53.2v-31.2h14v18c.2-.1.5-.1.7-.1h1.3v-17.9h18v33h.6l1.4-1.3v-31.7c.1 0 .2-.1.3-.2l13.7-11.6v-.2l.1 30h.8c.4 0 .9.2 1.1.6v.1-32.7-.3h-.1c-.1-.2-.2-.3-.3-.4l-.1-.1s-.1 0-.1-.1c-.1-.1-.3-.1-.4-.1h-35.800000000000004c-.2 0-.4.1-.5.2h-.1l-16.1 13c-.2.1-.3.3-.4.6v34.5c0-.1.1-.3.2-.4l1.7-1.7zm2.2-33.2l11.8-9.5v9.5h-11.8zm32.9 0h-19.1v-11h32.2l-13.1 11z"
     id="path10" />
  <path
     style="opacity:1;fill:#60b1f3;fill-opacity:1;fill-rule:nonzero;stroke:none;stroke-width:1.5;stroke-miterlimit:4;stroke-dasharray:none;stroke-opacity:1"
     d="m 8.2089954,54.924479 c 0.015537,-0.01291 3.1338986,-2.926466 6.9296926,-6.474577 l 6.901444,-6.45111 9.454488,0 9.454488,0 0,6.474576 0,6.474576 -16.384181,0 c -9.011299,0 -16.3714683,-0.01056 -16.3559316,-0.02347 z"
     id="path4144"
     inkscape:connector-curvature="0" />
  <path
     style="opacity:1;fill:#60b1f3;fill-opacity:1;fill-rule:nonzero;stroke:none;stroke-width:1.5;stroke-miterlimit:4;stroke-dasharray:none;stroke-opacity:1"
     d="m 43.050803,47.809518 0,-5.810726 6.253108,0 6.253107,0 -0.236158,0.227632 c -0.129887,0.125198 -1.670057,1.550487 -3.422599,3.167309 -2.815676,2.597624 -7.762644,7.193691 -8.559322,7.952185 l -0.288136,0.274326 0,-5.810726 z"
     id="path4146"
     inkscape:connector-curvature="0" />
  <path
     style="opacity:1;fill:#60b1f3;fill-opacity:1;fill-rule:nonzero;stroke:none;stroke-width:1.5;stroke-miterlimit:4;stroke-dasharray:none;stroke-opacity:1"
     d="M 5.3855673,56.845437 C 5.1792509,56.657112 5.0895794,56.51926 5.0126884,56.272208 c -0.076046,-0.244335 -0.082031,-0.66795 -0.013492,-0.954874 0.056719,-0.237443 0.085693,-0.278112 0.086142,-0.120917 l 3.312e-4,0.115819 0.080565,-0.169491 c 0.1403236,-0.29521 1.9868824,-2.076339 9.0338721,-8.713772 5.861222,-5.520579 6.710736,-6.30863 6.847458,-6.352035 0.135129,-0.0429 1.482804,-0.05096 10.037442,-0.06006 l 9.881356,-0.01051 -0.01185,7.449547 c -0.0065,4.097251 -0.01544,7.453376 -0.01981,7.458056 -0.0044,0.0047 -7.36092,0.0047 -16.34788,0 L 8.2468919,54.905457 10.767645,52.55108 c 1.386414,-1.294907 2.520752,-2.369693 2.520752,-2.388414 0,-0.01872 -0.06483,0.02819 -0.144068,0.104255 -0.07924,0.07606 -1.242372,1.164078 -2.584745,2.417816 -1.3423733,1.253737 -2.4457631,2.292987 -2.4519778,2.309443 -0.00652,0.01727 7.0715708,0.02992 16.7406848,0.02992 l 16.751984,0 0.683044,-0.63763 c 5.174078,-4.830058 7.398614,-6.899377 10.100468,-9.395699 1.765332,-1.631043 3.209695,-2.977229 3.209695,-2.991526 0,-0.0143 -2.829661,-0.02599 -6.288136,-0.02599 l -6.288135,0 0,-0.983489 0,-0.98349 7.584746,0.0089 7.584745,0.0089 0.191611,0.07747 c 0.273294,0.110496 0.482484,0.281846 0.573423,0.469697 0.06416,0.132532 0.0777,0.217889 0.0795,0.5012 0.0025,0.399799 -0.04451,0.58474 -0.191325,0.751954 -0.166658,0.189814 -15.875048,14.894788 -16.00677,14.984296 -0.287146,0.19512 1.131837,0.181546 -18.899325,0.180787 L 5.5426345,56.988808 5.3855673,56.845437 Z M 17.653902,46.116412 c 2.269311,-2.121262 4.187038,-3.913223 4.261614,-3.982134 0.07458,-0.06891 0.118224,-0.125705 0.09699,-0.126209 -0.02123,-5.05e-4 -1.954879,1.791455 -4.297,3.982133 -2.342122,2.190678 -4.242479,3.983051 -4.223017,3.983051 0.01946,0 1.892096,-1.735578 4.161408,-3.856841 z"
     id="path4148"
     inkscape:connector-curvature="0" />
  <path
     style="opacity:1;fill:#60b1f3;fill-opacity:1;fill-rule:nonzero;stroke:none;stroke-width:1.5;stroke-miterlimit:4;stroke-dasharray:none;stroke-opacity:1"
     d="M 5.331474,56.80799 C 5.1219359,56.595924 5.0005414,56.348304 4.950081,56.030026 c -0.038361,-0.241959 -0.03207,-0.317616 0.061089,-0.734739 0.052457,-0.234878 0.057616,-0.244049 0.067753,-0.120444 l 0.010972,0.133793 0.067076,-0.150743 c 0.147569,-0.331637 2.2225052,-2.320815 12.7924424,-12.263725 1.137288,-1.069822 2.183754,-2.057902 2.325481,-2.195735 0.141726,-0.137832 0.268942,-0.250604 0.282703,-0.250604 0.01376,0 0.110794,-0.07645 0.215631,-0.16989 0.104837,-0.09344 0.24457,-0.18769 0.310518,-0.209446 0.08989,-0.02965 2.593354,-0.04285 10.00126,-0.05272 l 9.881356,-0.01317 0.0086,7.49376 0.0086,7.49376 -14.330629,0.0086 -14.330629,0.0086 14.638746,0.0084 14.638746,0.0084 0.530746,-0.497628 c 2.690007,-2.522149 7.166417,-6.690159 9.751085,-9.079284 2.781945,-2.571481 3.923233,-3.641015 3.59322,-3.367313 -0.05593,0.04639 -0.422034,0.38132 -0.813559,0.744295 -0.391526,0.362974 -1.520339,1.40661 -2.508475,2.319191 -3.530244,3.260317 -6.868942,6.360749 -8.29661,7.704526 l -0.805085,0.757778 0,-5.299257 c -2.4e-5,-2.914592 -0.01014,-5.974423 -0.02248,-6.799625 l -0.02248,-1.500368 7.590275,0.0088 7.590274,0.0088 0.188065,0.07614 c 0.453386,0.183569 0.628688,0.410404 0.662935,0.857821 0.02674,0.349269 -0.02398,0.622014 -0.149556,0.804277 -0.0502,0.07286 -0.960857,0.947161 -2.023681,1.942882 -7.771237,7.2806 -13.653546,12.785538 -13.861261,12.97201 -0.183047,0.164329 -0.308868,0.236492 -0.468522,0.268718 -0.06088,0.01229 -8.416624,0.02664 -18.568319,0.03189 L 5.5087362,56.98739 5.331474,56.80799 Z m 3.0840418,-1.874136 c -0.023305,-0.0094 -0.061441,-0.0094 -0.084746,0 -0.023305,0.0094 -0.00424,0.0171 0.042373,0.0171 0.04661,0 0.065678,-0.0077 0.042373,-0.0171 z m 24.8305082,-0.003 c -4.246186,-0.0047 -11.194491,-0.0047 -15.440678,0 -4.246186,0.0047 -0.772034,0.0086 7.720339,0.0086 8.492373,0 11.966526,-0.0039 7.720339,-0.0086 z M 10.474838,52.81819 c 1.14661,-1.069847 2.237952,-2.098046 2.425205,-2.284887 0.403667,-0.402779 0.482735,-0.475732 -2.1705,2.002634 -1.9809045,1.850348 -2.6275229,2.462882 -2.4263733,2.298475 0.047808,-0.03907 1.025058,-0.946375 2.1716683,-2.016222 z m 3.694915,-3.459039 c 0.39036,-0.361784 4.000654,-3.730827 6.949153,-6.48479 0.475423,-0.444056 0.870032,-0.824651 0.876907,-0.845767 0.0069,-0.02112 -0.07702,0.04637 -0.186441,0.149971 -0.109417,0.1036 -0.4125,0.38663 -0.673517,0.628955 -1.748658,1.623435 -7.363943,6.877634 -7.508475,7.025649 -0.185601,0.190074 0.01491,0.01483 0.542373,-0.474018 z"
     id="path4150"
     inkscape:connector-curvature="0" />
  <path
     style="opacity:1;fill:#60b1f3;fill-opacity:1;fill-rule:nonzero;stroke:none;stroke-width:1.5;stroke-miterlimit:4;stroke-dasharray:none;stroke-opacity:1"
     d="M 5.3262105,56.804731 C 4.9499198,56.406859 4.8517772,55.94657 5.0018258,55.283365 c 0.05365,-0.237129 0.08264,-0.278502 0.08468,-0.120846 l 0.0015,0.115819 0.07047,-0.135593 c 0.1273939,-0.245123 1.8254552,-1.909982 5.1471457,-5.046504 6.503701,-6.141148 10.198946,-9.614803 10.410798,-9.786499 0.118826,-0.0963 0.269438,-0.199914 0.334692,-0.230245 0.108548,-0.05045 0.960999,-0.05607 10.016949,-0.06602 l 9.898305,-0.01087 0.0019,7.49368 0.0019,7.493681 -4.64597,0.0087 -4.645962,0.0087 4.958356,0.0084 4.958356,0.0084 0.550118,-0.515563 c 2.392695,-2.242398 7.191929,-6.711316 9.788424,-9.114714 2.804986,-2.596385 3.823088,-3.547312 3.458898,-3.230685 -0.464749,0.404058 -10.167908,9.395906 -11.798237,10.933343 -0.428295,0.403892 -0.527424,0.482655 -0.533292,0.423728 -0.004,-0.03981 -0.01183,-3.096697 -0.01749,-6.793084 l -0.01028,-6.720704 7.593759,0.0088 7.59376,0.0088 0.201959,0.09457 c 0.277881,0.130121 0.407485,0.236165 0.517624,0.423527 0.08807,0.149829 0.09398,0.184496 0.09398,0.55203 0,0.555049 -0.0325,0.608697 -0.813559,1.342888 -0.335594,0.315456 -2.547458,2.387545 -4.915255,4.604642 -2.367796,2.217096 -4.877118,4.56707 -5.576271,5.222163 -4.739027,4.440381 -4.830125,4.524213 -5.016949,4.616868 l -0.186441,0.09246 -18.511199,0.0094 -18.5112002,0.0094 -0.1770753,-0.187231 z m 3.0893053,-1.870877 c -0.023305,-0.0094 -0.061441,-0.0094 -0.084746,0 -0.023305,0.0094 -0.00424,0.0171 0.042373,0.0171 0.04661,0 0.065678,-0.0077 0.042373,-0.0171 z m -0.023291,-0.189414 0.099562,-0.11017 -0.1101695,0.09956 c -0.060593,0.05476 -0.1101695,0.104336 -0.1101695,0.11017 0,0.02619 0.027971,0.0031 0.1207766,-0.09956 z m 2.6758334,-2.486972 c 0.857627,-0.802339 1.581303,-1.488162 1.608167,-1.524049 0.02686,-0.03589 -0.06466,0.04301 -0.20339,0.175317 -0.138729,0.132313 -1.079777,1.013883 -2.091217,1.959045 -1.0114412,0.945162 -1.8389835,1.727355 -1.8389835,1.738206 0,0.01085 0.2173728,-0.184896 0.4830508,-0.434995 0.265678,-0.250099 1.1847457,-1.111184 2.0423727,-1.913524 z m 1.864407,-1.741842 c 0.09182,-0.09322 0.159316,-0.169492 0.149994,-0.169492 -0.0093,0 -0.09207,0.07627 -0.183892,0.169492 -0.09182,0.09322 -0.159316,0.169492 -0.149994,0.169492 0.0093,0 0.09207,-0.07627 0.183892,-0.169492 z m 3.567797,-3.335605 c 1.253813,-1.169088 2.279661,-2.134375 2.279661,-2.145084 0,-0.01071 -0.07246,0.04659 -0.161017,0.127333 -0.422786,0.385467 -4.303342,4.024882 -4.539824,4.257716 -0.337044,0.331844 -0.333044,0.328144 2.42118,-2.239965 z m 4.144067,-3.869337 c 0.680509,-0.636346 1.259318,-1.18615 1.286242,-1.221788 0.02692,-0.03564 -0.04172,0.02046 -0.152542,0.124658 -0.110823,0.104199 -0.769717,0.719191 -1.464208,1.366649 -0.694492,0.647458 -1.262712,1.185902 -1.262712,1.196542 0,0.0233 0.03106,-0.0053 1.59322,-1.466061 z"
     id="path4152"
     inkscape:connector-curvature="0" />
  <path
     style="opacity:1;fill:#60b1f3;fill-opacity:1;fill-rule:nonzero;stroke:none;stroke-width:1.5;stroke-miterlimit:4;stroke-dasharray:none;stroke-opacity:1"
     d="M 5.331072,56.809871 C 4.9467595,56.403518 4.8480788,55.947137 5.0010043,55.283365 c 0.054576,-0.236886 0.083855,-0.278803 0.084411,-0.120846 l 4.083e-4,0.115819 0.086147,-0.152542 C 5.314538,54.873349 6.8469168,53.36469 9.7294731,50.638841 13.764722,46.822963 20.464032,40.515087 20.678228,40.329811 c 0.102542,-0.0887 0.255084,-0.193767 0.338983,-0.233489 l 0.152542,-0.07222 9.899027,-0.01003 9.899027,-0.01003 0.0096,7.492416 0.0096,7.492417 -0.739129,0.0098 c -0.652268,0.0087 -0.616864,0.01075 0.301261,0.01762 l 1.04039,0.0078 0.56978,-0.532485 c 3.593257,-3.358069 7.099335,-6.623338 9.357915,-8.715182 1.51483,-1.403002 2.754237,-2.55983 2.754237,-2.570729 0,-0.0109 -0.194491,0.162046 -0.432203,0.384323 -0.237712,0.222276 -1.355085,1.257255 -2.483051,2.299952 -2.572709,2.378224 -5.940559,5.505069 -7.271187,6.750856 -0.813457,0.761592 -1.018389,0.93759 -1.024156,0.879551 -0.004,-0.03991 -0.01183,-3.09671 -0.01749,-6.792897 l -0.01028,-6.720339 7.550115,0 c 7.548949,0 7.550143,1.1e-5 7.737407,0.07008 0.278678,0.104266 0.495166,0.264696 0.610871,0.452688 0.09888,0.160649 0.102682,0.181455 0.102685,0.561486 0,0.586472 0.0028,0.582284 -1.118644,1.634978 -3.57999,3.360323 -14.591471,13.664892 -14.877698,13.922585 -0.109851,0.0989 -0.270021,0.212325 -0.355933,0.252055 l -0.1562,0.07223 -18.511916,0.0086 -18.5119158,0.0086 -0.1707812,-0.180576 z m 3.6183421,-2.589439 c 0,-0.02545 -0.030435,0.0015 -0.1709081,0.151126 l -0.1511258,0.161017 0.161017,-0.151126 c 0.088559,-0.08312 0.1610169,-0.155576 0.1610169,-0.161017 z m 0.3389831,-0.298026 c 0.1201091,-0.121187 0.2107532,-0.220339 0.2014312,-0.220339 -0.00932,0 -0.1152204,0.09915 -0.2353295,0.220339 -0.1201092,0.121186 -0.2107532,0.220339 -0.2014312,0.220339 0.00932,0 0.1152203,-0.09915 0.2353295,-0.220339 z m 0.5423729,-0.508475 c 0.1201091,-0.121186 0.2107529,-0.220339 0.2014309,-0.220339 -0.0093,0 -0.1152201,0.09915 -0.2353292,0.220339 -0.1201092,0.121187 -0.2107533,0.220339 -0.2014312,0.220339 0.00932,0 0.1152203,-0.09915 0.2353295,-0.220339 z m 0.5254239,-0.491525 c 0.129508,-0.130509 0.227843,-0.237288 0.21852,-0.237288 -0.0093,0 -0.12291,0.106779 -0.252419,0.237288 -0.129508,0.130508 -0.227842,0.237288 -0.21852,0.237288 0.0093,0 0.12291,-0.10678 0.252419,-0.237288 z m 0.508474,-0.474577 c 0.129509,-0.130508 0.227843,-0.237288 0.218521,-0.237288 -0.0093,0 -0.12291,0.10678 -0.252419,0.237288 -0.129508,0.130509 -0.227843,0.237289 -0.218521,0.237289 0.0093,0 0.122911,-0.10678 0.252419,-0.237289 z m 0.542373,-0.508474 c 0.129509,-0.130509 0.227843,-0.237288 0.218521,-0.237288 -0.0093,0 -0.122911,0.106779 -0.252419,0.237288 -0.129509,0.130508 -0.227843,0.237288 -0.218521,0.237288 0.0093,0 0.122911,-0.10678 0.252419,-0.237288 z m 0.525424,-0.491526 c 0.120109,-0.121186 0.210753,-0.220339 0.201431,-0.220339 -0.0093,0 -0.11522,0.09915 -0.235329,0.220339 -0.120109,0.121187 -0.210754,0.220339 -0.201432,0.220339 0.0093,0 0.115221,-0.09915 0.23533,-0.220339 z m 0.508475,-0.474576 c 0.101268,-0.102542 0.176497,-0.186441 0.167175,-0.186441 -0.0093,0 -0.0998,0.0839 -0.201074,0.186441 -0.101268,0.102543 -0.176497,0.186441 -0.167175,0.186441 0.0093,0 0.0998,-0.0839 0.201074,-0.186441 z m 0.493658,-0.466102 0.09956,-0.110169 -0.11017,0.09956 c -0.102693,0.09281 -0.12575,0.120777 -0.09956,0.120777 0.0058,0 0.05541,-0.04958 0.11017,-0.11017 z m 1.624986,-1.516949 c 0.110697,-0.111864 0.19364,-0.20339 0.184318,-0.20339 -0.0093,0 -0.107519,0.09153 -0.218217,0.20339 -0.110697,0.111865 -0.19364,0.20339 -0.184318,0.20339 0.0093,0 0.107519,-0.09153 0.218217,-0.20339 z m 0.508474,-0.474576 c 0.129509,-0.130508 0.227843,-0.237288 0.218521,-0.237288 -0.0093,0 -0.122911,0.10678 -0.252419,0.237288 -0.129509,0.130508 -0.227843,0.237288 -0.218521,0.237288 0.0093,0 0.122911,-0.10678 0.252419,-0.237288 z m 3.542373,-3.317951 c 0.181516,-0.184596 0.181964,-0.18551 0.01695,-0.03461 -0.576144,0.52687 -3.305085,3.087989 -3.305085,3.101832 0,0.0212 3.036229,-2.811041 3.288136,-3.067223 z m 1.80358,-1.677514 c 0.572477,-0.534732 1.052047,-0.990329 1.065711,-1.012437 0.01366,-0.02211 -0.527185,0.475788 -1.201885,1.106436 -0.6747,0.630648 -1.226728,1.155727 -1.226728,1.166843 0,0.01112 0.07246,-0.04927 0.161017,-0.134196 0.08856,-0.08492 0.629407,-0.591914 1.201885,-1.126646 z m 34.111674,-0.529959 c 0.110699,-0.111864 0.193641,-0.20339 0.184319,-0.20339 -0.0093,0 -0.107519,0.09153 -0.218217,0.20339 -0.110698,0.111865 -0.193641,0.20339 -0.184319,0.20339 0.0093,0 0.107519,-0.09153 0.218217,-0.20339 z m 0.457628,-0.423729 c 0.101267,-0.102542 0.176498,-0.18644 0.167176,-0.18644 -0.0093,0 -0.09981,0.0839 -0.201075,0.18644 -0.101268,0.102543 -0.176498,0.186441 -0.167176,0.186441 0.0093,0 0.09981,-0.0839 0.201075,-0.186441 z M 21.729075,42.295287 c 0.101269,-0.102542 0.176498,-0.186441 0.167176,-0.186441 -0.0093,0 -0.09981,0.0839 -0.201074,0.186441 -0.101269,0.102542 -0.176498,0.186441 -0.167176,0.186441 0.0093,0 0.09981,-0.0839 0.201074,-0.186441 z"
     id="path4154"
     inkscape:connector-curvature="0" />
  <path
     style="opacity:1;fill:#60b1f3;fill-opacity:1;fill-rule:nonzero;stroke:none;stroke-width:1.5;stroke-miterlimit:4;stroke-dasharray:none;stroke-opacity:1"
     d="M 5.3254941,56.803974 C 4.9809517,56.439671 4.8645415,56.008506 4.9630353,55.461483 5.0273561,55.104252 5.0833787,54.965512 5.0848966,55.159694 l 9.274e-4,0.118644 0.086147,-0.152542 c 0.196648,-0.348209 1.7632769,-1.861948 8.438512,-8.153624 7.709086,-7.266121 7.153979,-6.74948 7.384387,-6.872684 l 0.140985,-0.07539 9.923729,-0.0088 9.923728,-0.0088 0,7.489612 0,7.489612 -0.09322,0.01412 c -0.05127,0.0078 0.08411,0.01641 0.300861,0.0192 l 0.394082,0.0051 3.419477,-3.18945 c 1.880712,-1.754198 3.503377,-3.274177 3.605919,-3.377732 0.229793,-0.232065 -1.502664,1.368994 -3.810485,3.521478 -1.378298,1.285524 -1.733359,1.600422 -1.739095,1.542373 -0.004,-0.04012 -0.01183,-3.097192 -0.01749,-6.7935 l -0.01028,-6.720559 7.593759,0.0087 7.59376,0.0087 0.220339,0.104757 c 0.275573,0.131018 0.422728,0.254178 0.517847,0.433405 0.06379,0.120195 0.07428,0.194479 0.07478,0.529634 8.14e-4,0.530829 -0.03363,0.599679 -0.547637,1.094928 -0.424854,0.409355 -12.216834,11.456052 -14.925071,13.98177 -0.362855,0.338402 -0.736583,0.657887 -0.830509,0.709967 l -0.170769,0.09469 -18.528866,0.0086 -18.528865,0.0086 -0.1763589,-0.186473 z m 3.5265492,-2.483263 c 0.042165,-0.05377 0.040966,-0.05496 -0.012799,-0.0128 -0.032627,0.02559 -0.059322,0.05228 -0.059322,0.05932 0,0.0279 0.027837,0.0099 0.072121,-0.04652 z m 0.5719471,-0.540957 c 0,-0.02545 -0.030435,0.0015 -0.1709081,0.151126 l -0.1511258,0.161017 0.161017,-0.151126 c 0.088559,-0.08312 0.1610169,-0.155576 0.1610169,-0.161017 z M 9.9663633,53.27128 c 0,-0.02545 -0.030435,0.0015 -0.1709082,0.151126 l -0.1511257,0.161017 0.1610169,-0.151126 c 0.088559,-0.08312 0.161017,-0.155577 0.161017,-0.161017 z m 0.3898307,-0.348874 c 0.09182,-0.09322 0.159316,-0.169492 0.149994,-0.169492 -0.0093,0 -0.09207,0.07627 -0.183893,0.169492 -0.09182,0.09322 -0.159315,0.169491 -0.149993,0.169491 0.0093,0 0.09207,-0.07627 0.183892,-0.169491 z m 0.508474,-0.474577 c 0.09182,-0.09322 0.159316,-0.169491 0.149994,-0.169491 -0.0093,0 -0.09207,0.07627 -0.183892,0.169491 -0.09182,0.09322 -0.159316,0.169492 -0.149994,0.169492 0.0093,0 0.09207,-0.07627 0.183892,-0.169492 z m 0.542373,-0.508474 c 0.09182,-0.09322 0.159316,-0.169492 0.149994,-0.169492 -0.0093,0 -0.09207,0.07627 -0.183892,0.169492 -0.09182,0.09322 -0.159316,0.169491 -0.149994,0.169491 0.0093,0 0.09207,-0.07627 0.183892,-0.169491 z m 0.661017,-0.634177 c 0,-0.02545 -0.03044,0.0015 -0.170908,0.151126 l -0.151126,0.161017 0.161017,-0.151126 c 0.08856,-0.08312 0.161017,-0.155576 0.161017,-0.161017 z m 0.372882,-0.331925 c 0.06325,-0.06525 0.107367,-0.118644 0.09805,-0.118644 -0.0093,0 -0.0687,0.05339 -0.131944,0.118644 -0.06325,0.06525 -0.107367,0.118644 -0.09804,0.118644 0.0093,0 0.0687,-0.05339 0.131944,-0.118644 z m 2.118644,-1.983051 c 0.07282,-0.07458 0.124776,-0.135593 0.115454,-0.135593 -0.0093,0 -0.07653,0.06102 -0.149353,0.135593 -0.07282,0.07458 -0.124776,0.135594 -0.115454,0.135594 0.0093,0 0.07653,-0.06102 0.149353,-0.135594 z m 0.508474,-0.474576 c 0.09182,-0.09322 0.159316,-0.169492 0.149994,-0.169492 -0.0093,0 -0.09207,0.07627 -0.183892,0.169492 -0.09182,0.09322 -0.159316,0.169492 -0.149994,0.169492 0.0093,0 0.09207,-0.07627 0.183892,-0.169492 z m 34.627119,-1.0755 c 0,-0.0093 -0.198305,0.169568 -0.440678,0.397534 -0.242373,0.227966 -0.440678,0.42211 -0.440678,0.431432 0,0.0093 0.198305,-0.169568 0.440678,-0.397534 0.242373,-0.227966 0.440678,-0.42211 0.440678,-0.431432 z m -34.101695,0.583975 c 0.06325,-0.06526 0.107367,-0.118644 0.09805,-0.118644 -0.0093,0 -0.0687,0.05339 -0.131943,0.118644 -0.06325,0.06525 -0.107367,0.118644 -0.09804,0.118644 0.0093,0 0.0687,-0.05339 0.131943,-0.118644 z m 0.508475,-0.474577 c 0.101268,-0.102542 0.176497,-0.18644 0.167175,-0.18644 -0.0093,0 -0.0998,0.0839 -0.201074,0.18644 -0.101268,0.102543 -0.176497,0.186441 -0.167175,0.186441 0.0093,0 0.0998,-0.0839 0.201074,-0.186441 z m 33.864406,-0.338983 c 0.120109,-0.121186 0.210753,-0.220339 0.201431,-0.220339 -0.0093,0 -0.11522,0.09915 -0.235329,0.220339 -0.120108,0.121187 -0.210753,0.220339 -0.20143,0.220339 0.0093,0 0.11522,-0.09915 0.235328,-0.220339 z M 16.610431,47.074948 c 0.120109,-0.121186 0.210753,-0.220339 0.201431,-0.220339 -0.0093,0 -0.11522,0.09915 -0.235329,0.220339 -0.120109,0.121186 -0.210753,0.220339 -0.201431,0.220339 0.0093,0 0.11522,-0.09915 0.235329,-0.220339 z M 50.42399,46.786812 c 0.110699,-0.111864 0.193641,-0.203389 0.184319,-0.203389 -0.0093,0 -0.107519,0.09152 -0.218217,0.203389 -0.110698,0.111865 -0.193641,0.20339 -0.184318,0.20339 0.0093,0 0.107518,-0.09152 0.218216,-0.20339 z M 17.135855,46.583423 c 0.129508,-0.130509 0.227843,-0.237289 0.21852,-0.237289 -0.0093,0 -0.12291,0.10678 -0.252418,0.237289 -0.129509,0.130508 -0.227843,0.237288 -0.218521,0.237288 0.0093,0 0.12291,-0.10678 0.252419,-0.237288 z m 33.745763,-0.220339 c 0.120108,-0.121187 0.210752,-0.220339 0.20143,-0.220339 -0.0093,0 -0.11522,0.09915 -0.235329,0.220339 -0.120108,0.121186 -0.210752,0.220339 -0.20143,0.220339 0.0093,0 0.11522,-0.09915 0.235329,-0.220339 z M 17.644329,46.108846 c 0.129509,-0.130508 0.227843,-0.237288 0.218521,-0.237288 -0.0093,0 -0.12291,0.10678 -0.252419,0.237288 -0.129508,0.130509 -0.227843,0.237288 -0.218521,0.237288 0.0093,0 0.122911,-0.106779 0.252419,-0.237288 z m 33.694916,-0.169491 c 0.110698,-0.111865 0.19364,-0.20339 0.184318,-0.20339 -0.0093,0 -0.107518,0.09152 -0.218217,0.20339 -0.110698,0.111864 -0.19364,0.20339 -0.184318,0.20339 0.0093,0 0.107518,-0.09153 0.218217,-0.20339 z m -33.286003,-0.211865 0.09956,-0.110169 -0.11017,0.09956 c -0.102693,0.09281 -0.12575,0.120777 -0.09956,0.120777 0.0058,0 0.05541,-0.04958 0.11017,-0.11017 z m 33.74363,-0.211864 c 0.120108,-0.121186 0.210752,-0.220339 0.20143,-0.220339 -0.0093,0 -0.11522,0.09915 -0.235328,0.220339 -0.120109,0.121186 -0.210753,0.220339 -0.201431,0.220339 0.0093,0 0.11522,-0.09915 0.235329,-0.220339 z m -33.506342,-0.02542 0.09956,-0.110169 -0.110169,0.09956 c -0.102694,0.09281 -0.125751,0.120777 -0.09956,0.120777 0.0058,0 0.05541,-0.04958 0.11017,-0.11017 z m 0.319901,-0.279661 c 0.04379,-0.04661 0.07199,-0.08475 0.06267,-0.08475 -0.0093,0 -0.05278,0.03814 -0.09656,0.08475 -0.04379,0.04661 -0.07199,0.08475 -0.06267,0.08475 0.0093,0 0.05278,-0.03814 0.09656,-0.08475 z m 33.644068,-0.118644 c 0.110698,-0.111864 0.193641,-0.20339 0.184319,-0.20339 -0.0093,0 -0.107519,0.09153 -0.218217,0.20339 -0.110699,0.111865 -0.193641,0.20339 -0.184319,0.20339 0.0093,0 0.107519,-0.09153 0.218217,-0.20339 z m 0.440678,-0.406779 c 0.110698,-0.111865 0.193641,-0.20339 0.184319,-0.20339 -0.0093,0 -0.107519,0.09153 -0.218217,0.20339 -0.110699,0.111864 -0.193641,0.203389 -0.184319,0.203389 0.0093,0 0.107519,-0.09152 0.218217,-0.203389 z m -33.457627,-0.0678 c 0.07282,-0.07458 0.124776,-0.135593 0.115454,-0.135593 -0.0093,0 -0.07653,0.06102 -0.149353,0.135593 -0.07282,0.07458 -0.124776,0.135593 -0.115454,0.135593 0.0093,0 0.07653,-0.06102 0.149353,-0.135593 z m 0.457627,-0.423729 c 0.120109,-0.121186 0.210753,-0.220339 0.201431,-0.220339 -0.0093,0 -0.11522,0.09915 -0.235329,0.220339 -0.12011,0.121187 -0.210754,0.220339 -0.201432,0.220339 0.0093,0 0.115221,-0.09915 0.23533,-0.220339 z m 33.474576,0.05085 c 0.09182,-0.09322 0.159315,-0.169492 0.149993,-0.169492 -0.0093,0 -0.09207,0.07627 -0.183891,0.169492 -0.09182,0.09322 -0.159315,0.169491 -0.149993,0.169491 0.0093,0 0.09207,-0.07627 0.183891,-0.169491 z m 0.457627,-0.423729 c 0.101268,-0.102543 0.176499,-0.186441 0.167177,-0.186441 -0.0093,0 -0.09981,0.0839 -0.201075,0.186441 -0.101268,0.102542 -0.176498,0.18644 -0.167176,0.18644 0.0093,0 0.09981,-0.0839 0.201074,-0.18644 z M 20.220601,43.702067 c 0.129508,-0.130509 0.227842,-0.237288 0.21852,-0.237288 -0.0093,0 -0.12291,0.106779 -0.252419,0.237288 -0.129508,0.130508 -0.227842,0.237288 -0.21852,0.237288 0.0093,0 0.12291,-0.10678 0.252419,-0.237288 z m 33.847457,-0.288136 c 0.06325,-0.06525 0.107366,-0.118644 0.09804,-0.118644 -0.0093,0 -0.0687,0.05339 -0.131942,0.118644 -0.06325,0.06525 -0.107366,0.118644 -0.09804,0.118644 0.0093,0 0.06869,-0.05339 0.131942,-0.118644 z m -33.322034,-0.20339 c 0.120109,-0.121186 0.210754,-0.220339 0.201432,-0.220339 -0.0093,0 -0.115221,0.09915 -0.23533,0.220339 -0.120109,0.121187 -0.210753,0.220339 -0.201431,0.220339 0.0093,0 0.11522,-0.09915 0.235329,-0.220339 z m 33.932204,-0.379939 c 0,-0.02545 -0.03043,0.0015 -0.170909,0.151126 l -0.151125,0.161017 0.161017,-0.151126 c 0.08856,-0.08312 0.161017,-0.155577 0.161017,-0.161017 z m -33.322034,-0.20339 c 0,-0.02545 -0.03043,0.0015 -0.170908,0.151126 l -0.151126,0.161017 0.161017,-0.151126 c 0.08856,-0.08312 0.161017,-0.155577 0.161017,-0.161017 z m 33.610169,-0.04379 c 0.07282,-0.07458 0.124777,-0.135594 0.115455,-0.135594 -0.0093,0 -0.07653,0.06102 -0.149353,0.135594 -0.07282,0.07458 -0.124776,0.135593 -0.115454,0.135593 0.0093,0 0.07653,-0.06102 0.149352,-0.135593 z M 21.729075,42.295287 c 0.06325,-0.06525 0.107367,-0.118644 0.09804,-0.118644 -0.0093,0 -0.0687,0.05339 -0.131943,0.118644 -0.06325,0.06525 -0.107367,0.118644 -0.09805,0.118644 0.0093,0 0.0687,-0.05339 0.131943,-0.118644 z"
     id="path4156"
     inkscape:connector-curvature="0" />
  <path
     style="opacity:1;fill:#60b1f3;fill-opacity:1;fill-rule:nonzero;stroke:none;stroke-width:1.5;stroke-miterlimit:4;stroke-dasharray:none;stroke-opacity:1"
     d="M 5.3253783,56.803851 C 4.9309178,56.386767 4.8297523,55.840707 5.0238233,55.176149 l 0.039453,-0.135099 0.020968,0.101695 0.020968,0.101695 0.061477,-0.118644 c 0.1800292,-0.34744 2.7732796,-2.82863 13.7321249,-13.138726 1.872589,-1.761733 1.94098,-1.823377 2.112892,-1.904433 0.116586,-0.05497 0.728693,-0.05907 10.047802,-0.06729 l 9.923655,-0.0088 0.0085,7.500282 0.0085,7.500282 0.290274,0.0097 0.290271,0.0097 2.675831,-2.496081 c 1.471705,-1.372844 2.767352,-2.588435 2.879217,-2.701313 0.192196,-0.193939 -0.994288,0.902122 -3.118644,2.880971 -0.522034,0.486277 -0.952085,0.866444 -0.955671,0.844817 -0.0036,-0.02163 -0.01246,-3.07873 -0.01971,-6.79356 l -0.01319,-6.754238 7.583583,0 7.58358,0 0.27364,0.136963 c 0.474817,0.237652 0.606366,0.481495 0.574577,1.065056 -0.01921,0.352619 -0.110509,0.558525 -0.346068,0.780476 -1.330895,1.253996 -13.346224,12.51122 -15.155315,14.199092 -0.455567,0.42504 -0.702699,0.63026 -0.844397,0.701188 l -0.200329,0.100276 -18.498145,0 -18.4981426,0 -0.1762431,-0.186351 z m 4.0138663,-2.932293 c 0.033746,-0.03729 0.053728,-0.0678 0.044406,-0.0678 -0.00932,0 -0.044559,0.03051 -0.078304,0.0678 -0.033745,0.03729 -0.053728,0.0678 -0.044406,0.0678 0.00932,0 0.044559,-0.03051 0.078304,-0.0678 z m 0.5254238,-0.491525 c 0.043788,-0.04661 0.071987,-0.08475 0.062665,-0.08475 -0.00932,0 -0.052776,0.03814 -0.096564,0.08475 -0.043788,0.04661 -0.071988,0.08475 -0.062666,0.08475 0.00932,0 0.052776,-0.03814 0.096564,-0.08475 z m 0.4915256,-0.457627 c 0.07282,-0.07458 0.124776,-0.135594 0.115454,-0.135594 -0.0093,0 -0.07653,0.06102 -0.149353,0.135594 -0.07282,0.07458 -0.124776,0.135593 -0.115454,0.135593 0.0093,0 0.07653,-0.06102 0.149353,-0.135593 z m 0.508474,-0.474577 c 0.07282,-0.07458 0.124777,-0.135593 0.115455,-0.135593 -0.0093,0 -0.07653,0.06102 -0.149353,0.135593 -0.07282,0.07458 -0.124776,0.135594 -0.115454,0.135594 0.0093,0 0.07653,-0.06102 0.149352,-0.135594 z m 0.542373,-0.508474 c 0.07282,-0.07458 0.124777,-0.135593 0.115454,-0.135593 -0.0093,0 -0.07653,0.06102 -0.149352,0.135593 -0.07282,0.07458 -0.124776,0.135593 -0.115454,0.135593 0.0093,0 0.07653,-0.06102 0.149352,-0.135593 z m 0.576271,-0.542373 c 0.03375,-0.03729 0.05373,-0.0678 0.04441,-0.0678 -0.0093,0 -0.04456,0.03051 -0.0783,0.0678 -0.03375,0.03729 -0.05373,0.0678 -0.04441,0.0678 0.0093,0 0.04456,-0.03051 0.0783,-0.0678 z m 0.461952,-0.432203 c 0.04217,-0.05376 0.04097,-0.05496 -0.0128,-0.0128 -0.05647,0.04428 -0.07442,0.07212 -0.04652,0.07212 0.007,0 0.03373,-0.0267 0.05932,-0.05932 z m 35.148218,-1.550848 c 0.120108,-0.121186 0.210753,-0.220339 0.20143,-0.220339 -0.0093,0 -0.11522,0.09915 -0.235328,0.220339 -0.120109,0.121187 -0.210753,0.220339 -0.201431,0.220339 0.0093,0 0.115221,-0.09915 0.235329,-0.220339 z m 0.457627,-0.423729 c 0.09182,-0.09322 0.159315,-0.169491 0.149993,-0.169491 -0.0093,0 -0.09207,0.07627 -0.183891,0.169491 -0.09182,0.09322 -0.159315,0.169492 -0.149993,0.169492 0.0093,0 0.09207,-0.07627 0.183891,-0.169492 z m -33.491525,0 c 0.03375,-0.03729 0.05373,-0.0678 0.04441,-0.0678 -0.0093,0 -0.04456,0.03051 -0.07831,0.0678 -0.03374,0.03729 -0.05373,0.0678 -0.04441,0.0678 0.0093,0 0.04456,-0.03051 0.0783,-0.0678 z m 0.525423,-0.491525 c 0.06325,-0.06525 0.107367,-0.118644 0.09805,-0.118644 -0.0093,0 -0.0687,0.05339 -0.131943,0.118644 -0.06325,0.06525 -0.107367,0.118644 -0.09805,0.118644 0.0093,0 0.0687,-0.05339 0.131943,-0.118644 z m 33.440678,0.05085 c 0.03375,-0.03729 0.05373,-0.0678 0.04441,-0.0678 -0.0093,0 -0.04456,0.03051 -0.07831,0.0678 -0.03375,0.03729 -0.05373,0.0678 -0.04441,0.0678 0.0093,0 0.04456,-0.03051 0.07831,-0.0678 z m 0.661017,-0.634176 c 0,-0.02545 -0.03043,0.0015 -0.170908,0.151125 l -0.151126,0.161017 0.161017,-0.151125 c 0.08856,-0.08312 0.161017,-0.155577 0.161017,-0.161017 z m 0.440678,-0.40678 c 0,-0.02545 -0.03043,0.0015 -0.170908,0.151126 l -0.151126,0.161017 0.161017,-0.151126 c 0.08856,-0.08312 0.161017,-0.155577 0.161017,-0.161017 z m -33.542373,0.05791 c 0.07282,-0.07458 0.124777,-0.135593 0.115455,-0.135593 -0.0093,0 -0.07653,0.06102 -0.149353,0.135593 -0.07282,0.07458 -0.124776,0.135594 -0.115454,0.135594 0.0093,0 0.07653,-0.06102 0.149352,-0.135594 z M 49.949414,47.22749 c 0.09182,-0.09322 0.159315,-0.169491 0.149993,-0.169491 -0.0093,0 -0.09207,0.07627 -0.183891,0.169491 -0.09182,0.09322 -0.159315,0.169492 -0.149993,0.169492 0.0093,0 0.09207,-0.07627 0.183891,-0.169492 z m -33.20339,-0.295193 c 0,-0.02545 -0.03043,0.0015 -0.170908,0.151126 l -0.151126,0.161017 0.161017,-0.151126 c 0.08856,-0.08312 0.161017,-0.155577 0.161017,-0.161017 z M 50.42399,46.786812 c 0.09182,-0.09322 0.159316,-0.169491 0.149994,-0.169491 -0.0093,0 -0.09208,0.07627 -0.183892,0.169491 -0.09182,0.09322 -0.159315,0.169492 -0.149993,0.169492 0.0093,0 0.09208,-0.07627 0.183891,-0.169492 z M 17.135855,46.583423 c 0.09182,-0.09322 0.159316,-0.169492 0.149994,-0.169492 -0.0093,0 -0.09207,0.07627 -0.183892,0.169492 -0.09182,0.09322 -0.159316,0.169491 -0.149994,0.169491 0.0093,0 0.09207,-0.07627 0.183892,-0.169491 z m 33.881356,-0.362991 c 0,-0.02545 -0.03043,0.0015 -0.170909,0.151126 l -0.151125,0.161017 0.161017,-0.151126 c 0.08856,-0.08312 0.161017,-0.155576 0.161017,-0.161017 z M 17.644329,46.108846 c 0.09182,-0.09322 0.159316,-0.169491 0.149994,-0.169491 -0.0093,0 -0.09207,0.07627 -0.183892,0.169491 -0.09182,0.09322 -0.159316,0.169492 -0.149994,0.169492 0.0093,0 0.09207,-0.07627 0.183892,-0.169492 z m 33.847458,-0.329092 c 0,-0.02545 -0.03043,0.0015 -0.170908,0.151126 l -0.151126,0.161017 0.161017,-0.151126 c 0.08856,-0.08312 0.161017,-0.155576 0.161017,-0.161017 z m -33.440678,-0.04379 c 0.03374,-0.03729 0.05373,-0.0678 0.04441,-0.0678 -0.0093,0 -0.04456,0.03051 -0.0783,0.0678 -0.03375,0.03729 -0.05373,0.0678 -0.04441,0.0678 0.0093,0 0.04456,-0.03051 0.0783,-0.0678 z m 33.881356,-0.36299 c 0,-0.02545 -0.03043,0.0015 -0.170908,0.151126 l -0.151126,0.161017 0.161017,-0.151126 c 0.08856,-0.08312 0.161017,-0.155577 0.161017,-0.161017 z m -33.677966,0.1596 c 0.03374,-0.03729 0.05373,-0.0678 0.04441,-0.0678 -0.0093,0 -0.04456,0.03051 -0.0783,0.0678 -0.03375,0.03729 -0.05373,0.0678 -0.04441,0.0678 0.0093,0 0.04456,-0.03051 0.07831,-0.0678 z m 0.360256,-0.330508 c 0.04217,-0.05376 0.04097,-0.05496 -0.0128,-0.0128 -0.05647,0.04428 -0.07442,0.07212 -0.04652,0.07212 0.007,0 0.03373,-0.0267 0.05932,-0.05932 z m 33.639744,-0.11017 c 0.07282,-0.07458 0.124776,-0.135593 0.115454,-0.135593 -0.0093,0 -0.07653,0.06102 -0.149352,0.135593 -0.07282,0.07458 -0.124777,0.135593 -0.115455,0.135593 0.0093,0 0.07653,-0.06102 0.149353,-0.135593 z m 0.440678,-0.406779 c 0.07282,-0.07458 0.124776,-0.135594 0.115454,-0.135594 -0.0093,0 -0.07653,0.06102 -0.149352,0.135594 -0.07282,0.07458 -0.124777,0.135593 -0.115455,0.135593 0.0093,0 0.07653,-0.06102 0.149353,-0.135593 z m -33.504151,-0.02542 c 0.04217,-0.05376 0.04097,-0.05496 -0.0128,-0.0128 -0.03263,0.02559 -0.05932,0.05228 -0.05932,0.05932 0,0.0279 0.02784,0.0099 0.07212,-0.04652 z M 53.169753,44.24444 c 0.07282,-0.07458 0.124776,-0.135594 0.115454,-0.135594 -0.0093,0 -0.07653,0.06102 -0.149352,0.135594 -0.07282,0.07458 -0.124776,0.135593 -0.115454,0.135593 0.0093,0 0.07653,-0.06102 0.149352,-0.135593 z M 19.83077,44.050941 c 0,-0.02545 -0.03044,0.0015 -0.170908,0.151126 l -0.151126,0.161017 0.161017,-0.151126 c 0.08856,-0.08312 0.161017,-0.155577 0.161017,-0.161017 z m 33.79661,-0.23023 c 0.06325,-0.06525 0.107366,-0.118644 0.09804,-0.118644 -0.0093,0 -0.06869,0.05339 -0.131942,0.118644 -0.06325,0.06525 -0.107366,0.118644 -0.09804,0.118644 0.0093,0 0.06869,-0.05339 0.131942,-0.118644 z M 20.220601,43.702067 c 0.09182,-0.09322 0.159316,-0.169492 0.149993,-0.169492 -0.0093,0 -0.09207,0.07627 -0.183892,0.169492 -0.09182,0.09322 -0.159316,0.169491 -0.149994,0.169491 0.0093,0 0.09207,-0.07627 0.183893,-0.169491 z M 54.051109,43.43088 c 0.03375,-0.03729 0.05373,-0.0678 0.04441,-0.0678 -0.0093,0 -0.04456,0.03051 -0.07831,0.0678 -0.03375,0.03729 -0.05373,0.0678 -0.04441,0.0678 0.0093,0 0.04456,-0.03051 0.07831,-0.0678 z M 20.881618,43.06789 c 0,-0.02545 -0.03044,0.0015 -0.170909,0.151126 l -0.151125,0.161017 0.161017,-0.151126 c 0.08856,-0.08312 0.161017,-0.155577 0.161017,-0.161017 z m 33.677966,-0.111586 c 0.03374,-0.03729 0.05373,-0.0678 0.04441,-0.0678 -0.0093,0 -0.04456,0.03051 -0.07831,0.0678 -0.03375,0.03729 -0.05373,0.0678 -0.04441,0.0678 0.0093,0 0.04456,-0.03051 0.07831,-0.0678 z M 21.254499,42.735965 c 0.04379,-0.04661 0.07199,-0.08475 0.06266,-0.08475 -0.0093,0 -0.05277,0.03814 -0.09656,0.08475 -0.04379,0.04661 -0.07199,0.08475 -0.06267,0.08475 0.0093,0 0.05278,-0.03814 0.09656,-0.08475 z m 33.713997,-0.161017 0.09956,-0.110169 -0.110169,0.09956 c -0.102695,0.09281 -0.125753,0.120777 -0.09956,0.120777 0.0058,0 0.05541,-0.04958 0.11017,-0.11017 z M 21.729075,42.295287 c 0.04379,-0.04661 0.07199,-0.08475 0.06267,-0.08475 -0.0093,0 -0.05278,0.03814 -0.09656,0.08475 -0.04379,0.04661 -0.07199,0.08475 -0.06267,0.08475 0.0093,0 0.05278,-0.03814 0.09656,-0.08475 z"
     id="path4158"
     inkscape:connector-curvature="0" />
  <path
     style="opacity:1;fill:#60b1f3;fill-opacity:1;fill-rule:nonzero;stroke:none;stroke-width:1.5;stroke-miterlimit:4;stroke-dasharray:none;stroke-opacity:1"
     d="M 5.3253783,56.803851 C 4.9303988,56.386219 4.8267375,55.829153 5.0225799,55.176643 l 0.040697,-0.135593 0.020968,0.101695 0.020968,0.101695 0.061487,-0.118644 C 5.25219,54.960835 6.7225847,53.486015 8.2375497,52.045704 10.700487,49.704134 19.872049,41.059039 20.731315,40.269107 21.042906,39.982658 20.069393,40.007151 31.142902,40.007151 l 9.840261,0 0.0085,7.5 0.0085,7.5 0.288559,0.0097 0.288556,0.0097 1.694495,-1.579967 c 0.931969,-0.868983 1.77839,-1.6649 1.880932,-1.768707 0.102542,-0.103806 -0.324441,0.285164 -0.948851,0.864378 -0.62441,0.579213 -1.137146,1.050437 -1.139413,1.047164 -0.0023,-0.0033 -0.01321,-3.060611 -0.02432,-6.794086 l -0.0202,-6.788136 7.587888,0 7.587889,0 0.27364,0.136963 c 0.479634,0.240064 0.605105,0.472896 0.574116,1.065362 -0.01941,0.37105 -0.114736,0.582178 -0.365499,0.809484 -0.08539,0.0774 -1.489352,1.391937 -3.119915,2.921184 -3.571627,3.349703 -11.892129,11.138609 -12.329298,11.541584 -0.171926,0.158474 -0.400468,0.33753 -0.507875,0.397901 l -0.195285,0.109765 -18.512032,4.03e-4 -18.5120316,4.05e-4 -0.1762431,-0.186351 z m 5.0308157,-3.881445 c 0.03374,-0.03729 0.05373,-0.0678 0.04441,-0.0678 -0.0093,0 -0.04456,0.03051 -0.07831,0.0678 -0.03374,0.03729 -0.05373,0.0678 -0.04441,0.0678 0.0093,0 0.04456,-0.03051 0.07831,-0.0678 z m 0.508474,-0.474577 c 0.03375,-0.03729 0.05373,-0.0678 0.04441,-0.0678 -0.0093,0 -0.04456,0.03051 -0.0783,0.0678 -0.03374,0.03729 -0.05373,0.0678 -0.04441,0.0678 0.0093,0 0.04456,-0.03051 0.0783,-0.0678 z m 0.563646,-0.533898 c 0.04217,-0.05376 0.04097,-0.05496 -0.0128,-0.0128 -0.05647,0.04428 -0.07442,0.07212 -0.04652,0.07212 0.007,0 0.03373,-0.02669 0.05932,-0.05932 z m 34.165168,-0.635593 c 0.120108,-0.121187 0.210753,-0.220339 0.20143,-0.220339 -0.0093,0 -0.11522,0.09915 -0.235328,0.220339 -0.120109,0.121186 -0.210753,0.220339 -0.201431,0.220339 0.0093,0 0.115221,-0.09915 0.235329,-0.220339 z m 0.508475,-0.474576 c 0.120108,-0.121187 0.210752,-0.220339 0.20143,-0.220339 -0.0093,0 -0.11522,0.09915 -0.235329,0.220339 -0.120108,0.121186 -0.210752,0.220339 -0.20143,0.220339 0.0093,0 0.11522,-0.09915 0.235329,-0.220339 z m 0.491525,-0.457628 c 0.09182,-0.09322 0.159315,-0.169491 0.149993,-0.169491 -0.0093,0 -0.09207,0.07627 -0.183891,0.169491 -0.09182,0.09322 -0.159316,0.169492 -0.149994,0.169492 0.0093,0 0.09208,-0.07627 0.183892,-0.169492 z m 0.461953,-0.432203 c 0.04216,-0.05376 0.04097,-0.05496 -0.0128,-0.0128 -0.03263,0.02559 -0.05932,0.05228 -0.05932,0.05932 0,0.0279 0.02784,0.0099 0.07212,-0.04652 z m 0.67364,-0.642651 c 0,-0.02545 -0.03043,0.0015 -0.170908,0.151126 l -0.151126,0.161017 0.161017,-0.151126 c 0.08856,-0.08312 0.161017,-0.155577 0.161017,-0.161017 z m 0.338983,-0.298027 c 0.06325,-0.06525 0.107366,-0.118644 0.09804,-0.118644 -0.0093,0 -0.0687,0.05339 -0.131942,0.118644 -0.06325,0.06525 -0.107366,0.118644 -0.09804,0.118644 0.0093,0 0.06869,-0.05339 0.131942,-0.118644 z M 15.089331,48.490202 c 0.04217,-0.05376 0.04097,-0.05496 -0.0128,-0.0128 -0.05647,0.04428 -0.07442,0.07212 -0.04652,0.07212 0.007,0 0.03373,-0.02669 0.05932,-0.05932 z M 49.068058,48.04105 c 0.03375,-0.03729 0.05373,-0.0678 0.04441,-0.0678 -0.0093,0 -0.04456,0.03051 -0.07831,0.0678 -0.03375,0.03729 -0.05373,0.0678 -0.04441,0.0678 0.0093,0 0.04456,-0.03051 0.07831,-0.0678 z m 0.457627,-0.423729 c 0.04379,-0.04661 0.07199,-0.08475 0.06266,-0.08475 -0.0093,0 -0.05278,0.03814 -0.09656,0.08475 -0.04379,0.04661 -0.07199,0.08475 -0.06266,0.08475 0.0093,0 0.05278,-0.03814 0.09656,-0.08475 z m -33.440678,-0.05085 c 0.03375,-0.03729 0.05373,-0.0678 0.04441,-0.0678 -0.0093,0 -0.04456,0.03051 -0.0783,0.0678 -0.03374,0.03729 -0.05373,0.0678 -0.04441,0.0678 0.0093,0 0.04456,-0.03051 0.0783,-0.0678 z m 33.881356,-0.355932 c 0.06325,-0.06525 0.107366,-0.118644 0.09804,-0.118644 -0.0093,0 -0.0687,0.05339 -0.131942,0.118644 -0.06325,0.06525 -0.107366,0.118644 -0.09804,0.118644 0.0093,0 0.06869,-0.05339 0.131942,-0.118644 z M 16.644329,47.04105 c 0.04379,-0.04661 0.07199,-0.08475 0.06267,-0.08475 -0.0093,0 -0.05278,0.03814 -0.09656,0.08475 -0.04379,0.04661 -0.07199,0.08474 -0.06266,0.08474 0.0093,0 0.05278,-0.03813 0.09656,-0.08474 z m 33.781794,-0.262712 0.09956,-0.11017 -0.110169,0.09956 c -0.102695,0.09281 -0.125753,0.120776 -0.09956,0.120776 0.0058,0 0.05541,-0.04958 0.11017,-0.110169 z M 17.135855,46.583423 c 0.07282,-0.07458 0.124776,-0.135594 0.115454,-0.135594 -0.0093,0 -0.07653,0.06102 -0.149352,0.135594 -0.07282,0.07458 -0.124777,0.135593 -0.115455,0.135593 0.0093,0 0.07653,-0.06102 0.149353,-0.135593 z m 33.779661,-0.254238 c 0.04379,-0.04661 0.07199,-0.08475 0.06266,-0.08475 -0.0093,0 -0.05278,0.03814 -0.09656,0.08475 -0.04379,0.04661 -0.07199,0.08475 -0.06267,0.08475 0.0093,0 0.05278,-0.03814 0.09656,-0.08475 z M 17.661279,46.091897 c 0.06325,-0.06525 0.107367,-0.118644 0.09804,-0.118644 -0.0093,0 -0.0687,0.05339 -0.131944,0.118644 -0.06325,0.06525 -0.107367,0.118644 -0.09804,0.118644 0.0093,0 0.0687,-0.05339 0.131944,-0.118644 z m 33.711864,-0.18644 c 0.03375,-0.03729 0.05373,-0.0678 0.04441,-0.0678 -0.0093,0 -0.04456,0.03051 -0.07831,0.0678 -0.03375,0.03729 -0.05373,0.0678 -0.04441,0.0678 0.0093,0 0.04456,-0.03051 0.07831,-0.0678 z m 0.457627,-0.423729 c 0.04379,-0.04661 0.07199,-0.08475 0.06266,-0.08475 -0.0093,0 -0.05278,0.03814 -0.09656,0.08475 -0.04379,0.04661 -0.07199,0.08475 -0.06267,0.08475 0.0093,0 0.05278,-0.03814 0.09656,-0.08475 z m 0.425861,-0.398305 0.09956,-0.11017 -0.11017,0.09956 c -0.102695,0.09281 -0.125752,0.120777 -0.09956,0.120777 0.0058,0 0.05541,-0.04958 0.110169,-0.110169 z m 0.455495,-0.415255 c 0.04379,-0.04661 0.07199,-0.08474 0.06266,-0.08474 -0.0093,0 -0.05278,0.03813 -0.09656,0.08474 -0.04379,0.04661 -0.07199,0.08475 -0.06266,0.08475 0.0093,0 0.05278,-0.03813 0.09656,-0.08475 z m 0.474576,-0.440678 c 0.04379,-0.04661 0.07199,-0.08475 0.06267,-0.08475 -0.0093,0 -0.05278,0.03814 -0.09656,0.08475 -0.04379,0.04661 -0.07199,0.08475 -0.06266,0.08475 0.0093,0 0.05278,-0.03813 0.09656,-0.08475 z m -33.457627,-0.0678 c 0.04379,-0.04661 0.07199,-0.08475 0.06267,-0.08475 -0.0093,0 -0.05278,0.03814 -0.09656,0.08475 -0.04379,0.04661 -0.07199,0.08475 -0.06267,0.08475 0.0093,0 0.05278,-0.03814 0.09656,-0.08475 z m 33.902631,-0.347458 c 0.04216,-0.05376 0.04097,-0.05496 -0.0128,-0.0128 -0.03263,0.02559 -0.05932,0.05228 -0.05932,0.05932 0,0.0279 0.02784,0.0099 0.07212,-0.04652 z M 20.23755,43.685118 c 0.06325,-0.06526 0.107367,-0.118645 0.09805,-0.118645 -0.0093,0 -0.0687,0.05339 -0.131944,0.118645 -0.06325,0.06525 -0.107367,0.118644 -0.09804,0.118644 0.0093,0 0.0687,-0.05339 0.131944,-0.118644 z m 0.525423,-0.491526 c 0.03375,-0.03729 0.05373,-0.0678 0.04441,-0.0678 -0.0093,0 -0.04456,0.03051 -0.0783,0.0678 -0.03375,0.03729 -0.05373,0.0678 -0.04441,0.0678 0.0093,0 0.04456,-0.03051 0.0783,-0.0678 z"
     id="path4160"
     inkscape:connector-curvature="0" />
  <path
     style="opacity:1;fill:#60b1f3;fill-opacity:1;fill-rule:nonzero;stroke:none;stroke-width:1.5;stroke-miterlimit:4;stroke-dasharray:none;stroke-opacity:1"
     d="M 5.3253783,56.803851 C 4.9972105,56.456862 4.870453,56.030719 4.9460393,55.528559 c 0.023522,-0.156266 0.063173,-0.329882 0.088114,-0.385814 l 0.045348,-0.101695 0.00275,0.101089 0.00275,0.101089 0.088879,-0.134987 C 5.3179666,54.889415 6.8835508,53.332005 8.5765328,51.72336 11.332049,49.105112 20.159621,40.785479 20.748622,40.251653 c 0.29341,-0.265924 -0.617323,-0.244502 10.394355,-0.244502 l 9.840335,0 0,7.487091 0,7.48709 0.127119,0.02101 c 0.06992,0.01156 0.20401,0.02118 0.297987,0.02138 l 0.170871,3.73e-4 0.871501,-0.814795 c 0.479329,-0.448137 0.871506,-0.824962 0.871506,-0.837388 0,-0.01243 -0.06102,0.03699 -0.135594,0.109811 l -0.135593,0.132403 -2.4e-5,-2.659422 c -1.7e-5,-1.462682 -0.01016,-4.524252 -0.02255,-6.80349 l -0.02252,-4.144068 7.599668,0 7.599664,0 0.231227,0.116444 c 0.277261,0.139627 0.414726,0.25048 0.519437,0.418886 0.07073,0.113754 0.07815,0.165917 0.07815,0.549416 0,0.404252 -0.0045,0.43189 -0.09838,0.601273 -0.103312,0.18645 -0.489661,0.551545 -10.376196,9.805334 -2.218644,2.076649 -4.34661,4.068478 -4.728814,4.426287 -0.830854,0.777823 -0.947125,0.876573 -1.15783,0.983345 l -0.16195,0.08207 -18.504684,0 -18.5046846,0 -0.1762431,-0.186351 z M 43.62738,53.108846 c 0.120109,-0.121186 0.210753,-0.220339 0.201431,-0.220339 -0.0093,0 -0.115221,0.09915 -0.235329,0.220339 -0.120108,0.121187 -0.210753,0.220339 -0.201431,0.220339 0.0093,0 0.115221,-0.09915 0.235329,-0.220339 z m 0.474577,-0.440678 c 0.120108,-0.121186 0.210752,-0.220339 0.20143,-0.220339 -0.0093,0 -0.11522,0.09915 -0.235329,0.220339 -0.120108,0.121187 -0.210752,0.220339 -0.20143,0.220339 0.0093,0 0.11522,-0.09915 0.235329,-0.220339 z m 0.474576,-0.440678 c 0.101268,-0.102542 0.176498,-0.18644 0.167176,-0.18644 -0.0093,0 -0.09981,0.0839 -0.201074,0.18644 -0.101268,0.102543 -0.176499,0.186441 -0.167177,0.186441 0.0093,0 0.09981,-0.0839 0.201075,-0.186441 z m 0.457627,-0.423728 c 0.03375,-0.03729 0.05373,-0.0678 0.04441,-0.0678 -0.0093,0 -0.04456,0.03051 -0.07831,0.0678 -0.03375,0.03729 -0.05373,0.0678 -0.04441,0.0678 0.0093,0 0.04456,-0.03051 0.07831,-0.0678 z m 0.576271,-0.542373 c 0.09182,-0.09322 0.159315,-0.169492 0.149993,-0.169492 -0.0093,0 -0.09207,0.07627 -0.183891,0.169492 -0.09182,0.09322 -0.159315,0.169491 -0.149993,0.169491 0.0093,0 0.09207,-0.07627 0.183891,-0.169491 z M 46.23755,50.66111 c 0,-0.02545 -0.03043,0.0015 -0.170909,0.151126 l -0.151125,0.161017 0.161017,-0.151126 c 0.08856,-0.08312 0.161017,-0.155576 0.161017,-0.161017 z m 0.338983,-0.298026 c 0.06325,-0.06526 0.107366,-0.118644 0.09804,-0.118644 -0.0093,0 -0.06869,0.05339 -0.131942,0.118644 -0.06325,0.06525 -0.107367,0.118644 -0.09804,0.118644 0.0093,0 0.0687,-0.05339 0.131943,-0.118644 z m 1.050847,-0.983051 c 0.04379,-0.04661 0.07199,-0.08475 0.06266,-0.08475 -0.0093,0 -0.05278,0.03814 -0.09656,0.08475 -0.04379,0.04661 -0.07199,0.08475 -0.06266,0.08475 0.0093,0 0.05278,-0.03814 0.09656,-0.08475 z m 0.445004,-0.415254 c 0.04216,-0.05376 0.04097,-0.05496 -0.0128,-0.0128 -0.03263,0.02559 -0.05932,0.05228 -0.05932,0.05932 0,0.0279 0.02784,0.0099 0.07212,-0.04652 z m 1.87703,-1.737289 c 0.03375,-0.03729 0.05373,-0.0678 0.04441,-0.0678 -0.0093,0 -0.04456,0.03051 -0.07831,0.0678 -0.03375,0.03729 -0.05373,0.0678 -0.04441,0.0678 0.0093,0 0.04456,-0.03051 0.07831,-0.0678 z m 0.461953,-0.432203 c 0.04216,-0.05376 0.04097,-0.05496 -0.0128,-0.0128 -0.03263,0.02559 -0.05932,0.05228 -0.05932,0.05932 0,0.0279 0.02784,0.0099 0.07212,-0.04652 z M 17.135855,46.583423 c 0.03374,-0.03729 0.05373,-0.0678 0.04441,-0.0678 -0.0093,0 -0.04456,0.03051 -0.0783,0.0678 -0.03375,0.03729 -0.05373,0.0678 -0.04441,0.0678 0.0093,0 0.04456,-0.03051 0.07831,-0.0678 z m 0.508474,-0.474577 c 0.03375,-0.03729 0.05373,-0.0678 0.04441,-0.0678 -0.0093,0 -0.04456,0.03051 -0.0783,0.0678 -0.03374,0.03729 -0.05373,0.0678 -0.04441,0.0678 0.0093,0 0.04456,-0.03051 0.0783,-0.0678 z m 34.597546,-1.008474 c 0.04216,-0.05376 0.04097,-0.05496 -0.0128,-0.0128 -0.03263,0.02559 -0.05932,0.05228 -0.05932,0.05932 0,0.0279 0.02784,0.0099 0.07212,-0.04652 z m 0.474576,-0.440678 c 0.04216,-0.05376 0.04097,-0.05496 -0.0128,-0.0128 -0.05646,0.04428 -0.07442,0.07212 -0.04652,0.07212 0.007,0 0.03373,-0.0267 0.05932,-0.05932 z M 20.241874,43.676643 c 0.04217,-0.05376 0.04097,-0.05496 -0.0128,-0.0128 -0.03263,0.02559 -0.05932,0.05228 -0.05932,0.05932 0,0.0279 0.02784,0.0099 0.07212,-0.04652 z"
     id="path4162"
     inkscape:connector-curvature="0" />
  <path
     style="opacity:1;fill:#60b1f3;fill-opacity:1;fill-rule:nonzero;stroke:none;stroke-width:1.5;stroke-miterlimit:4;stroke-dasharray:none;stroke-opacity:1"
     d="M 5.330658,56.809434 C 4.9921704,56.451533 4.8689005,56.041035 4.9460328,55.528603 c 0.023525,-0.15629 0.063179,-0.329926 0.08812,-0.385858 l 0.045348,-0.101695 0.00275,0.09903 c 0.00274,0.09867 0.00312,0.09848 0.1022506,-0.05085 C 5.3377795,54.858347 7.511846,52.718575 9.5426345,50.799852 14.124048,46.471257 20.43941,40.526201 20.765983,40.234594 21.04134,39.98872 20.200404,40.007151 31.142977,40.007151 l 9.840335,0 0,7.486804 0,7.486804 0.177967,0.02138 c 0.410722,0.04933 0.345993,0.08576 1.110169,-0.624723 0.382203,-0.355347 0.771187,-0.724798 0.864407,-0.821003 0.09322,-0.0962 0.112288,-0.122676 0.04237,-0.05883 l -0.127119,0.116089 0,-1.91628 c 0,-1.053954 -0.01015,-4.115422 -0.02256,-6.80326 l -0.02256,-4.88698 7.59977,0 7.599773,0 0.24482,0.120769 c 0.266498,0.13146 0.39577,0.238345 0.509909,0.421604 0.06566,0.105422 0.0739,0.165867 0.0739,0.542373 0,0.405889 -0.0042,0.431335 -0.100075,0.604389 -0.05504,0.09936 -0.184891,0.259533 -0.288556,0.355932 -0.103667,0.0964 -1.897227,1.776967 -3.985694,3.734594 -2.088465,1.957628 -4.612851,4.323024 -5.609746,5.256436 -0.996899,0.933412 -2.697285,2.525749 -3.778641,3.538525 -2.196508,2.057206 -2.397461,2.237088 -2.611576,2.337734 l -0.150397,0.07069 -18.503927,0 -18.5039266,0 -0.1709634,-0.180768 z m 38.279773,-3.683638 c 0.09182,-0.09322 0.159315,-0.169492 0.149993,-0.169492 -0.0093,0 -0.09207,0.07627 -0.183891,0.169492 -0.09182,0.09322 -0.159315,0.169491 -0.149993,0.169491 0.0093,0 0.09207,-0.07627 0.183891,-0.169491 z m 0.627119,-0.600279 c 0,-0.02545 -0.03043,0.0015 -0.170909,0.151126 l -0.151125,0.161017 0.161017,-0.151126 c 0.08856,-0.08312 0.161017,-0.155576 0.161017,-0.161017 z m 0.355932,-0.314976 c 0.07282,-0.07458 0.124776,-0.135593 0.115454,-0.135593 -0.0093,0 -0.07653,0.06102 -0.149352,0.135593 -0.07282,0.07458 -0.124777,0.135593 -0.115455,0.135593 0.0093,0 0.07653,-0.06102 0.149353,-0.135593 z m 1.016949,-0.949152 c 0.07282,-0.07458 0.124776,-0.135593 0.115454,-0.135593 -0.0093,0 -0.07653,0.06102 -0.149352,0.135593 -0.07282,0.07458 -0.124776,0.135593 -0.115454,0.135593 0.0093,0 0.07653,-0.06102 0.149352,-0.135593 z m 0.525424,-0.491526 c 0.04379,-0.04661 0.07199,-0.08474 0.06266,-0.08474 -0.0093,0 -0.05278,0.03813 -0.09656,0.08474 -0.04379,0.04661 -0.07199,0.08475 -0.06266,0.08475 0.0093,0 0.05278,-0.03814 0.09656,-0.08475 z m 0.457627,-0.423729 c 0.03375,-0.03729 0.05373,-0.0678 0.04441,-0.0678 -0.0093,0 -0.04456,0.03051 -0.07831,0.0678 -0.03375,0.03729 -0.05373,0.0678 -0.04441,0.0678 0.0093,0 0.04456,-0.03051 0.07831,-0.0678 z"
     id="path4164"
     inkscape:connector-curvature="0" />
</svg>
