<svg xmlns="http://www.w3.org/2000/svg" width="64" height="64" viewBox="0 0 64 64"><g fill="none"><path d="M21 20v-9.8l-10.7 8.6-1.4 1.2zM42 20h.1l13.1-11h-32.2v11zM21 22h-14v31.2l14-13.1zM43 53.7l12.7-11.7h-12.7zM22 42l-13.9 13h32.9v-13h-19zM23 22h18v18h-18zM43 21.9v18.1h14v-29.9l-13.7 11.7-.3.1z"/></g><path fill="#3DB1F3" d="M42.1 20h-36.400000000000006c-.3.1-.6.4-.6.7v35.300000000000004c0 .6.4 1 1 1h36c.3 0 .5-.1.7-.3.2-.2.3-.4.3-.7v-35c-.1-.5-.5-.9-1-1zm-1.1 20v15h-34v-33h34v18z"/><path d="M22 42h19v-2h-18v-18h-2v18.1l-14 13.1v1.8h1.1l13.9-13zM58.5 7.1c-.1-.1-.3-.1-.5-.1h-.1.1.1.2c.1.1.2.1.2.1.2.2.3.4.4.6.1.4 0 .8-.3 1.1l-1.6 1.3 1.6-1.3c.3-.3.5-.7.3-1.1-.1-.2-.2-.4-.4-.6h-36.5c-.2 0-.4.1-.5.2l-.1.1-6.7 5.5-8.9 7.2h3.0999999999999996l1.5-1.2 10.6-8.7v9.8h2v-11h32.2l-13 11h-.2.1c.5.1.9.5.9 1v.9c.1 0 .2-.1.3-.2l13.7-11.6v29.9h-14v2h12.7l-12.7 11.7v2.3c0 .3-.1.5-.3.7l16.1-14.9c.2-.2.2-.5.2-.7v-33.1c0-.4-.1-.7-.5-.9z"/></svg>