<svg xmlns="http://www.w3.org/2000/svg" width="627" height="411.3" viewBox="2028.2 252.3 627 411.3" enable-background="new 2028.2 252.3 627 411.3"><path fill="#7B1FA2" d="M2028.2 252.3h626.4v411.2h-626.4z"/><path fill="#9C27B0" d="M2374.3 252.3h-140.6c-113.5 0-205.5 92-205.5 205.5 0 112.4 90.3 203.7 202.3 205.4.5.1 61.1.2 143.9.3v.2h280.9v-411.4h-281z"/><path fill="#828282" d="M2539.6 346.5h-250.8c-62.6 0-113.3 50.7-113.3 113.3 0 62 49.7 112.3 111.5 113.2.3.1 33.7.1 79.3.1v.1h288.30000000000007v-226.7h-115z"/><path fill="#BA68C8" d="M2566.3 310.8h-330c-82.3 0-149 66.7-149 149 0 81.5 65.4 147.7 146.6 148.9.4.1 44.3.1 104.3.2v.2h316.8v-298.3h-88.7z"/><path fill="#fff" d="M2530 543.9l-128.3-.2c-7.7 0-14-5-14-11s6.3-11 14-11h78.8c7.7 0 14-6.3 14-14v-1.4c0-7.7-6.3-14-14-14h-47.1c-7.7 0-14-3.5-14-7.8s6.3-7.8 14-7.8h27.2c7.7 0 14-6.3 14-14v-1.4c0-7.7-6.3-14-14-14h-58.9c-7.7 0-14-4.9-14-10.8s6.3-10.8 14-10.8h80.6c7.7 0 14-6.3 14-14v-4.2c0-7.7-6.3-14-14-14h-57.9c-7.7 0-14-4-14-8.9s6.3-8.9 14-8.9h22.3c7.7 0 14-6.3 14-14v-1.4c0-7.7-6.3-14-14-14h-201.8c-62.6 0-113.3 50.7-113.3 113.3 0 62 49.7 112.3 111.5 113.2.9.2 287 .3 287 .3 7.7 0 14-6.3 14-14v-1.4c-.1-7.5-6.4-13.7-14.1-13.8z"/><circle fill="#D81B60" cx="2251.9" cy="458.5" r="90.8"/><path fill="#fff" d="M2554.1 425.6h-20.3c-8.1 0-14.7-6.6-14.7-14.7v-2.6c0-8.1 6.6-14.7 14.7-14.7h20.3c8.1 0 14.7 6.6 14.7 14.7v2.6c0 8.1-6.6 14.7-14.7 14.7zM2627.1 573.3h-51.6c-8.1 0-14.7-6.6-14.7-14.7s6.6-14.7 14.7-14.7h51.6c8.1 0 14.7 6.6 14.7 14.7s-6.6 14.7-14.7 14.7zM2518.7 376h-8.7c-8.1 0-14.7-6.6-14.7-14.7s6.6-14.7 14.7-14.7h8.7c8.1 0 14.7 6.6 14.7 14.7.1 8.1-6.5 14.7-14.7 14.7zM2614 476.7h-42.4c-8.1 0-14.7-6.6-14.7-14.7s6.6-14.7 14.7-14.7h42.4c8.1 0 14.7 6.6 14.7 14.7.1 8.1-6.5 14.7-14.7 14.7zM2625.7 376h-55.8c-8.1 0-14.7-6.6-14.7-14.7s6.6-14.7 14.7-14.7h55.8c8.1 0 14.7 6.6 14.7 14.7.1 8.1-6.5 14.7-14.7 14.7zM2562.4 520.6h-31.2c-8.1 0-14.7-6.6-14.7-14.7s6.6-14.7 14.7-14.7h31.2c8.1 0 14.7 6.6 14.7 14.7s-6.6 14.7-14.7 14.7z"/></svg>