<?xml version="1.0" encoding="UTF-8" standalone="no"?>
<svg
   xmlns:dc="http://purl.org/dc/elements/1.1/"
   xmlns:cc="http://creativecommons.org/ns#"
   xmlns:rdf="http://www.w3.org/1999/02/22-rdf-syntax-ns#"
   xmlns:svg="http://www.w3.org/2000/svg"
   xmlns="http://www.w3.org/2000/svg"
   xmlns:sodipodi="http://sodipodi.sourceforge.net/DTD/sodipodi-0.dtd"
   xmlns:inkscape="http://www.inkscape.org/namespaces/inkscape"
   width="107"
   height="70"
   viewBox="4 16 107 70"
   enable-background="new 4 16 107 70"
   id="svg2"
   version="1.1"
   inkscape:version="0.91 r13725"
   sodipodi:docname="icon.svg">
  <metadata
     id="metadata26">
    <rdf:RDF>
      <cc:Work
         rdf:about="">
        <dc:format>image/svg+xml</dc:format>
        <dc:type
           rdf:resource="http://purl.org/dc/dcmitype/StillImage" />
      </cc:Work>
    </rdf:RDF>
  </metadata>
  <defs
     id="defs24" />
  <sodipodi:namedview
     pagecolor="#ffffff"
     bordercolor="#666666"
     borderopacity="1"
     objecttolerance="10"
     gridtolerance="10"
     guidetolerance="10"
     inkscape:pageopacity="0"
     inkscape:pageshadow="2"
     inkscape:window-width="1920"
     inkscape:window-height="1051"
     id="namedview22"
     showgrid="false"
     inkscape:zoom="7.6922644"
     inkscape:cx="37.736853"
     inkscape:cy="19.40057"
     inkscape:window-x="1920"
     inkscape:window-y="0"
     inkscape:window-maximized="1"
     inkscape:current-layer="svg2" />
  <path
     fill="#9C27B0"
     d="M4 16h107v70h-107z"
     id="path4" />
  <path
     opacity=".69"
     fill="#7C1F92"
     d="M79.5 16h-44c-11.6 7.2-19.3 20-19.3 34.5s7.7 28.3 19.3 35.5h43.9c11.6-7.2 19.3-20.9 19.3-35.5.1-14.5-7.6-27.3-19.2-34.5z"
     id="path6" />
  <path
     fill="#F4478A"
     d="M48.1 73.3h-35.8c-1.5 0-2.6-1.2-2.6-2.6v-39.4c0-1.5 1.2-2.6 2.6-2.6h25.2l13.2 13.3v28.7c0 1.4-1.2 2.6-2.6 2.6z"
     id="path8"
     style="fill:#ff9955" />
  <path
     fill="#D81B60"
     d="M50.7 42h-10.6c-1.5 0-2.6-1.2-2.6-2.6v-10.8l13.2 13.4z"
     id="path10"
     style="fill:#ff7f2a" />
  <path
     fill="#FFB500"
     d="M102.6 73.6h-35.8c-1.5 0-2.6-1.2-2.6-2.6v-39.5c0-1.5 1.2-2.6 2.6-2.6h25.2l13.2 13.4v28.7c0 1.4-1.1 2.6-2.6 2.6z"
     id="path12" />
  <path
     fill="#FB8100"
     d="M105.2 42.3h-10.6c-1.5 0-2.6-1.2-2.6-2.6v-10.8l13.2 13.4z"
     id="path14" />
  <path
     fill="#fff"
     d="M55.8 49.5c-.5.5-.5 1.3 0 1.8l1.6 1.6h-4c-.7 0-1.2.6-1.2 1.2 0 .7.6 1.2 1.2 1.2h4l-1.6 1.7c-.5.5-.5 1.3 0 1.8s1.3.5 1.8 0l4.6-4.6-4.6-4.6c-.2-.2-.6-.4-.9-.4-.4 0-.7.1-.9.3z"
     id="path20" />
  <text
     xml:space="preserve"
     style="font-style:normal;font-weight:normal;font-size:12.24696159px;line-height:125%;font-family:sans-serif;letter-spacing:0px;word-spacing:0px;fill:#ffffff;fill-opacity:1;stroke:none;stroke-width:1px;stroke-linecap:butt;stroke-linejoin:miter;stroke-opacity:1"
     x="15.852059"
     y="58.21788"
     id="text3354"
     sodipodi:linespacing="125%"><tspan
       sodipodi:role="line"
       id="tspan3356"
       x="15.852059"
       y="58.21788">MSH</tspan></text>
  <text
     xml:space="preserve"
     style="font-style:normal;font-weight:normal;font-size:12.24696159px;line-height:125%;font-family:sans-serif;letter-spacing:0px;word-spacing:0px;fill:#ffffff;fill-opacity:1;stroke:none;stroke-width:1px;stroke-linecap:butt;stroke-linejoin:miter;stroke-opacity:1"
     x="67.312599"
     y="58.21788"
     id="text3354-3"
     sodipodi:linespacing="125%"><tspan
       sodipodi:role="line"
       id="tspan3356-6"
       x="67.312599"
       y="58.21788">FOAM</tspan></text>
</svg>
