<?xml version="1.0" encoding="utf-8"?>
<!-- Generator: Adobe Illustrator 18.1.1, SVG Export Plug-In . SVG Version: 6.00 Build 0)  -->
<svg version="1.1" id="Layer_1" xmlns="http://www.w3.org/2000/svg" xmlns:xlink="http://www.w3.org/1999/xlink" x="0px" y="0px"
	 width="64px" height="64px" viewBox="0 0 64 64" enable-background="new 0 0 64 64" xml:space="preserve">
<g>
	<path d="M57.5,56C57.5,56,57.5,56,57.5,56h-33c-0.8,0-1.5-0.7-1.8-1.5l-18-43.1c-0.3-0.6-0.2-1.1,0.2-1.7C5.2,9.1,5.8,9,6.5,9h33
		c0.8,0,1.5,0.2,1.8,1l17.9,42.6c0.2,0.3,0.3,0.8,0.3,1.2C59.5,54.9,58.6,56,57.5,56z M25.8,52h28.7L38.2,13H9.5L25.8,52z"/>
</g>
</svg>
