<?xml version="1.0" encoding="utf-8"?>
<!-- Generator: Adobe Illustrator 18.1.1, SVG Export Plug-In . SVG Version: 6.00 Build 0)  -->
<svg version="1.1" id="Layer_1" xmlns="http://www.w3.org/2000/svg" xmlns:xlink="http://www.w3.org/1999/xlink" x="0px" y="0px"
	 width="64px" height="64px" viewBox="0 0 64 64" enable-background="new 0 0 64 64" xml:space="preserve">
<path d="M59.2,49.8l-6.4-15.3c2.5-1.8,4.1-4.6,4.1-7.8c0-5.4-4.5-9.7-10-9.7c-0.5,0-1,0-1.5,0.1l-4.1-9.6c-0.4-0.6-1-0.5-1.8-0.5
	h-33C4.7,7,4.4,8.2,4.6,8.8l4.9,11.8c-2.8,1.7-4.6,4.7-4.6,8.2c0,5.4,4.5,9.7,10,9.7c0.7,0,1.4-0.1,2-0.2l5.7,13.9
	c0.3,0.7,0.9,1.9,2.4,1.9h5c0.9,4,5,7.9,9.8,7.9c4.9,0,8.9-3.9,9.8-7.9h7.8c0,0,0,0,0,0c1.1,0,2-1.5,2-2.6
	C59.5,51,59.4,50.1,59.2,49.8z M52.9,26.7c0,3.2-2.7,5.7-6,5.7s-6-2.6-6-5.7s2.7-5.7,6-5.7S52.9,23.5,52.9,26.7z M8.9,28.7
	c0-3.2,2.7-5.7,6-5.7s6,2.6,6,5.7s-2.7,5.7-6,5.7S8.9,31.9,8.9,28.7z M39.9,57.4c-3.3,0-6-2.6-6-5.7s2.7-5.7,6-5.7s6,2.6,6,5.7
	S43.2,57.4,39.9,57.4z M49.8,50.1C49,45.5,44.9,42,39.9,42c-5,0-9.1,3.5-9.9,8.2l-4.1,0l-5.5-13.3c2.7-1.7,4.5-4.7,4.5-8.1
	c0-5.4-4.2-9.6-9.7-9.6c-0.6,0-1.8,0.1-2.2,0.3L9.5,11h29.2l3.3,7.4c-3,1.7-5.1,4.7-5.1,8.4c0,5.4,4.5,9.7,10,9.7
	c1,0,1.9-0.2,2.8-0.4l6.1,14L49.8,50.1z"/>
</svg>
