<?xml version="1.0" encoding="utf-8"?>
<!-- Generator: Adobe Illustrator 18.1.1, SVG Export Plug-In . SVG Version: 6.00 Build 0)  -->
<svg version="1.1" id="Layer_1" xmlns="http://www.w3.org/2000/svg" xmlns:xlink="http://www.w3.org/1999/xlink" x="0px" y="0px"
	 width="64px" height="64px" viewBox="0 0 64 64" enable-background="new 0 0 64 64" xml:space="preserve">
<g>
	<path d="M57.4,39H55V11h2.7c0,0,0,0,0,0c0.6,0,1-0.2,1-0.8c0-0.3-0.2-0.5-0.4-0.7l-3.9-4c-0.4-0.4-1-0.4-1.4,0l-4.4,4.2
		c-0.3,0.3-0.4,0.5-0.2,0.9c0.2,0.4,0.5,0.4,0.9,0.4H51v28h-1.7c-0.4,0-0.8,0.5-0.9,0.9s0,0.9,0.3,1.2l4.4,4.1
		c0.2,0.2,0.4,0.3,0.7,0.3c0.3,0,0.5-0.1,0.7-0.3l3.8-4c0.3-0.3,0.4-0.9,0.2-1.3S57.9,39,57.4,39z"/>
	<path d="M41,49.5c-0.3-0.3-0.9-0.4-1.2-0.2c-0.4,0.2-0.8,0.5-0.8,0.9V52H11v-1.8c0-0.4-0.1-0.8-0.5-0.9s-0.7,0-1,0.3l-4,4.4
		c-0.4,0.4-0.3,1,0.1,1.4l4,3.8c0.3,0.3,0.6,0.4,0.9,0.2c0.4-0.2,0.5-0.5,0.5-0.9V56h28v2.6c0,0.4,0.4,0.8,0.8,0.9
		c0.1,0.1,0.3,0.1,0.5,0.1c0.3,0,0.5-0.1,0.7-0.3l4.2-4c0.4-0.4,0.4-1,0-1.4L41,49.5z"/>
	<path d="M23.3,8h3c1.1,0,2-0.9,2-2s-0.9-2-2-2h-3c-1.1,0-2,0.9-2,2S22.2,8,23.3,8z"/>
	<path d="M33.3,8h3c1.1,0,2-0.9,2-2s-0.9-2-2-2h-3c-1.1,0-2,0.9-2,2S32.2,8,33.3,8z"/>
	<path d="M27.3,44c0,1.1,0.9,2,2,2h3c1.1,0,2-0.9,2-2s-0.9-2-2-2h-3C28.2,42,27.3,42.9,27.3,44z"/>
	<path d="M42,40.5c1.1,0,2-0.9,2-2v-3c0-1.1-0.9-2-2-2s-2,0.9-2,2v3C40,39.6,40.9,40.5,42,40.5z"/>
	<path d="M42,11.5c1.1,0,2-0.9,2-2v-3c0-1.1-0.9-2-2-2s-2,0.9-2,2v3C40,10.6,40.9,11.5,42,11.5z"/>
	<path d="M42,20.5c1.1,0,2-0.9,2-2v-3c0-1.1-0.9-2-2-2s-2,0.9-2,2v3C40,19.6,40.9,20.5,42,20.5z"/>
	<path d="M42,30.5c1.1,0,2-0.9,2-2v-3c0-1.1-0.9-2-2-2s-2,0.9-2,2v3C40,29.6,40.9,30.5,42,30.5z"/>
	<path d="M7,39.5c1.1,0,2-0.9,2-2v-3c0-1.1-0.9-2-2-2s-2,0.9-2,2v3C5,38.6,5.9,39.5,7,39.5z"/>
	<path d="M7,11.5c1.1,0,2-0.9,2-2v-3c0-1.1-0.9-2-2-2s-2,0.9-2,2v3C5,10.6,5.9,11.5,7,11.5z"/>
	<path d="M7,21.5c1.1,0,2-0.9,2-2v-3c0-1.1-0.9-2-2-2s-2,0.9-2,2v3C5,20.6,5.9,21.5,7,21.5z"/>
	<path d="M7,30.5c1.1,0,2-0.9,2-2v-3c0-1.1-0.9-2-2-2s-2,0.9-2,2v3C5,29.6,5.9,30.5,7,30.5z"/>
	<path d="M37.3,44c0,1.1,0.9,2,2,2h3c1.1,0,2-0.9,2-2s-0.9-2-2-2h-3C38.2,42,37.3,42.9,37.3,44z"/>
	<path d="M17.3,44c0,1.1,0.9,2,2,2h3c1.1,0,2-0.9,2-2s-0.9-2-2-2h-3C18.2,42,17.3,42.9,17.3,44z"/>
	<path d="M13.3,8h3c1.1,0,2-0.9,2-2s-0.9-2-2-2h-3c-1.1,0-2,0.9-2,2S12.2,8,13.3,8z"/>
	<path d="M6.3,44c0,1.1,0.9,2,2,2h3c1.1,0,2-0.9,2-2s-0.9-2-2-2h-3C7.2,42,6.3,42.9,6.3,44z"/>
</g>
</svg>
