<?xml version="1.0" encoding="utf-8"?>
<!-- Generator: Adobe Illustrator 18.1.1, SVG Export Plug-In . SVG Version: 6.00 Build 0)  -->
<svg version="1.1" id="Layer_1" xmlns="http://www.w3.org/2000/svg" xmlns:xlink="http://www.w3.org/1999/xlink" x="0px" y="0px"
	 width="64px" height="64px" viewBox="0 0 64 64" enable-background="new 0 0 64 64" xml:space="preserve">
<g>
	<path d="M31.8,4.6c-15,0-27.3,12.2-27.3,27.3s12.2,27.3,27.3,27.3c15,0,27.3-12.2,27.3-27.3S46.8,4.6,31.8,4.6z M31.8,8.6
		c11.5,0,21.1,8.4,23,19.5c-0.6-0.1-1.2,0-1.6,0.5c-0.7,0.7-0.7,1.8,0,2.5c0.6,0.6,1.1,1.2,1.3,1.9c0.1,0.3,0.3,0.5,0.5,0.7
		c0,0.6-0.1,1.2-0.2,1.8c-1.3,4.1-10.2,8.3-23.2,8.3c-11.7,0-20.3-3.5-22.7-7.3c-0.2-1.2-0.4-2.4-0.4-3.6c0.3-0.1,0.5-0.3,0.7-0.6
		c0.4-0.6,1-1.2,1.7-1.8c0.8-0.6,0.9-1.7,0.3-2.5c-0.5-0.7-1.5-0.8-2.2-0.4C11,16.7,20.5,8.6,31.8,8.6z M31.8,55.2
		c-9.2,0-17.3-5.4-21-13.3c4.8,2.9,12.3,4.7,20.9,4.7c8.8,0,16.5-1.9,21.3-5C49.3,49.6,41.2,55.2,31.8,55.2z"/>
	<path d="M35.6,25.2c1,0.1,1.9,0.2,2.9,0.3c0.1,0,0.2,0,0.2,0c0.9,0,1.6-0.6,1.7-1.5c0.1-1-0.6-1.8-1.5-2c-1-0.1-2-0.2-3.1-0.3
		c-1-0.1-1.8,0.7-1.9,1.6C33.9,24.3,34.6,25.1,35.6,25.2z"/>
	<path d="M45.1,26.9c0.9,0.3,1.8,0.6,2.7,0.9c0.2,0.1,0.4,0.1,0.6,0.1c0.7,0,1.4-0.4,1.6-1.1c0.4-0.9-0.1-1.9-1-2.3
		c-0.9-0.4-1.9-0.7-3-1c-0.9-0.3-1.9,0.3-2.2,1.2S44.1,26.6,45.1,26.9z"/>
	<path d="M16,27.5c0.2,0,0.4,0,0.6-0.1c0.9-0.3,1.8-0.6,2.7-0.8c0.9-0.2,1.5-1.2,1.3-2.1c-0.2-0.9-1.2-1.5-2.1-1.3
		c-1,0.3-2.1,0.6-3,0.9c-0.9,0.3-1.4,1.3-1.1,2.2C14.6,27,15.3,27.5,16,27.5z"/>
	<path d="M25.7,25.4c0.1,0,0.1,0,0.2,0c0.9-0.1,1.9-0.2,2.9-0.2c1,0,1.7-0.9,1.7-1.8c0-1-0.8-1.7-1.8-1.7c-1,0.1-2.1,0.1-3.1,0.2
		c-1,0.1-1.7,1-1.6,1.9C24.1,24.7,24.9,25.4,25.7,25.4z"/>
</g>
</svg>
