<?xml version="1.0" encoding="utf-8"?>
<!-- Generator: Adobe Illustrator 18.1.1, SVG Export Plug-In . SVG Version: 6.00 Build 0)  -->
<svg version="1.1" id="Layer_1" xmlns="http://www.w3.org/2000/svg" xmlns:xlink="http://www.w3.org/1999/xlink" x="0px" y="0px"
	 width="64px" height="64px" viewBox="0 0 64 64" enable-background="new 0 0 64 64" xml:space="preserve">
<g>
	<path d="M58,16.1c0-0.1,0-0.2,0-0.3c0-0.1,0-0.1,0-0.2c0-0.1-0.1-0.2-0.1-0.3c0-0.1-0.1-0.1-0.1-0.2c-0.1-0.1-0.1-0.2-0.2-0.2
		c0-0.1-0.1-0.1-0.1-0.2c-0.1-0.1-0.2-0.1-0.2-0.2c0,0-0.1-0.1-0.1-0.1c0,0,0,0-0.1,0c0,0-0.1,0-0.1-0.1L32.6,2.8
		c-0.6-0.3-1.2-0.3-1.7,0L7.1,14.4c0,0,0,0-0.1,0.1c0,0,0,0-0.1,0c-0.1,0-0.1,0.1-0.1,0.1c-0.1,0.1-0.2,0.1-0.2,0.2
		c-0.1,0.1-0.1,0.1-0.1,0.2c-0.1,0.1-0.1,0.2-0.2,0.2c0,0.1-0.1,0.1-0.1,0.2c0,0.1-0.1,0.2-0.1,0.3c0,0.1,0,0.1,0,0.2
		C6,16,6,16,6,16.1c0,0,0,0,0,0c0,0,0,0,0,0v29.9c0,0.7,0.4,1.4,1,1.7l24,13.6c0.1,0.1,0.2,0.1,0.3,0.1c0.1,0,0.1,0,0.2,0.1
		c0.2,0,0.3,0.1,0.5,0.1s0.3,0,0.5-0.1c0.1,0,0.1,0,0.2-0.1c0.1,0,0.2-0.1,0.3-0.1l24-13.6c0.6-0.4,1-1,1-1.7L58,16.1
		C58,16.2,58,16.2,58,16.1C58,16.2,58,16.2,58,16.1z M31.8,6.8l19.8,9.5L31.9,27.2L12.3,16.3L31.8,6.8z M10,19.6l20,11.2v25.5L10,45
		V19.6z M54,45L34,56.3V30.8l20-11.2V45z"/>
	<path d="M20.9,38L19,38.9c-1,0.4-1.5,1.6-1.1,2.6c0.3,0.8,1.1,1.2,1.8,1.2c0.3,0,0.5-0.1,0.8-0.2l2-0.8c1-0.4,1.5-1.6,1.1-2.6
		C23.1,38.1,21.9,37.6,20.9,38z"/>
	<path d="M14.1,40.9l-2,0.8c-1,0.4-1.5,1.6-1.1,2.6c0.3,0.8,1.1,1.2,1.8,1.2c0.3,0,0.5-0.1,0.8-0.2l1.9-0.8c1-0.4,1.5-1.6,1.1-2.6
		C16.3,41,15.1,40.5,14.1,40.9z"/>
	<path d="M26.7,35.5l-0.9,0.4c-1,0.4-1.5,1.6-1,2.6c0.3,0.7,1.1,1.2,1.8,1.2c0.3,0,0.5-0.1,0.8-0.2l0.9-0.4c1-0.5,1.5-1.6,1-2.6
		C28.9,35.5,27.7,35.1,26.7,35.5z"/>
	<path d="M41.9,41.5l1.9,0.9c0.3,0.1,0.5,0.2,0.8,0.2c0.8,0,1.5-0.4,1.8-1.2c0.4-1,0-2.2-1-2.6l-1.9-0.9c-1-0.5-2.2,0-2.6,1
		C40.5,39.9,40.9,41.1,41.9,41.5z"/>
	<path d="M48.7,44.5l1.9,0.9c0.3,0.1,0.5,0.2,0.8,0.2c0.8,0,1.5-0.4,1.8-1.2c0.5-1,0-2.2-1-2.6l-1.9-0.9c-1-0.5-2.2,0-2.6,1
		C47.2,42.9,47.7,44.1,48.7,44.5z"/>
	<path d="M36.2,38.9l0.9,0.4c0.3,0.1,0.5,0.2,0.8,0.2c0.8,0,1.5-0.4,1.8-1.2c0.5-1,0-2.2-1-2.6l-0.9-0.4c-1-0.5-2.2,0-2.6,1
		C34.7,37.3,35.2,38.5,36.2,38.9z"/>
</g>
</svg>
