<?xml version="1.0" encoding="utf-8"?>
<!-- Generator: Adobe Illustrator 18.1.1, SVG Export Plug-In . SVG Version: 6.00 Build 0)  -->
<svg version="1.1" id="Layer_1" xmlns="http://www.w3.org/2000/svg" xmlns:xlink="http://www.w3.org/1999/xlink" x="0px" y="0px"
	 width="64px" height="64px" viewBox="0 0 64 64" enable-background="new 0 0 64 64" xml:space="preserve">
<path d="M33,25.7V14h3.9l-5.8-8.6l-6,8.6H29v11.7C13,26.4,1,33.4,1,42.2c0,9.3,13.6,16.6,30.9,16.6s30.6-7.3,30.6-16.6
	C62.5,33.2,50,26.1,33,25.7z M58.3,40H33V29.7C46,30,56.1,34.4,58.3,40z M32,54.8c-14.5,0-27-5.8-27-12.6c0-6.4,11-11.9,24-12.5V44
	h29.5C56.6,50,45.2,54.8,32,54.8z"/>
</svg>
