<?xml version="1.0" encoding="utf-8"?>
<!-- Generator: Adobe Illustrator 18.1.1, SVG Export Plug-In . SVG Version: 6.00 Build 0)  -->
<svg version="1.1" id="Layer_1" xmlns="http://www.w3.org/2000/svg" xmlns:xlink="http://www.w3.org/1999/xlink" x="0px" y="0px"
	 width="64px" height="64px" viewBox="0 0 64 64" enable-background="new 0 0 64 64" xml:space="preserve">
<path d="M59.2,52.6L46.5,22.3l5.2-4.7l2.7,2.9L58,9.2l-11.7,2.5l2.7,2.9l-4.1,3.7L41.3,10c-0.3-0.7-1-1-1.8-1h-33
	C5.8,9,5.2,9.1,4.8,9.7c-0.4,0.6-0.4,1.1-0.2,1.7l18,43.1c0.3,0.7,1,1.5,1.8,1.5h33c0,0,0,0,0,0c1.1,0,2-1.1,2-2.2
	C59.5,53.4,59.4,52.9,59.2,52.6z M25.8,52L9.5,13h28.7l3.5,8.3l-10.8,9.8c-0.8,0.7-0.9,2-0.1,2.8c0.4,0.4,0.9,0.7,1.5,0.7
	c0.5,0,1-0.2,1.3-0.5l9.8-8.9L54.5,52H25.8z"/>
</svg>
