<svg xmlns="http://www.w3.org/2000/svg" width="64" height="64" viewBox="0 0 64 64"><path d="M43.1 54.8c-3 0-5.4-.9-7.2-2.8-3.2-3.3-3-8.3-3-8.6v-20.1c0-.2 0-6.1 4-10.2 2.6-2.6 6.1-3.9 10.6-3.9h.9c8.1.3 13.8 6.4 13.8 14.9 0 7-4.6 13-10.8 14.5 1.2 1.7 1.8 3.8 1.8 6.1 0 5.4-4.3 9.9-9.5 10.1h-.6zm4.5-43.6c-3.9 0-7 1.1-9.2 3.3-3.4 3.5-3.4 8.7-3.4 8.8v20.3c0 .1-.1 4.5 2.4 7.1 1.5 1.5 3.5 2.2 6.2 2.1 4.2-.2 7.6-3.8 7.6-8.1 0-2.5-.8-4.6-2.4-6.1-.3-.3-.4-.7-.2-1s.5-.6.8-.7c6-.6 10.8-6.2 10.8-12.8 0-7.3-4.9-12.6-11.9-12.9h-.7zM20.4 54.8h-.5c-5.2-.2-9.2-4.6-9.2-10.1 0-2.2.7-4.4 1.9-6.1-6.1-1.5-10.5-7.4-10.5-14.5 0-8.6 5.3-14.6 13.1-14.9h.9c4.5 0 8 1.3 10.4 3.9 3.9 4.2 3.6 10 3.6 10.3v20.2c0 .1.3 5.3-2.7 8.6-1.8 1.7-4.1 2.6-7 2.6zm-4.4-43.6h-.8c-6.7.2-11.1 5.3-11.1 12.9 0 6.7 4.6 12.2 10.6 12.8.4 0 .7.3.8.7s0 .8-.2 1c-1.6 1.6-2.5 3.8-2.5 6.1 0 4.4 3.2 8 7.3 8.1 2.5.1 4.4-.6 5.8-2 2.5-2.7 2.2-7.1 2.2-7.1v-20.3c0-.1.3-5.3-3-8.9-2.2-2.2-5.2-3.3-9.1-3.3z"/></svg>